<?xml version="1.0" encoding="UTF-8" standalone="no"?>
<!-- Created with Inkscape (http://www.inkscape.org/) -->

<svg
   xmlns:dc="http://purl.org/dc/elements/1.1/"
   xmlns:cc="http://creativecommons.org/ns#"
   xmlns:rdf="http://www.w3.org/1999/02/22-rdf-syntax-ns#"
   xmlns:svg="http://www.w3.org/2000/svg"
   xmlns="http://www.w3.org/2000/svg"
   xmlns:sodipodi="http://sodipodi.sourceforge.net/DTD/sodipodi-0.dtd"
   xmlns:inkscape="http://www.inkscape.org/namespaces/inkscape"
   width="256"
   height="128"
   viewBox="0 0 256 128"
   version="1.1"
   id="svg8"
   inkscape:version="0.92.2 5c3e80d, 2017-08-06"
   sodipodi:docname="777.svg">
  <sodipodi:namedview
     id="base"
     pagecolor="#ffffff"
     bordercolor="#666666"
     borderopacity="1.0"
     inkscape:pageopacity="0.0"
     inkscape:pageshadow="2"
     inkscape:zoom="1.9999999"
     inkscape:cx="133.27994"
     inkscape:cy="45.113508"
     inkscape:document-units="px"
     inkscape:current-layer="layer1"
     showgrid="false"
     units="px"
     inkscape:snap-intersection-paths="false"
     inkscape:object-nodes="true"
     inkscape:snap-smooth-nodes="true"
     inkscape:window-width="1920"
     inkscape:window-height="2032"
     inkscape:window-x="0"
     inkscape:window-y="60"
     inkscape:window-maximized="0"
     inkscape:object-paths="true">
    <inkscape:grid
       empspacing="8"
       id="grid852"
       type="xygrid" />
  </sodipodi:namedview>
  <defs
     id="defs2" />
  <metadata
     id="metadata5">
    <rdf:RDF>
      <cc:Work
         rdf:about="">
        <dc:format>image/svg+xml</dc:format>
        <dc:type
           rdf:resource="http://purl.org/dc/dcmitype/StillImage" />
        <dc:title />
      </cc:Work>
    </rdf:RDF>
  </metadata>
  <g
     transform="translate(0,-922.06667)"
     id="layer1"
     inkscape:groupmode="layer"
     inkscape:label="Layer 1">
    <rect
       style="opacity:1;fill:#e00017;fill-opacity:1;fill-rule:nonzero;stroke:none;stroke-width:3.31761432;stroke-linecap:round;stroke-linejoin:round;stroke-miterlimit:4;stroke-dasharray:none;stroke-opacity:1;paint-order:stroke fill markers"
       id="rect959"
       width="429.30109"
       height="429.30109"
       x="-86.650543"
       y="771.41614" />
    <g
       id="g918">
      <g
         id="g846">
        <path
           style="fill:#000000;stroke:#000000;stroke-width:2;stroke-linecap:butt;stroke-linejoin:round;stroke-miterlimit:4;stroke-dasharray:none;stroke-opacity:1"
           d="m 58,1002.0667 c -1.56986,-15.70451 9.67074,-50.39808 29,-66.00003 l -2,-4 H 40 l -11,20 3,4 h 10 l 5,-9 h 11 c -10.742476,15.39999 -19.317506,37.8754 -23,50 l 4,5.00003 z"
           id="path25"
           inkscape:connector-curvature="0"
           sodipodi:nodetypes="cccccccccccc" />
        <path
           style="fill:#ffffff;stroke:#ffffff;stroke-width:2;stroke-linecap:butt;stroke-linejoin:round;stroke-miterlimit:4;stroke-dasharray:none;stroke-opacity:1"
           d="m 52,996.06667 c 1.784814,-21.35108 12.551456,-44.48299 28,-62 H 41 l -9,17 h 8 l 5,-9 h 19 c -12.499097,15.13737 -23.757916,43.07123 -27,54 z"
           id="path842"
           inkscape:connector-curvature="0"
           sodipodi:nodetypes="ccccccccc" />
      </g>
      <g
         transform="translate(66)"
         id="g852">
        <path
           sodipodi:nodetypes="cccccccccccc"
           inkscape:connector-curvature="0"
           id="path848"
           d="m 58,1002.0667 c -1.56986,-15.70451 9.67074,-50.39808 29,-66.00003 l -2,-4 H 40 l -11,20 3,4 h 10 l 5,-9 h 11 c -10.742476,15.39999 -19.317506,37.8754 -23,50 l 4,5.00003 z"
           style="fill:#000000;stroke:#000000;stroke-width:2;stroke-linecap:butt;stroke-linejoin:round;stroke-miterlimit:4;stroke-dasharray:none;stroke-opacity:1" />
        <path
           sodipodi:nodetypes="ccccccccc"
           inkscape:connector-curvature="0"
           id="path850"
           d="m 52,996.06667 c 1.784814,-21.35108 12.551456,-44.48299 28,-62 H 41 l -9,17 h 8 l 5,-9 h 19 c -12.499097,15.13737 -23.757916,43.07123 -27,54 z"
           style="fill:#ffffff;stroke:#ffffff;stroke-width:2;stroke-linecap:butt;stroke-linejoin:round;stroke-miterlimit:4;stroke-dasharray:none;stroke-opacity:1" />
      </g>
      <g
         id="g858"
         transform="translate(134)">
        <path
           style="fill:#000000;stroke:#000000;stroke-width:2;stroke-linecap:butt;stroke-linejoin:round;stroke-miterlimit:4;stroke-dasharray:none;stroke-opacity:1"
           d="m 58,1002.0667 c -1.56986,-15.70451 9.67074,-50.39808 29,-66.00003 l -2,-4 H 40 l -11,20 3,4 h 10 l 5,-9 h 11 c -10.742476,15.39999 -19.317506,37.8754 -23,50 l 4,5.00003 z"
           id="path854"
           inkscape:connector-curvature="0"
           sodipodi:nodetypes="cccccccccccc" />
        <path
           style="fill:#ffffff;stroke:#ffffff;stroke-width:2;stroke-linecap:butt;stroke-linejoin:round;stroke-miterlimit:4;stroke-dasharray:none;stroke-opacity:1"
           d="m 52,996.06667 c 1.784814,-21.35108 12.551456,-44.48299 28,-62 H 41 l -9,17 h 8 l 5,-9 h 19 c -12.499097,15.13737 -23.757916,43.07123 -27,54 z"
           id="path856"
           inkscape:connector-curvature="0"
           sodipodi:nodetypes="ccccccccc" />
      </g>
    </g>
    <g
       id="g866">
      <path
         sodipodi:nodetypes="csccc"
         inkscape:connector-curvature="0"
         id="path860"
         d="m 10,928.06667 c -7.3768925,6.69618 -8.9580662,14.54064 -2,15 6.024917,0.39776 5.472909,-8.37876 1,-9 1,-2 3,-4 3,-4 z"
         style="fill:#f1dd2f;fill-opacity:1;stroke:#000000;stroke-width:1px;stroke-linecap:butt;stroke-linejoin:round;stroke-opacity:1" />
      <path
         style="fill:#f1dd2f;fill-opacity:1;stroke:#000000;stroke-width:1px;stroke-linecap:butt;stroke-linejoin:round;stroke-opacity:1"
         d="m 23,928.06667 c -7.376892,6.69618 -8.958066,14.54064 -2,15 6.024917,0.39776 5.472909,-8.37876 1,-9 1,-2 3,-4 3,-4 z"
         id="path862"
         inkscape:connector-curvature="0"
         sodipodi:nodetypes="csccc" />
    </g>
    <g
       id="g872"
       transform="rotate(180,128,935.573)">
      <path
         style="fill:#f1dd2f;fill-opacity:1;stroke:#000000;stroke-width:1px;stroke-linecap:butt;stroke-linejoin:round;stroke-opacity:1"
         d="m 10,928.06667 c -7.3768925,6.69618 -8.9580662,14.54064 -2,15 6.024917,0.39776 5.472909,-8.37876 1,-9 1,-2 3,-4 3,-4 z"
         id="path868"
         inkscape:connector-curvature="0"
         sodipodi:nodetypes="csccc" />
      <path
         sodipodi:nodetypes="csccc"
         inkscape:connector-curvature="0"
         id="path870"
         d="m 23,928.06667 c -7.376892,6.69618 -8.958066,14.54064 -2,15 6.024917,0.39776 5.472909,-8.37876 1,-9 1,-2 3,-4 3,-4 z"
         style="fill:#f1dd2f;fill-opacity:1;stroke:#000000;stroke-width:1px;stroke-linecap:butt;stroke-linejoin:round;stroke-opacity:1" />
    </g>
    <g
       id="g931">
      <path
         sodipodi:nodetypes="csccssccsscsscc"
         inkscape:connector-curvature="0"
         id="path876"
         d="m 44.031252,1024.2229 c -1.394571,-1.7538 -1.952699,-3.6883 -0.90625,-5.7812 3.169094,-6.3382 10.081744,-2.2026 15.125001,-4.0938 -0.591864,1.4137 -2.10433,2.5842 -2.40625,4.0938 -1.09953,7.4219 3.547743,14.8179 -6.468751,18.2812 -1.781722,0.616 -4.514414,1.1647 -6.40625,0.2188 -4.685146,-2.3426 -1.773141,-8.8042 3.46875,-8.1875 -0.01432,0.9364 0.04408,1.9066 -0.0625,2.8125 -7.16096,-1.3942 -5.500295,7.3409 0.75,4.9375 8.994641,-3.4587 5.221767,-9.2405 6.0625,-13.6875 0.425261,-2.2494 2.140608,-3.9529 2.281251,-6.3438 -0.895424,0.6826 -1.874594,0.9999 -2.906251,1.3438 -1.10659,0.3688 -2.931832,-1.9702 -4.8125,-1.5 -3.154024,0.7885 -3.50545,4.1925 -1.0625,5.9375 -0.421489,1.0632 -1.656942,1.594 -2.65625,1.9687 z"
         style="fill:#f1dd2f;fill-opacity:1;stroke:none;stroke-width:1px;stroke-linecap:butt;stroke-linejoin:round;stroke-opacity:1" />
      <path
         sodipodi:nodetypes="cccccccccccccccc"
         inkscape:connector-curvature="0"
         id="path880"
         d="m 60.258759,1018.6667 c 1.242295,-1.2909 2.743176,-2.1331 3.911184,-3.5134 0.01481,2.3163 -0.0221,4.638 -0.0221,6.9606 1.317358,-1.3896 3.383214,-2.54 4.772974,-3.8228 0.160788,0.6572 2.707456,2.6574 1.303728,2.74 -0.05037,2.3062 -0.03977,4.7257 0.110486,7.6014 0.413782,0.5542 1.098929,0.6638 1.613087,0.9723 -0.669639,0.8046 -1.588961,1.156 -2.276,1.9003 -0.876304,-0.5838 -1.87027,-1.1654 -2.828427,-1.5247 0.02417,-2.1455 0.157672,-4.6899 0.110485,-8.1096 -1.332942,0.3337 -2.273036,0.7256 -2.80633,1.9445 0.225045,2.0144 0.2036,4.0511 0.441942,5.9883 -0.943137,0.5921 -2.104319,1.3996 -3.204078,1.812 0.216003,-0.5339 0.274538,-0.9354 -0.04419,-1.37 -0.03619,-1.3621 0.294229,-10.5996 -0.0221,-10.916 -0.432269,-0.4322 -0.612714,-0.6365 -1.060661,-0.6629 z"
         style="fill:#f1dd2f;fill-opacity:1;stroke:none;stroke-width:1px;stroke-linecap:butt;stroke-linejoin:miter;stroke-opacity:1" />
      <path
         sodipodi:nodetypes="ccccccccccccccc"
         inkscape:connector-curvature="0"
         id="path884"
         d="m 73.539109,1022.5337 c 1.842034,-2.8538 3.464952,-3.4213 4.883456,-5.2591 0.349098,1.0075 0.203444,2.1045 0.375651,3.1378 3.05869,-2.597 2.278805,-1.604 3.889087,-3.1157 0.407781,0.9471 2.147375,1.3524 2.629554,3.0715 -0.206799,1.1176 -1.095525,3.5816 -2.600525,4.9308 -0.134718,-1.1104 -0.267317,-2.6353 -0.29419,-3.8702 -0.360001,-0.3436 -0.901819,-0.9127 -1.568897,-1.2816 -1.133261,1.2215 -0.796106,0.6553 -2.585359,2.3423 0.331626,2.7574 0.343653,4.6585 0.353553,5.922 0.471211,1.5784 1.735426,0.9495 2.386485,0.6408 -0.658132,0.6299 -1.808468,2.0837 -3.159883,2.4307 -1.175979,-1.1466 -1.50544,-1.3846 -2.165515,-1.9224 0.0054,-3.249 0.0052,-6.4641 -0.176776,-8.0434 -0.604029,0.4191 -1.57073,0.5486 -1.966641,1.0165 z"
         style="fill:#f1dd2f;fill-opacity:1;stroke:none;stroke-width:1px;stroke-linecap:butt;stroke-linejoin:miter;stroke-opacity:1" />
      <path
         sodipodi:nodetypes="ccccccccccccccc"
         inkscape:connector-curvature="0"
         id="path886"
         transform="translate(0,922.06667)"
         d="m 94.375,94.25 c -1.161197,2.1772 -4.119794,3.11495 -5.96875,4.65625 0.266937,2.269 0.06925,4.6949 0.375,6.9375 1.298473,1.1986 2.601811,2.2362 4.1875,2.8125 1.499394,-1.1781 3.083499,-2.30245 4.53125,-3.53125 -0.143912,-0.2399 -0.32182,-0.42795 -0.40625,-0.71875 -1.300529,0.6503 -2.605527,1.4618 -3.96875,2.0625 -0.735369,-0.3217 -1.352893,-0.7501 -1.875,-1.4375 2.023255,-2.1918 4.596687,-3.895 6.5,-6.0625 C 96.755092,97.31055 94.88282,96.1498 94.375,94.25 Z M 92.75,97.5 c 0.44599,0.922839 1.289043,1.844133 1.65625,3.09375 -0.903874,0.6026 -1.9413,1.37535 -2.90625,1.96875 0,-1.4302 0.182081,-2.95265 -0.1875,-4.28125 C 91.815045,98.07435 92.21254,97.6835 92.75,97.5 Z"
         style="fill:#f1dd2f;stroke:none;stroke-width:1px;stroke-linecap:butt;stroke-linejoin:miter;stroke-opacity:1;fill-opacity:1" />
      <path
         style="fill:#f1dd2f;fill-opacity:1;stroke:none;stroke-width:1px;stroke-linecap:butt;stroke-linejoin:miter;stroke-opacity:1"
         d="m 106.78125,1016.3167 c -1.1612,2.1772 -4.11979,3.1149 -5.96875,4.6562 0.26694,2.269 0.0692,4.6949 0.375,6.9375 1.29847,1.1986 2.60181,2.2362 4.1875,2.8125 1.49939,-1.1781 3.0835,-2.3024 4.53125,-3.5312 -0.14391,-0.2399 -0.32182,-0.428 -0.40625,-0.7188 -1.30053,0.6503 -2.60553,1.4618 -3.96875,2.0625 -0.73537,-0.3217 -1.35289,-0.7501 -1.875,-1.4375 2.02326,-2.1918 4.59669,-3.895 6.5,-6.0625 -0.99491,-1.6582 -2.86718,-2.8189 -3.375,-4.7187 z m -1.625,3.25 c 0.44599,0.9228 1.28904,1.8441 1.65625,3.0937 -0.90387,0.6026 -1.9413,1.3754 -2.90625,1.9688 0,-1.4302 0.18208,-2.9527 -0.1875,-4.2813 0.50255,-0.2069 0.90004,-0.5977 1.4375,-0.7812 z"
         id="path891"
         inkscape:connector-curvature="0"
         sodipodi:nodetypes="ccccccccccccccc" />
      <path
         sodipodi:nodetypes="ccsscsssccccc"
         inkscape:connector-curvature="0"
         id="path893"
         d="m 131.03573,1012.8994 c -2.64771,3.2653 -6.47656,5.3341 -9.94369,7.6456 5.03742,2.4087 14.55219,3.4349 12.59534,8.8388 -1.6967,4.6855 -11.57489,3.3191 -12.33017,-0.088 -1.0594,-4.7791 4.53725,-3.7599 6.54073,-1.8561 -0.96391,-1.7199 -3.90211,-3.6953 -6.67332,-2.6521 -5.17223,1.9471 0.38527,6.8453 2.74004,7.8224 3.4999,1.4523 13.60512,0.5003 11.22532,-6.9385 -1.10444,-3.4523 -7.05284,-4.3638 -9.98788,-5.7453 0.85027,-1.6927 2.81123,-2.884 4.19845,-3.6239 1.84244,1.6018 4.25896,2.3583 3.93328,5.1265 1.03624,-0.8262 2.17423,-1.7432 3.44714,-2.3422 -2.57218,-1.5286 -4.3806,-3.6286 -5.74524,-6.1872 z"
         style="fill:#f1dd2f;fill-opacity:1;stroke:none;stroke-width:1px;stroke-linecap:butt;stroke-linejoin:miter;stroke-opacity:1" />
      <path
         sodipodi:nodetypes="ccccccccccccccc"
         inkscape:connector-curvature="0"
         id="path895"
         d="m 147.34375,1016.3167 c -1.1612,2.1772 -4.11979,3.1149 -5.96875,4.6562 0.26694,2.269 0.0692,4.6949 0.375,6.9375 1.29847,1.1986 2.60181,2.2362 4.1875,2.8125 1.49939,-1.1781 3.0835,-2.3024 4.53125,-3.5312 -0.14391,-0.2399 -0.32182,-0.428 -0.40625,-0.7188 -1.30053,0.6503 -2.60553,1.4618 -3.96875,2.0625 -0.73537,-0.3217 -1.35289,-0.7501 -1.875,-1.4375 2.02326,-2.1918 4.59669,-3.895 6.5,-6.0625 -0.99491,-1.6582 -2.86718,-2.8189 -3.375,-4.7187 z m -1.625,3.25 c 0.44599,0.9228 1.28904,1.8441 1.65625,3.0937 -0.90387,0.6026 -1.9413,1.3754 -2.90625,1.9688 0,-1.4302 0.18208,-2.9527 -0.1875,-4.2813 0.50255,-0.2069 0.90004,-0.5977 1.4375,-0.7812 z"
         style="fill:#f1dd2f;fill-opacity:1;stroke:none;stroke-width:1px;stroke-linecap:butt;stroke-linejoin:miter;stroke-opacity:1" />
      <path
         style="fill:#f1dd2f;fill-opacity:1;stroke:none;stroke-width:1px;stroke-linecap:butt;stroke-linejoin:miter;stroke-opacity:1"
         d="m 173.81606,1016.3167 c -1.1612,2.1772 -4.11979,3.1149 -5.96875,4.6562 0.26694,2.269 0.0692,4.6949 0.375,6.9375 1.29847,1.1986 2.60181,2.2362 4.1875,2.8125 1.49939,-1.1781 3.0835,-2.3024 4.53125,-3.5312 -0.14391,-0.2399 -0.32182,-0.428 -0.40625,-0.7188 -1.30053,0.6503 -2.60553,1.4618 -3.96875,2.0625 -0.73537,-0.3217 -1.35289,-0.7501 -1.875,-1.4375 2.02326,-2.1918 4.59669,-3.895 6.5,-6.0625 -0.99491,-1.6582 -2.86718,-2.8189 -3.375,-4.7187 z m -1.625,3.25 c 0.44599,0.9228 1.28904,1.8441 1.65625,3.0937 -0.90387,0.6026 -1.9413,1.3754 -2.90625,1.9688 0,-1.4302 0.18208,-2.9527 -0.1875,-4.2813 0.50255,-0.2069 0.90004,-0.5977 1.4375,-0.7812 z"
         id="path897"
         inkscape:connector-curvature="0"
         sodipodi:nodetypes="ccccccccccccccc" />
      <path
         sodipodi:nodetypes="ccccccccccccccc"
         inkscape:connector-curvature="0"
         id="path899"
         d="m 173.81606,1016.3167 c -1.1612,2.1772 -4.11979,3.1149 -5.96875,4.6562 0.26694,2.269 0.0692,4.6949 0.375,6.9375 1.29847,1.1986 2.60181,2.2362 4.1875,2.8125 1.49939,-1.1781 3.0835,-2.3024 4.53125,-3.5312 -0.14391,-0.2399 -0.32182,-0.428 -0.40625,-0.7188 -1.30053,0.6503 -2.60553,1.4618 -3.96875,2.0625 -0.73537,-0.3217 -1.35289,-0.7501 -1.875,-1.4375 2.02326,-2.1918 4.59669,-3.895 6.5,-6.0625 -0.99491,-1.6582 -2.86718,-2.8189 -3.375,-4.7187 z m -1.625,3.25 c 0.44599,0.9228 1.28904,1.8441 1.65625,3.0937 -0.90387,0.6026 -1.9413,1.3754 -2.90625,1.9688 0,-1.4302 0.18208,-2.9527 -0.1875,-4.2813 0.50255,-0.2069 0.90004,-0.5977 1.4375,-0.7812 z"
         style="fill:#f1dd2f;fill-opacity:1;stroke:none;stroke-width:1px;stroke-linecap:butt;stroke-linejoin:miter;stroke-opacity:1" />
      <path
         inkscape:connector-curvature="0"
         id="path903"
         d="m 153.88412,1022.0696 c 1.51088,-1.4719 3.30173,-2.621 5.03814,-3.7786 0.33374,2.4151 1.09229,4.9814 2.82842,6.7176 2.24697,-3.4974 3.50445,-7.0285 1.74567,-11.0486 4.65411,5.5623 -0.22849,12.4924 -4.61829,16.8822 -0.71459,-1.3619 -2.8762,-8.8185 -3.53553,-9.1482 -0.38362,-0.1918 -1.15338,0.268 -1.45841,0.3756 z"
         style="fill:#f1dd2f;fill-opacity:1;stroke:none;stroke-width:1px;stroke-linecap:butt;stroke-linejoin:miter;stroke-opacity:1" />
      <path
         sodipodi:nodetypes="ccccccccccccccccccc"
         inkscape:connector-curvature="0"
         id="path907"
         d="m 179.40626,1019.0042 c 0.81137,-1.0974 1.60022,-1.7831 2.96875,-3.1875 0.46477,0.8427 0.6366,1.3058 1.625,2.375 1.08881,-1.0284 1.47771,-1.7155 2.3125,-2.0625 1.93507,0.9861 2.29334,1.2154 3.375,1.5937 -0.17004,0.2706 -0.41149,0.5769 -0.625,0.8438 0.11777,2.668 0.0111,5.9241 0.3125,8.0312 0.43975,-0.2595 1.0448,-0.7099 1.3125,-0.8437 -0.38187,1.103 -0.98152,2.5397 -1.71875,3.4687 -1.22889,-0.4439 -1.91987,-1.4269 -3.25,-2.4375 0.48876,-0.2007 0.64449,-0.4219 0.90625,-0.625 0.15433,-2.1716 -0.27787,-4.2484 -0.15625,-6.4375 -0.37164,-0.3516 -0.74681,-0.6693 -1.1875,-0.9687 -0.69763,0.7054 -1.55465,1.265 -2.3125,1.9687 0.45315,3.2565 0.0897,5.3416 0.5625,7.4063 -0.82517,0.5328 -1.67179,1.079 -2.53125,1.5625 -0.43741,-0.4863 -0.75847,-1.1323 -1.125,-1.7188 0.9659,-0.4802 0.51725,-5.6855 0.4375,-8.4375 -0.37038,-0.1317 -0.66756,-0.3562 -0.90625,-0.5312 z"
         style="fill:#f1dd2f;fill-opacity:1;stroke:none;stroke-width:1px;stroke-linecap:butt;stroke-linejoin:miter;stroke-opacity:1" />
    </g>
    <text
       xml:space="preserve"
       style="font-style:normal;font-weight:normal;font-size:15.10203552px;line-height:1.25;font-family:sans-serif;letter-spacing:0px;word-spacing:0px;fill:#f1dd2f;fill-opacity:1;stroke:none;stroke-width:0.37755087"
       x="60.773918"
       y="1510.0509"
       id="text941"
       transform="scale(1.4464882,0.6913295)"><tspan
         sodipodi:role="line"
         id="tspan939"
         x="60.773918"
         y="1510.0509"
         style="font-style:normal;font-variant:normal;font-weight:normal;font-stretch:normal;font-family:sans-serif;-inkscape-font-specification:sans-serif;fill:#f1dd2f;fill-opacity:1;stroke-width:0.37755087">B</tspan></text>
    <text
       transform="scale(1.426371,0.70107988)"
       id="text945"
       y="1489.0496"
       x="71.834312"
       style="font-style:normal;font-weight:normal;font-size:14.89200115px;line-height:1.25;font-family:sans-serif;letter-spacing:0px;word-spacing:0px;fill:#f1dd2f;fill-opacity:1;stroke:none;stroke-width:0.37230003"
       xml:space="preserve"><tspan
         style="font-style:normal;font-variant:normal;font-weight:normal;font-stretch:normal;font-family:sans-serif;-inkscape-font-specification:sans-serif;fill:#f1dd2f;fill-opacity:1;stroke-width:0.37230003"
         y="1489.0496"
         x="71.834312"
         id="tspan943"
         sodipodi:role="line">R</tspan></text>
    <text
       xml:space="preserve"
       style="font-style:normal;font-weight:normal;font-size:15.18341637px;line-height:1.25;font-family:sans-serif;letter-spacing:0px;word-spacing:0px;fill:#f1dd2f;fill-opacity:1;stroke:none;stroke-width:0.37958542"
       x="79.642967"
       y="1518.1881"
       id="text949"
       transform="scale(1.454283,0.68762407)"><tspan
         sodipodi:role="line"
         id="tspan947"
         x="79.642967"
         y="1518.1881"
         style="font-style:normal;font-variant:normal;font-weight:normal;font-stretch:normal;font-family:sans-serif;-inkscape-font-specification:sans-serif;fill:#f1dd2f;fill-opacity:1;stroke-width:0.37958542">A</tspan></text>
    <text
       transform="scale(1.2856213,0.77783406)"
       id="text953"
       y="1342.1149"
       x="101.04427"
       style="font-style:normal;font-weight:normal;font-size:13.42250633px;line-height:1.25;font-family:sans-serif;letter-spacing:0px;word-spacing:0px;fill:#f1dd2f;fill-opacity:1;stroke:none;stroke-width:0.33556265"
       xml:space="preserve"><tspan
         style="font-style:normal;font-variant:normal;font-weight:normal;font-stretch:normal;font-family:sans-serif;-inkscape-font-specification:sans-serif;fill:#f1dd2f;fill-opacity:1;stroke-width:0.33556265"
         y="1342.1149"
         x="101.04427"
         id="tspan951"
         sodipodi:role="line">N</tspan></text>
    <text
       xml:space="preserve"
       style="font-style:normal;font-weight:normal;font-size:14.89200115px;line-height:1.25;font-family:sans-serif;letter-spacing:0px;word-spacing:0px;fill:#f1dd2f;fill-opacity:1;stroke:none;stroke-width:0.37230003"
       x="99.242157"
       y="1489.0496"
       id="text957"
       transform="scale(1.426371,0.70107988)"><tspan
         sodipodi:role="line"
         id="tspan955"
         x="99.242157"
         y="1489.0496"
         style="font-style:normal;font-variant:normal;font-weight:normal;font-stretch:normal;font-family:sans-serif;-inkscape-font-specification:sans-serif;fill:#f1dd2f;fill-opacity:1;stroke-width:0.37230003">D</tspan></text>
  </g>
</svg>
