<svg width="5589.6" height="798.51" version="1.1" viewBox="0 0 5589.5753 798.51086" xmlns="http://www.w3.org/2000/svg" xmlns:xlink="http://www.w3.org/1999/xlink">
 <g transform="translate(143.26 -586.81)">
  <rect x="1453.8" y="586.81" width="798.51" height="798.51" style="fill:#a02324;paint-order:stroke fill markers"/>
  <rect x="-143.26" y="586.81" width="798.51" height="798.51" style="fill:#ff0814;paint-order:stroke fill markers"/>
  <g transform="translate(2)">
   <path transform="translate(0 922.07)" d="m204.93 6-0.0723 0.00195c-13.893 0.25549-24.319 6.0593-30.234 14.016-5.9157 7.9564-7.6191 17.23-7.6191 24.982l-13.645-36h-152.05l24.062 110h158.1c5.9955 3.2771 13.316 5 21.535 5 9.5 0 19.481-2.588 27.498-9.002 8.0174-6.414 13.502-16.937 13.502-29.998 0-11.067-2.8238-19.15-6.7051-25.725l-4.2949-7.2754h9v-8c0-10.225-3.4038-19.928-10.277-26.965-6.8735-7.0372-16.989-11.035-28.723-11.035z" style="color-rendering:auto;color:#000000;dominant-baseline:auto;font-feature-settings:normal;font-variant-alternates:normal;font-variant-caps:normal;font-variant-ligatures:normal;font-variant-numeric:normal;font-variant-position:normal;image-rendering:auto;isolation:auto;mix-blend-mode:normal;shape-padding:0;shape-rendering:auto;solid-color:#000000;text-decoration-color:#000000;text-decoration-line:none;text-decoration-style:solid;text-indent:0;text-orientation:mixed;text-transform:none;white-space:normal"/>
   <path transform="translate(0 922.07)" d="m20.719 65 10.281 47h21l7.5527-47h-15.246l-2.3066 13-2.5156-13zm41.729 0 7.5527 47h21l10.281-47h-18.766l-2.5156 13-2.3066-13zm50.281 0-12.729 47h20l4-14h26l4 14h20l-12.729-47h-19.172l3.9004 13h-18l3.9004-13zm70.486 0c2.9076 2.4943 6.7503 4.7973 11.785 7 6.2895 2.7517 21 6 21 14 0 5.779-3 8-9 8s-13-4.6681-13-13h-21c0 21 9 35 32 35 16 0 33-9 33-31 0-9.2174-1.7026-15.457-4.5137-20z" style="fill:#ff0814"/>
   <path transform="translate(0 922.07)" d="m205 14c-23.894 0.43939-30 18-30 31 0 8.2239 1.8825 14.568 8.2148 20h50.271c-3.2884-5.3142-8.095-8.3043-13.486-11-6-3-23-6-23-12s2.9999-7 8-7c7 0 11 4 11 9h20c0-17-11-30-31-30zm-195 2 10.719 49h18.766l-9.4844-49zm43 0-8.6934 49h15.246l1.4473-9 1.4473 9h15.246l-8.6934-49zm39 0-9.4844 49h18.766l10.719-49zm34 0-13.271 49h19.172l5.0996-17 5.0996 17h19.172l-13.271-49z" style="fill:#f7eb0c"/>
  </g>
  <path d="m247 981.07v24h28v-24z"/>
  <g transform="translate(-2)">
   <path d="m468.93 928.07-0.0723 2e-3c-13.893 0.25549-24.319 6.0593-30.234 14.016-5.9157 7.9563-7.6191 17.23-7.6191 24.982l-13.645-36h-152.05l24.062 110h158.1c5.9955 3.2771 13.316 5 21.535 5 9.5 0 19.481-2.5881 27.498-9.002 8.0174-6.414 13.502-16.937 13.502-29.998 0-11.067-2.8238-19.15-6.7051-25.725l-4.2949-7.2754h9v-8c0-10.225-3.4038-19.928-10.277-26.965-6.8735-7.0372-16.989-11.035-28.723-11.035z" style="color-rendering:auto;color:#000000;dominant-baseline:auto;font-feature-settings:normal;font-variant-alternates:normal;font-variant-caps:normal;font-variant-ligatures:normal;font-variant-numeric:normal;font-variant-position:normal;image-rendering:auto;isolation:auto;mix-blend-mode:normal;shape-padding:0;shape-rendering:auto;solid-color:#000000;text-decoration-color:#000000;text-decoration-line:none;text-decoration-style:solid;text-indent:0;text-orientation:mixed;text-transform:none;white-space:normal"/>
   <g transform="translate(264)">
    <path transform="translate(0 922.07)" d="m20.719 65 10.281 47h21l7.5527-47h-15.246l-2.3066 13-2.5156-13zm41.729 0 7.5527 47h21l10.281-47h-18.766l-2.5156 13-2.3066-13zm50.281 0-12.729 47h20l4-14h26l4 14h20l-12.729-47h-19.172l3.9004 13h-18l3.9004-13zm70.486 0c2.9076 2.4943 6.7503 4.7973 11.785 7 6.2895 2.7517 21 6 21 14 0 5.779-3 8-9 8s-13-4.6681-13-13h-21c0 21 9 35 32 35 16 0 33-9 33-31 0-9.2174-1.7026-15.457-4.5137-20z" style="fill:#ff0814"/>
    <path transform="translate(0 922.07)" d="m205 14c-23.894 0.43939-30 18-30 31 0 8.2239 1.8825 14.568 8.2148 20h50.271c-3.2884-5.3142-8.095-8.3043-13.486-11-6-3-23-6-23-12s2.9999-7 8-7c7 0 11 4 11 9h20c0-17-11-30-31-30zm-195 2 10.719 49h18.766l-9.4844-49zm43 0-8.6934 49h15.246l1.4473-9 1.4473 9h15.246l-8.6934-49zm39 0-9.4844 49h18.766l10.719-49zm34 0-13.271 49h19.172l5.0996-17 5.0996 17h19.172l-13.271-49z" style="fill:#f7eb0c"/>
   </g>
  </g>
  <path d="m1657.2 850.53v16.428h2.2013v-12.266l10.13 12.266h1.6208v-16.428h-2.2013v12.262l-10.129-12.262zm26.214 0-6.6769 16.428h2.3732l2.4808-6.0967h5.6021l2.8075 6.0967h2.425l-7.5628-16.428zm10.215 0v2.2013h5.8774v14.227h2.2013v-14.227h5.8729v-2.2013zm19.979 0v16.428h2.2013v-16.428zm17.55 0c-4.16 0-8.1518 3.5108-8.1518 8.2117s3.9918 8.2163 8.1518 8.2163c4.1598 0 8.1517-3.5155 8.1517-8.2163s-3.9919-8.2117-8.1517-8.2117zm14.175 0v16.428h2.2013v-12.271l10.134 12.271h1.6211v-16.428h-2.2013v12.27l-10.134-12.27zm26.213 0-6.75 16.428h2.3818l2.5024-6.0967h5.6054l2.7776 6.0967h2.4205l-7.4896-16.428zm14.919 0v16.428h11.6v-2.2013h-9.3984v-14.227zm-55.308 2.2013c2.8908 0 5.9504 2.5826 5.9504 6.0104 0 3.4281-3.0596 6.015-5.9504 6.015-2.8909 0-5.9505-2.587-5.9505-6.015 0-3.4279 3.0596-6.0104 5.9505-6.0104zm41.184 1.6637 1.9435 4.265h-3.6975zm-88.125 0 1.9649 4.2608h-3.6975z" style="color-rendering:auto;color:#000000;dominant-baseline:auto;font-feature-settings:normal;font-variant-alternates:normal;font-variant-caps:normal;font-variant-ligatures:normal;font-variant-numeric:normal;font-variant-position:normal;image-rendering:auto;isolation:auto;mix-blend-mode:normal;shape-padding:0;shape-rendering:auto;solid-color:#000000;text-decoration-color:#000000;text-decoration-line:none;text-decoration-style:solid;text-indent:0;text-orientation:mixed;text-transform:none;white-space:normal"/>
  <path d="m1656 870.22c-0.9012 2.2e-4 -1.6336 0.63442-1.6338 1.4146v11.793c3.7272 3.1109 6.0241 6.6332 6.5222 12.382v64.822c0 3.3196-6.0148 7.6909-6.0148 11.105v17.318c0 0.48825 0.073 0.94964 0.1937 1.3888 0.044 0.16289 0.1233 0.30157 0.1805 0.45567 0.097 0.26085 0.1893 0.52434 0.3181 0.76098 0.092 0.1673 0.2003 0.30664 0.3053 0.46007 0.1343 0.19812 0.2617 0.39646 0.4128 0.5719 0.1166 0.13648 0.2373 0.24897 0.3612 0.3696 0.1057 0.10346 0.2047 0.22673 0.3139 0.31831l0.8211 0.6879 220.25 71.305c1.8988 11.145 4.9648 19.598 8.1604 25.801 0.6516 1.2651 1.1982 1.6681 1.8487 2.7516h-24.047c-4.4025 0-12.154 1.9349 11.557 18.075 1.0267 0.7802 2.1003 1.5282 3.2762 2.2141 4.2871 2.5009 9.6014 3.9254 15.985 3.9254h88.052c6.3838 0 11.698-1.4245 15.985-3.9254 3.3794-1.9713 6.0252-4.3881 8.6117-6.9391l48.919 15.835v-107.28c-2e-4 -1.8594-0.9853-3.4023-2.0853-4.3253l-165.51-138.38c-0.097-0.0814-0.1981-0.16069-0.2967-0.23223-1.2127-0.88228-2.5582-1.2552-3.9597-1.2554h-21.36c-1.4089 2.2e-4 -2.7644 0.3762-3.9813 1.2684-1.2167 0.89219-1.7269 2.6702-2.3602 4.6047-3.8307 11.699-13.692 12.328-21.175 16.802-3.8963-5.8832-13.18-24.09-41.416-24.09-7.1287 0-13.413 2.014-18.474 5.2325-1.2891 0.81976-2.4481 1.7458-3.5557 2.7129v-2.1282c-3e-4 -1.336-0.5266-2.4826-1.2211-3.3792l-0.022-0.077-0.051-0.0264c-0.3386-0.41957-0.7047-0.79621-1.0877-1.0749-1.2127-0.88228-2.5623-1.2596-3.9639-1.2598h-36.674c-1.4016 2.2e-4 -2.7514 0.37753-3.9641 1.2598s-2.3816 2.5322-2.3818 4.5573v1.0362l-6.5092-5.4603c-0.055-0.0462-0.1167-0.0726-0.1717-0.11666-0.2114-0.1651-0.4297-0.31039-0.6536-0.4385-0.084-0.0484-0.1651-0.0991-0.2494-0.14088-0.1101-0.0572-0.2265-0.0903-0.3397-0.13649-0.3478-0.14968-0.7002-0.26965-1.0619-0.35242-0.1277-0.0286-0.2507-0.0594-0.3784-0.0815-0.453-0.077-0.91-0.12547-1.3628-0.12547h-47.006z" style="color-rendering:auto;color:#000000;dominant-baseline:auto;font-feature-settings:normal;font-variant-alternates:normal;font-variant-caps:normal;font-variant-ligatures:normal;font-variant-numeric:normal;font-variant-position:normal;image-rendering:auto;isolation:auto;mix-blend-mode:normal;shape-padding:0;shape-rendering:auto;solid-color:#000000;text-decoration-color:#000000;text-decoration-line:none;text-decoration-style:solid;text-indent:0;text-orientation:mixed;text-transform:none;white-space:normal"/>
  <path d="m1665.1 874.63a1.942 1.4129 0 0 0 -1.9418 1.4128v8.4763a1.942 1.4129 0 0 0 1.9418 1.4128s1.2745 0 2.7192 0.77794c1.4447 0.78828 3.1063 2.3613 3.1063 6.2856v72.049c0 3.7673-2.3026 5.2622-4.7522 6.1531-2.4496 0.8913-4.9569 0.91068-4.9569 0.91068a1.942 1.4129 0 0 0 -1.9417 1.4128v15.54a1.942 1.4129 0 0 0 1.9417 1.4128h42.72a1.942 1.4129 0 0 0 1.9418 -1.4128v-15.54a1.942 1.4129 0 0 0 -1.9418 -1.4128s-2.5073-0.022-4.9569-0.91068c-2.4496-0.89087-4.7521-2.3858-4.7521-6.1531v-38.875l40.964 63.493a1.942 1.4129 0 0 0 1.7557 0.81118h15.535a1.942 1.4129 0 0 0 1.9417 -1.4128v-96.065c0-3.9242 1.6613-5.4973 3.1061-6.2856 1.4447-0.78828 2.7192-0.77794 2.7192-0.77794a1.942 1.4129 0 0 0 1.9418 -1.4128v-8.4763a1.942 1.4129 0 0 0 -1.9418 -1.4128h-31.069a1.942 1.4129 0 0 0 -1.9418 1.4128v8.4763a1.942 1.4129 0 0 0 1.9418 1.4128s1.2745 0 2.7192 0.77794c1.4447 0.78828 3.106 2.3613 3.106 6.2856v28.492l-27.344-46.004a1.942 1.4129 0 0 0 -1.7826 -0.85256zm129.13 0c-6.3109 0-11.734 1.7586-16.115 4.5446-4.3808 2.7857-7.7818 6.5744-10.411 10.764-5.2573 8.3784-7.4562 18.385-7.4562 25.661 0 10.547 4.4482 26.897 16.581 35.547a1.942 1.4129 0 0 0 1.8356 0.36146c2.0439-0.37577 4.3053-0.59039 6.8267-0.59039 6.3815 0 10.824 2.3789 14.264 4.5168a1.942 1.4129 0 0 0 1.8698 0.26767c9.9516-2.3899 16.516-9.3361 20.662-17.105 4.1459-7.7686 5.9239-16.478 5.9239-22.998 0-7.2755-2.1988-17.282-7.4562-25.661-2.6286-4.1893-6.0298-7.9779-10.411-10.764-4.3808-2.786-9.8037-4.5446-16.115-4.5446zm68.934 1.4128a1.942 1.4129 0 0 0 -1.9417 1.4238c0.059 5.3916-2.5806 9.203-6.6938 12.328-4.1131 3.1252-9.7735 5.4922-15.534 7.5879a1.942 1.4129 0 0 0 -1.0731 1.2638v11.302a1.942 1.4129 0 0 0 1.9417 1.4128h7.7671v55.096c0 3.7673-2.3026 5.2622-4.752 6.1531-2.4496 0.89109-4.9568 0.91068-4.9568 0.91068a1.942 1.4129 0 0 0 -1.9418 1.4126v14.127a1.942 1.4129 0 0 0 1.9418 1.4128h58.254a1.942 1.4129 0 0 0 1.9417 -1.4128v-14.127a1.942 1.4129 0 0 0 -1.9417 -1.4126s-2.5073-0.022-4.9569-0.91068c-2.4496-0.89086-4.7522-2.3858-4.7522-6.1531v-89.001a1.942 1.4129 0 0 0 -1.9417 -1.4128zm-68.934 12.714c1.6812 0 2.7265 0.4134 3.6562 1.1147 0.9293 0.70134 1.6542 1.7448 2.1427 2.8502 0.9769 2.211 0.9974 4.5113 0.9974 4.5113v35.318s-0.022 2.3001-0.9974 4.5113c-0.4885 1.1055-1.2134 2.1518-2.1427 2.8529-0.9297 0.70133-1.975 1.1121-3.6562 1.1121-1.6811 0-2.7228-0.41076-3.6521-1.1121-0.9297-0.70111-1.6545-1.7474-2.1428-2.8529-0.9769-2.2112-1.0014-4.5113-1.0014-4.5113v-35.318s0.024-2.3004 1.0014-4.5113c0.4883-1.1055 1.2131-2.1489 2.1428-2.8502 0.9293-0.70133 1.971-1.1147 3.6521-1.1147zm-8.738 64.985c-5.3608 0-8.8983 0.92675-11.495 2.3811-2.4806 1.3895-4.2104 3.383-5.7837 5.7447a1.942 1.4129 0 0 0 -0.1981 0.61526v9.6243a1.942 1.4129 0 0 0 1.9418 1.4128h3.6255a1.942 1.4129 0 0 0 1.8887 -1.0789c0.251-0.75438 0.5955-1.4496 1.1947-2.1163 1.1972-1.3322 3.8632-2.4558 6.8836-2.4558 4.9435 0 8.0497 2.4553 11.457 4.5802 3.311 2.0648 6.7149 3.8961 11.844 3.8961 5.3611 0 8.9023-0.92674 11.499-2.3811 2.4807-1.3895 4.2102-3.3832 5.7837-5.7447a1.942 1.4129 0 0 0 0.1937 -0.61527v-9.6243a1.942 1.4129 0 0 0 -1.9417 -1.4128h-3.6258a1.942 1.4129 0 0 0 -1.8849 1.0817c-0.251 0.75417-0.5953 1.4467-1.1947 2.1135-1.1973 1.332-3.867 2.4558-6.8872 2.4558-4.9437 0-8.0499-2.4553-11.457-4.5802-3.3112-2.0648-6.7148-3.8961-11.844-3.8961z" style="fill:#fff339"/>
  <g transform="matrix(2.2013 0 0 2.2013 1634 -1281.9)">
   <path d="m90.5 1035.3v4h-1c0-3-1-3-2-3s-2 0-2 1v11c0 1 1 2 2 2v1h-5v-1c1 0 2-1 2-2v-11c0-1-1-1-2-1s-2 0-2 3h-1v-4z" style="fill:#fff339;stroke-linecap:round;stroke-linejoin:round;stroke-width:1px;stroke:#fff339"/>
   <path transform="translate(1.5 966.31)" d="m92 69v1c1 1 1 2 1 2v10s0 1-1 2v1h9v-4h-1c0 2 0 3-2 3l-2-3e-6c-1 0-2 0-2-1v-5c0-1 1-1 1-1h2c1 0 2 1 2 2v-5c0 1-1 2-2 2h-2s-1 0-1-1v-4c0-1 1-1 2-1h2c2 0 2 1 2 3h1v-4z" style="fill:#fff339;stroke-linejoin:round;stroke-width:1px;stroke:#fff339"/>
   <path d="m111.5 1035.3h-1l-4 13c-0.3077 1-1 2-2 3h4v-1c-1 0-1.3687-0.8483-1-2z" style="fill:#fff339;stroke-linecap:round;stroke-linejoin:round;stroke-width:1px;stroke:#fff339"/>
   <path d="m110.5 1035.3h1l4 13c0.3077 1 1 2 2 3h-4v-1c1 0 1.3687-0.8483 1-2z" style="fill:#fff339;stroke-linecap:round;stroke-linejoin:round;stroke-width:1px;stroke:#fff339"/>
   <path d="m107.5 1048.3c0.5967-1.939 1-2 3-2h1c2 0 2.4033 0.061 3 2l-1.5385-5c0.60608 1.9698-0.46154 2-1.4615 2h-1c-1 0-2.0676-0.03-1.4615-2z" style="fill:#fff339;stroke-width:1px;stroke:#fff339"/>
  </g>
  <path d="m1982.9 1111.5c11.006 0 15.409-4.4026 22.013-11.006h-28.617s18.711-13.208 18.711-59.435h-112.27c0 46.227 18.711 59.435 18.711 59.435h-28.617c6.6039 6.6039 11.006 11.006 22.013 11.006z" style="fill:#fff339;stroke-linejoin:round;stroke-width:2.2013px;stroke:#fff339"/>
  <path d="m2014 1041.2c-3.95 0.6842-13.165 6.4637-20.048 15.353-2.913 3.7622-10.646 8.6374-12.52 16.028-1.0986 4.333 9.724 11.7 15.203 7.4293 2.3691-1.8464 3.3183-4.4365 6.0536-6.26 4.4638-2.9757 10.879-1.9717 14.79-7.2918 3.0118-4.0964 6.7557-21.257-1.3759-24.833-0.6403-0.2815-1.3551-0.5551-2.1024-0.4257zm-7.7629 10.834c5.28-5.3276 10.771 0.022 7.604 6.8667-2.143 4.6333-5.3963 7.7532-11.222 9.2094-1.1728 0.2934-7.8131 4.0079-7.8421 2.1326-0.1959-12.729 4.4528-11.138 11.46-18.209z" style="fill:#fff339"/>
  <rect x="655.26" y="586.81" width="798.51" height="798.51" style="fill:#374548;paint-order:stroke fill markers"/>
  <path d="m953.59 873.83-6.017 9.6412c-10.995 17.617-13.052 32.177-11.042 44.592-3.2044-4.0447-6.5733-7.9817-10.225-11.701l-10.389-10.583 2.1763 14.672c0.78 5.2584 1.087 9.2196 1.41 13.221-2.9383-5.6565-7.5814-10.93-14.566-15.734l-14.594-10.04 7.49 16.054c2.691 5.7673 2.4199 9.624 1.0488 13.853-1.3711 4.2285-4.2449 8.6678-6.8525 13.934-0.55088 1.1124-0.89851 2.4762-1.3912 3.6868l-0.73498-10.14-7.8605 14.462c-12.344 22.715-15.71 53.999-4.7233 80.861 10.987 26.862 37.028 48.748 81.156 51.174l10.32 0.5652-6.1931-8.272c-0.22398-0.2994-0.42626-0.6253-0.64687-0.9327l0.59976-1.2561c1.0714-2.2434 3.7069-3.7825 8.294-5.3358 4.5829-1.5516 10.519-2.855 16.167-5.8317 8.1097-4.2265 13.809-10.578 17.229-18.265 3.4207-7.6902 4.7182-16.599 4.8991-26.565l0.1415-7.7884c2.5961-5.6244 4.6065-12.279 5.6873-20.338 1.3354-9.9553 0.4207-23.51-3.3477-32.46l-3.6491-8.6676-4.8804 7.9705c0.042-0.40375 0.1806-0.71295 0.2105-1.1275 0.8986-11.894-4.371-24.486-10.876-33.33l-8.6583-11.774-0.0498 14.616c0 2.282-0.56358 5.7993-0.90445 7.0818-0.48753 1.8353-3.9688 5.7004-7.2262 9.2425 2.3588-9.6843 3.2197-20.155-0.66584-31.245-2.4624-7.028-6.6404-12.297-10.276-17.323-3.6352-5.0257-6.7732-9.7575-8.3065-15.891z" style="color-rendering:auto;color:#000000;dominant-baseline:auto;fill:#fff;font-feature-settings:normal;font-variant-alternates:normal;font-variant-caps:normal;font-variant-ligatures:normal;font-variant-numeric:normal;font-variant-position:normal;image-rendering:auto;isolation:auto;mix-blend-mode:normal;paint-order:stroke fill markers;shape-padding:0;shape-rendering:auto;solid-color:#000000;text-decoration-color:#000000;text-decoration-line:none;text-decoration-style:solid;text-indent:0;text-orientation:mixed;text-transform:none;white-space:normal"/>
  <path d="m848.7 933.01v131.85h44.403c-6.9483-7.2056-12.183-15.45-15.781-24.248-10.987-26.862-7.6211-58.146 4.7233-80.861l7.8605-14.465 0.73498 10.144c0.49267-1.2104 0.8403-2.5744 1.3912-3.6868 2.6076-5.2664 5.4814-9.7088 6.8525-13.937 0.52209-1.6102 0.87953-3.1676 0.97987-4.7955zm128.86 0c0.10612 5.6443-0.69896 11.094-1.9691 16.308 3.2575-3.5421 6.7386-7.4072 7.2263-9.2425 0.34008-1.2798 0.89433-4.7837 0.90446-7.066zm16.817 0c5.5628 8.5837 9.7338 19.796 8.9284 30.469-0.031 0.41533-0.1691 0.72582-0.2105 1.1305l4.8804-7.9705 3.6492 8.6676c3.7683 8.9497 4.6829 22.505 3.3477 32.46-1.0749 8.015-3.1088 14.569-5.6842 20.174l-0.1447 7.9516c-0.1811 9.9661-1.4783 18.875-4.8992 26.565-2.0883 4.6946-5.0373 8.8831-8.8561 12.402h264.94v-131.85z" style="fill:#d40000"/>
  <path d="m951.31 902.65c-8.1713 20.063 0.44716 39.184 9.5941 56.563 7.9275-24.795 5.0458-37.488-9.5941-56.563zm-42.635 35.104c-0.72662 15.556-16.431 20.336-6.8935 42.779 2.0417-15.046 20.41-22 6.8935-42.779zm21.826 0.67516c4.4057 47.691-45.06 43.548 14.672 130.44-7.6614-39.281 32.234-62.077-14.672-130.44zm60.674 8.4918c-12.491 19.594-19.483 15.167-21.176 40.079 19.95-7.4124 26.964-18.408 21.176-40.079zm12.587 35.023c-15.838 23.779-50.153 21.657-53.865 78.386 9.3568-30.526 59.144-22.864 53.865-78.386zm-118.08 1.6079c-10.685 46.831 8.4228 82.257 59.493 95.37-17.379-18.56-28.656-45.377-37.083-66.126-0.16111-0.3969-18.557-21.414-22.41-29.244zm112.17 57.879c-8.5768 13.255-31.45 10.69-35.886 27.715 6.4839-4.349 31.853-5.1023 35.886-27.715z" style="color-rendering:auto;color:#000000;dominant-baseline:auto;fill:#d40000;font-feature-settings:normal;font-variant-alternates:normal;font-variant-caps:normal;font-variant-ligatures:normal;font-variant-numeric:normal;font-variant-position:normal;image-rendering:auto;isolation:auto;mix-blend-mode:normal;paint-order:stroke fill markers;shape-padding:0;shape-rendering:auto;solid-color:#000000;text-decoration-color:#000000;text-decoration-line:none;text-decoration-style:solid;text-indent:0;text-orientation:mixed;text-transform:none;white-space:normal"/>
  <path d="m951.66 886.02c-28.373 45.463 5.9382 62.924 8.8844 94.44 3.8185-17.781 17.723-38.253 9.8233-60.799-4.2779-12.21-15.17-19.492-18.708-33.641zm-0.35486 16.629c14.64 19.075 17.522 31.768 9.5941 56.563-9.147-17.379-17.765-36.5-9.5941-56.563zm-28.446 17.087c8.511 57.378-11.497 38.323-14.773 82.104-7.8428-7.5672-20.531-22.191-21.807-39.796-23.235 42.756-12.916 120.22 72.457 124.92-3.2231-4.3054-7.3524-10.133-6.6327-15.778 4.644-36.425 50.777-19.569 58.086-74.065 1.1966-8.9222 0.085-22.585-3.0149-29.948-14.914 24.359-32.502 27.131-46.529 43.012 1.1577-32.218-13.232-65.437-37.786-90.446zm-20.658 2.17c12.634 27.074-29.233 34.466 2.9866 71.132 2.2048-23.865 13.664-26.287 13.545-42.497-0.082-11.214-3.8897-19.94-16.532-28.635zm86.341 11.095c-0.0161 2.8915-0.57049 6.4315-1.0678 8.3033-1.2632 4.7548-6.7914 9.6443-10.09 13.218-13.156 14.254-13.457 24.343-12.791 43.348 14.756-11.801 32.28-12.311 33.898-34.749 0.76537-10.082-4.064-22.119-9.949-30.12zm-79.872 4.7516c13.516 20.78-4.8517 27.734-6.8935 42.779-9.5372-22.443 6.1668-27.224 6.8935-42.779zm21.826 0.67516c46.907 68.365 7.0108 91.161 14.672 130.44-59.732-86.894-10.267-82.751-14.672-130.44zm60.674 8.4918c5.7884 21.67-1.2262 32.666-21.176 40.079 1.6933-24.912 8.685-20.485 21.176-40.079zm12.587 35.023c5.2786 55.522-44.509 47.86-53.865 78.386 3.7122-56.729 38.027-54.607 53.865-78.386zm-118.08 1.6079c3.8537 7.8304 22.249 28.847 22.41 29.244 8.427 20.749 19.704 47.566 37.083 66.126-51.07-13.113-70.178-48.539-59.493-95.37zm118.64 42.246c-4.7887 5.5257-9.1915 12.166-15.561 15.988-19.132 10.005-37.091 13.493-30.557 38.018 3.9172-8.2031 16.823-8.2124 26.578-13.36 14.449-7.525 19.192-21.467 19.54-40.647zm-6.4662 15.633c-4.0335 22.612-29.402 23.366-35.886 27.715 4.4358-17.024 27.309-14.459 35.886-27.715z" style="paint-order:stroke fill markers"/>
  <path d="m1066.9 953.68v91.281h16.356v-91.281zm-38.235 0.0322v90.948h17.926v-45.028h15.332v-12.936h-15.332v-20.752h15.881v-12.232zm189.92 15.816c-13.137 0-20.222 6.5269-20.221 19.449v37.406c0 12.922 7.0844 19.587 20.221 19.587 12.99 0 19.926-6.665 19.926-19.587v-11.566h-16.679v15.458c0 1.7682-1.7901 2.7226-3.5614 2.7226s-3.3068-0.9544-3.3068-2.7226v-20.649h23.547v-20.649c0-12.922-6.9369-19.449-19.926-19.449zm-59.433 0.50247c-6.2366 0-10.296 3.5524-11.783 8.6677v-7.3141h-16.158v73.277h16.086v-58.84c0-1.7607 1.1945-2.5751 2.8955-2.5751 1.7009 0 3.2535 0.81441 3.2535 2.5751v58.84h16.688v-58.84c0-1.7607 1.3957-2.5751 3.0966-2.5751 1.7008 0 3.0525 0.81441 3.0525 2.5751v58.84h17.295v-59.192c0-11.242-2.852-15.439-10.985-15.439-6.7573 0-10.984 3.3842-12.543 7.9894-1.8427-5.6888-4.5475-7.9894-10.898-7.9894zm-50.75 0.20099c-12.704 0-19.989 5.8131-19.989 15.47v10.379h15.976v-11.632c0-1.7753 1.6412-2.7291 3.3163-2.7291 1.5357 0 2.5124 0.95382 2.5124 2.7291v6.7174c0 11.34-21.895 6.1427-21.895 27.994v11.862c0 10.788 4.7244 14.748 11.704 14.748 5.5841 0 9.054-3.541 10.59-7.9108 0.2792 2.458 1.1392 5.7837 1.8372 7.0126h16.192c-1.1169-5.1891-1.3976-8.7414-1.3976-16.798v-42.371c0-7.1445-6.2817-15.47-18.846-15.47zm109.97 11.164c1.7713 0 3.2599 0.81635 3.2599 2.5847v14.365h-6.2653v-14.365c0-1.7684 1.2341-2.5847 3.0054-2.5847zm-108.15 26.688v21.858c0 1.7754-0.8356 2.7323-2.6505 2.7323-1.6753 0-2.5124-0.8204-2.5124-2.459v-13.799c0-4.7796 2.2313-6.693 5.1629-8.3316z" style="fill:#fff"/>
  <rect x="2252.3" y="586.81" width="798.51" height="798.51" style="fill:#fee41b;paint-order:stroke fill markers"/>
  <ellipse cx="2651.5" cy="984.68" rx="174.8" ry="126.24" style="fill:#fff;paint-order:stroke fill markers"/>
  <ellipse cx="2651.5" cy="984.68" rx="172.03" ry="123.47" style="paint-order:stroke fill markers"/>
  <ellipse cx="2651.5" cy="984.68" rx="158.15" ry="112.37" style="fill:#de0007;paint-order:stroke fill markers"/>
  <path d="m2654.1 879.76-11.098 11.098 5.5492 8.3238v16.648c0 8.3238-11.098 11.098-13.873 2.7746l-2.7746-8.3238 2.7746-8.3238-8.3238-8.3238-5.5492 11.098 5.5492 5.5492v11.098c0 2.7746-2.3454 11.098-5.5492 5.5492l-5.5492-8.3238v-8.3238l-11.098-5.5492-2.7746 11.098 8.3238 5.5492 5.5493 8.3238 13.873 33.295h49.943l13.873-33.295 5.5492-8.3238 8.3239-5.5492-2.7746-11.098-11.098 5.5492v8.3238l-5.5492 8.3238c-3.2038 5.5492-5.5492-2.7746-5.5492-5.5492v-11.098l5.5492-5.5492-5.5492-11.098-8.3238 8.3238 2.7746 8.3238-2.7746 8.3238c-2.7746 8.3238-13.873 5.5492-13.873-2.7746v-16.648l5.5492-8.3238zm-49.943 88.787v13.873h5.5492v77.689h-5.5492v13.873h27.746v-13.873h-5.5492v-77.689h5.5492v-13.873zm36.07 0v13.873h5.5492v77.689h-5.5492v13.873h22.197v-13.873h-5.5493v-55.492l24.972 69.365h13.873l2.7746-91.562h5.5493v-13.873h-22.197v13.873h5.5492l-0.9536 44.133-24.018-58.006zm-47.168 2.7746s-9.2622 0.86234-22.197 5.3161v11.331l5.5492-2.7746-19.422 30.521v-19.422l5.5492-5.5492v-10.893c-8.7189 3.7069-18.378 8.9473-27.746 16.442v8.3238l5.5492-2.7746v41.619l-5.5492-2.7746v5.5492c7.7408 6.1924 16.35 12.383 27.746 17.13v-8.8061l-5.5492-5.5492v-19.422l5.5492-5.5492 14.702 44.106c5.59 1.3726 11.725 2.4372 18.593 3.0618v-11.098l-5.5492-2.7746-16.648-52.718 13.873-19.422 5.5492-2.7746zm141.21 7.8144c-33.88 0.59931-39.096 87.623-8.3726 93.632 15.584 3.0482 19.335-4.9982 28.093-12.659l3.0348 4.4219 4.5953 0.086 3.4683-43.353h-27.746v5.5492h11.098v27.746c-27.515 13.033-29.929-51.028-20.549-60.781 2.7515-2.753 9.1223-6.398 12.659-2.8612 2.594 2.594 6.5264 9.394 0.4334 9.6243l4.6821 9.6245 19.422-8.3238-5.029-9.7111c-1.0294 0.57185-2.0296 1.3596-3.2948 1.3873-4.1639 0.0416-5.9624-9.6931-13.266-12.573-3.2785-1.2924-6.3577-1.8606-9.2289-1.8099z" style="stroke-linejoin:round;stroke-width:1.3873;stroke:#000"/>
  <path d="m2651.5 877.86-11.098 11.098 5.5492 8.3238v16.648c0 8.3238-11.098 11.098-13.873 2.7746l-2.7746-8.3238 2.7746-8.3238-8.3238-8.3238-5.5492 11.098 5.5492 5.5492v11.098c0 2.7746-2.3454 11.098-5.5492 5.5492l-5.5492-8.3238v-8.3238l-11.098-5.5492-2.7746 11.098 8.3238 5.5492 5.5493 8.3238 13.873 33.295h49.943l13.873-33.295 5.5492-8.3238 8.3239-5.5492-2.7746-11.098-11.098 5.5492v8.3238l-5.5492 8.3238c-3.2038 5.5492-5.5492-2.7746-5.5492-5.5492v-11.098l5.5492-5.5492-5.5492-11.098-8.3238 8.3238 2.7746 8.3238-2.7746 8.3238c-2.7746 8.3238-13.873 5.5492-13.873-2.7746v-16.648l5.5492-8.3238zm-49.943 88.787v13.873h5.5492v77.689h-5.5492v13.873h27.746v-13.873h-5.5492v-77.689h5.5492v-13.873zm36.07 0v13.873h5.5492v77.689h-5.5492v13.873h22.197v-13.873h-5.5492v-55.492l24.971 69.365h13.873l2.7746-91.562h5.5493v-13.873h-22.197v13.873h5.5492l-0.9536 44.133-24.018-58.006zm-47.168 2.7746s-9.2622 0.86235-22.197 5.3162v11.331l5.5492-2.7746-19.422 30.521v-19.422l5.5492-5.5492v-10.893c-8.7189 3.7069-18.378 8.9473-27.746 16.442v8.3238l5.5492-2.7746v41.619l-5.5492-2.7746v5.5492c7.7409 6.1926 16.35 12.383 27.746 17.13v-8.806l-5.5492-5.5492v-19.422l5.5492-5.5492 14.702 44.106c5.59 1.3726 11.725 2.4372 18.593 3.0618v-11.098l-5.5492-2.7746-16.648-52.718 13.873-19.422 5.5492-2.7746zm141.21 7.8144c-33.88 0.59931-39.096 87.623-8.3726 93.632 15.584 3.0482 19.335-4.9981 28.093-12.659l3.0348 4.4219 4.5953 0.086 3.4683-43.353h-27.746v5.5492h11.098v27.746c-27.515 13.033-29.929-51.027-20.549-60.781 2.7515-2.753 9.1223-6.3982 12.659-2.8614 2.594 2.594 6.5264 9.3943 0.4334 9.6246l4.6822 9.6243 19.422-8.3238-5.029-9.7111c-1.0294 0.57185-2.0296 1.3596-3.2948 1.3873-4.1639 0.0416-5.9624-9.6928-13.266-12.572-3.2784-1.2927-6.3577-1.8609-9.2289-1.8102z" style="fill:#fee41b;stroke-linejoin:round;stroke-width:1.3873;stroke:#000"/>
  <rect x="3050.8" y="586.81" width="798.51" height="798.51" style="fill:#e00017;paint-order:stroke fill markers"/>
  <g transform="matrix(1.86 0 0 1.86 3212 -848.04)">
   <path d="m58 1002.1c-1.5699-15.705 9.6707-50.398 29-66l-2-4h-45l-11 20 3 4h10l5-9h11c-10.742 15.4-19.318 37.875-23 50l4 5z" style="stroke-linejoin:round;stroke-width:2;stroke:#000"/>
   <path d="m52 996.07c1.7848-21.351 12.551-44.483 28-62h-39l-9 17h8l5-9h19c-12.499 15.137-23.758 43.071-27 54z" style="fill:#fff;stroke-linejoin:round;stroke-width:2;stroke:#fff"/>
   <g transform="translate(66)">
    <path d="m58 1002.1c-1.5699-15.705 9.6707-50.398 29-66l-2-4h-45l-11 20 3 4h10l5-9h11c-10.742 15.4-19.318 37.875-23 50l4 5z" style="stroke-linejoin:round;stroke-width:2;stroke:#000"/>
    <path d="m52 996.07c1.7848-21.351 12.551-44.483 28-62h-39l-9 17h8l5-9h19c-12.499 15.137-23.758 43.071-27 54z" style="fill:#fff;stroke-linejoin:round;stroke-width:2;stroke:#fff"/>
   </g>
   <g transform="translate(134)">
    <path d="m58 1002.1c-1.5699-15.705 9.6707-50.398 29-66l-2-4h-45l-11 20 3 4h10l5-9h11c-10.742 15.4-19.318 37.875-23 50l4 5z" style="stroke-linejoin:round;stroke-width:2;stroke:#000"/>
    <path d="m52 996.07c1.7848-21.351 12.551-44.483 28-62h-39l-9 17h8l5-9h19c-12.499 15.137-23.758 43.071-27 54z" style="fill:#fff;stroke-linejoin:round;stroke-width:2;stroke:#fff"/>
   </g>
  </g>
  <g transform="matrix(1.86 0 0 1.86 3212 -848.04)">
   <path d="m10 928.07c-7.3769 6.6962-8.9581 14.541-2 15 6.0249 0.39776 5.4729-8.3788 1-9 1-2 3-4 3-4z" style="fill:#f1dd2f;stroke-linejoin:round;stroke-width:1px;stroke:#000"/>
   <path d="m23 928.07c-7.3769 6.6962-8.9581 14.541-2 15 6.0249 0.39776 5.4729-8.3788 1-9 1-2 3-4 3-4z" style="fill:#f1dd2f;stroke-linejoin:round;stroke-width:1px;stroke:#000"/>
  </g>
  <g transform="matrix(-1.86 0 0 -1.86 3688.1 2632.3)">
   <path d="m10 928.07c-7.3769 6.6962-8.9581 14.541-2 15 6.0249 0.39776 5.4729-8.3788 1-9 1-2 3-4 3-4z" style="fill:#f1dd2f;stroke-linejoin:round;stroke-width:1px;stroke:#000"/>
   <path d="m23 928.07c-7.3769 6.6962-8.9581 14.541-2 15 6.0249 0.39776 5.4729-8.3788 1-9 1-2 3-4 3-4z" style="fill:#f1dd2f;stroke-linejoin:round;stroke-width:1px;stroke:#000"/>
  </g>
  <g transform="matrix(1.86 0 0 1.86 3212 -848.04)">
   <path d="m44.031 1024.2c-1.3946-1.7538-1.9527-3.6883-0.90625-5.7812 3.1691-6.3382 10.082-2.2026 15.125-4.0938-0.59186 1.4137-2.1043 2.5842-2.4062 4.0938-1.0995 7.4219 3.5477 14.818-6.4688 18.281-1.7817 0.616-4.5144 1.1647-6.4062 0.2188-4.6851-2.3426-1.7731-8.8042 3.4688-8.1875-0.01432 0.9364 0.04408 1.9066-0.0625 2.8125-7.161-1.3942-5.5003 7.3409 0.75 4.9375 8.9946-3.4587 5.2218-9.2405 6.0625-13.688 0.42526-2.2494 2.1406-3.9529 2.2813-6.3438-0.89542 0.6826-1.8746 0.9999-2.9063 1.3438-1.1066 0.3688-2.9318-1.9702-4.8125-1.5-3.154 0.7885-3.5054 4.1925-1.0625 5.9375-0.42149 1.0632-1.6569 1.594-2.6562 1.9687z" style="fill:#f1dd2f"/>
   <path d="m60.259 1018.7c1.2423-1.2909 2.7432-2.1331 3.9112-3.5134 0.01481 2.3163-0.0221 4.638-0.0221 6.9606 1.3174-1.3896 3.3832-2.54 4.773-3.8228 0.16079 0.6572 2.7075 2.6574 1.3037 2.74-0.05037 2.3062-0.03977 4.7257 0.11049 7.6014 0.41378 0.5542 1.0989 0.6638 1.6131 0.9723-0.66964 0.8046-1.589 1.156-2.276 1.9003-0.8763-0.5838-1.8703-1.1654-2.8284-1.5247 0.02417-2.1455 0.15767-4.6899 0.11048-8.1096-1.3329 0.3337-2.273 0.7256-2.8063 1.9445 0.22504 2.0144 0.2036 4.0511 0.44194 5.9883-0.94314 0.5921-2.1043 1.3996-3.2041 1.812 0.216-0.5339 0.27454-0.9354-0.04419-1.37-0.03619-1.3621 0.29423-10.6-0.0221-10.916-0.43227-0.4322-0.61271-0.6365-1.0607-0.6629z" style="fill:#f1dd2f"/>
   <path d="m73.539 1022.5c1.842-2.8538 3.465-3.4213 4.8835-5.2591 0.3491 1.0075 0.20344 2.1045 0.37565 3.1378 3.0587-2.597 2.2788-1.604 3.8891-3.1157 0.40778 0.9471 2.1474 1.3524 2.6296 3.0715-0.2068 1.1176-1.0955 3.5816-2.6005 4.9308-0.13472-1.1104-0.26732-2.6353-0.29419-3.8702-0.36-0.3436-0.90182-0.9127-1.5689-1.2816-1.1333 1.2215-0.79611 0.6553-2.5854 2.3423 0.33163 2.7574 0.34365 4.6585 0.35355 5.922 0.47121 1.5784 1.7354 0.9495 2.3865 0.6408-0.65813 0.6299-1.8085 2.0837-3.1599 2.4307-1.176-1.1466-1.5054-1.3846-2.1655-1.9224 0.0054-3.249 0.0052-6.4641-0.17678-8.0434-0.60403 0.4191-1.5707 0.5486-1.9666 1.0165z" style="fill:#f1dd2f"/>
   <path transform="translate(0 922.07)" d="m94.375 94.25c-1.1612 2.1772-4.1198 3.115-5.9688 4.6562 0.26694 2.269 0.06925 4.6949 0.375 6.9375 1.2985 1.1986 2.6018 2.2362 4.1875 2.8125 1.4994-1.1781 3.0835-2.3024 4.5312-3.5312-0.14391-0.2399-0.32182-0.42795-0.40625-0.71875-1.3005 0.6503-2.6055 1.4618-3.9688 2.0625-0.73537-0.3217-1.3529-0.7501-1.875-1.4375 2.0233-2.1918 4.5967-3.895 6.5-6.0625-0.99491-1.6582-2.8672-2.819-3.375-4.7188zm-1.625 3.25c0.44599 0.92284 1.289 1.8441 1.6562 3.0938-0.90387 0.6026-1.9413 1.3754-2.9062 1.9688 0-1.4302 0.18208-2.9526-0.1875-4.2812 0.50254-0.2069 0.90004-0.59775 1.4375-0.78125z" style="fill:#f1dd2f"/>
   <path d="m106.78 1016.3c-1.1612 2.1772-4.1198 3.1149-5.9688 4.6562 0.26694 2.269 0.0692 4.6949 0.375 6.9375 1.2985 1.1986 2.6018 2.2362 4.1875 2.8125 1.4994-1.1781 3.0835-2.3024 4.5312-3.5312-0.14391-0.2399-0.32182-0.428-0.40625-0.7188-1.3005 0.6503-2.6055 1.4618-3.9688 2.0625-0.73537-0.3217-1.3529-0.7501-1.875-1.4375 2.0233-2.1918 4.5967-3.895 6.5-6.0625-0.99491-1.6582-2.8672-2.8189-3.375-4.7187zm-1.625 3.25c0.44599 0.9228 1.289 1.8441 1.6562 3.0937-0.90387 0.6026-1.9413 1.3754-2.9062 1.9688 0-1.4302 0.18208-2.9527-0.1875-4.2813 0.50255-0.2069 0.90004-0.5977 1.4375-0.7812z" style="fill:#f1dd2f"/>
   <path d="m131.04 1012.9c-2.6477 3.2653-6.4766 5.3341-9.9437 7.6456 5.0374 2.4087 14.552 3.4349 12.595 8.8388-1.6967 4.6855-11.575 3.3191-12.33-0.088-1.0594-4.7791 4.5372-3.7599 6.5407-1.8561-0.96391-1.7199-3.9021-3.6953-6.6733-2.6521-5.1722 1.9471 0.38527 6.8453 2.74 7.8224 3.4999 1.4523 13.605 0.5003 11.225-6.9385-1.1044-3.4523-7.0528-4.3638-9.9879-5.7453 0.85027-1.6927 2.8112-2.884 4.1984-3.6239 1.8424 1.6018 4.259 2.3583 3.9333 5.1265 1.0362-0.8262 2.1742-1.7432 3.4471-2.3422-2.5722-1.5286-4.3806-3.6286-5.7452-6.1872z" style="fill:#f1dd2f"/>
   <path d="m147.34 1016.3c-1.1612 2.1772-4.1198 3.1149-5.9688 4.6562 0.26694 2.269 0.0692 4.6949 0.375 6.9375 1.2985 1.1986 2.6018 2.2362 4.1875 2.8125 1.4994-1.1781 3.0835-2.3024 4.5312-3.5312-0.14391-0.2399-0.32182-0.428-0.40625-0.7188-1.3005 0.6503-2.6055 1.4618-3.9688 2.0625-0.73537-0.3217-1.3529-0.7501-1.875-1.4375 2.0233-2.1918 4.5967-3.895 6.5-6.0625-0.99491-1.6582-2.8672-2.8189-3.375-4.7187zm-1.625 3.25c0.44599 0.9228 1.289 1.8441 1.6562 3.0937-0.90387 0.6026-1.9413 1.3754-2.9062 1.9688 0-1.4302 0.18208-2.9527-0.1875-4.2813 0.50255-0.2069 0.90004-0.5977 1.4375-0.7812z" style="fill:#f1dd2f"/>
   <path d="m173.82 1016.3c-1.1612 2.1772-4.1198 3.1149-5.9688 4.6562 0.26694 2.269 0.0692 4.6949 0.375 6.9375 1.2985 1.1986 2.6018 2.2362 4.1875 2.8125 1.4994-1.1781 3.0835-2.3024 4.5312-3.5312-0.14391-0.2399-0.32182-0.428-0.40625-0.7188-1.3005 0.6503-2.6055 1.4618-3.9688 2.0625-0.73537-0.3217-1.3529-0.7501-1.875-1.4375 2.0233-2.1918 4.5967-3.895 6.5-6.0625-0.99491-1.6582-2.8672-2.8189-3.375-4.7187zm-1.625 3.25c0.44599 0.9228 1.289 1.8441 1.6562 3.0937-0.90387 0.6026-1.9413 1.3754-2.9062 1.9688 0-1.4302 0.18208-2.9527-0.1875-4.2813 0.50255-0.2069 0.90004-0.5977 1.4375-0.7812z" style="fill:#f1dd2f"/>
   <path d="m173.82 1016.3c-1.1612 2.1772-4.1198 3.1149-5.9688 4.6562 0.26694 2.269 0.0692 4.6949 0.375 6.9375 1.2985 1.1986 2.6018 2.2362 4.1875 2.8125 1.4994-1.1781 3.0835-2.3024 4.5312-3.5312-0.14391-0.2399-0.32182-0.428-0.40625-0.7188-1.3005 0.6503-2.6055 1.4618-3.9688 2.0625-0.73537-0.3217-1.3529-0.7501-1.875-1.4375 2.0233-2.1918 4.5967-3.895 6.5-6.0625-0.99491-1.6582-2.8672-2.8189-3.375-4.7187zm-1.625 3.25c0.44599 0.9228 1.289 1.8441 1.6562 3.0937-0.90387 0.6026-1.9413 1.3754-2.9062 1.9688 0-1.4302 0.18208-2.9527-0.1875-4.2813 0.50255-0.2069 0.90004-0.5977 1.4375-0.7812z" style="fill:#f1dd2f"/>
   <path d="m153.88 1022.1c1.5109-1.4719 3.3017-2.621 5.0381-3.7786 0.33374 2.4151 1.0923 4.9814 2.8284 6.7176 2.247-3.4974 3.5044-7.0285 1.7457-11.049 4.6541 5.5623-0.22849 12.492-4.6183 16.882-0.71459-1.3619-2.8762-8.8185-3.5355-9.1482-0.38362-0.1918-1.1534 0.268-1.4584 0.3756z" style="fill:#f1dd2f"/>
   <path d="m179.41 1019c0.81137-1.0974 1.6002-1.7831 2.9688-3.1875 0.46477 0.8427 0.6366 1.3058 1.625 2.375 1.0888-1.0284 1.4777-1.7155 2.3125-2.0625 1.9351 0.9861 2.2933 1.2154 3.375 1.5937-0.17004 0.2706-0.41149 0.5769-0.625 0.8438 0.11777 2.668 0.0111 5.9241 0.3125 8.0312 0.43975-0.2595 1.0448-0.7099 1.3125-0.8437-0.38187 1.103-0.98152 2.5397-1.7188 3.4687-1.2289-0.4439-1.9199-1.4269-3.25-2.4375 0.48876-0.2007 0.64449-0.4219 0.90625-0.625 0.15433-2.1716-0.27787-4.2484-0.15625-6.4375-0.37164-0.3516-0.74681-0.6693-1.1875-0.9687-0.69763 0.7054-1.5546 1.265-2.3125 1.9687 0.45315 3.2565 0.0897 5.3416 0.5625 7.4063-0.82517 0.5328-1.6718 1.079-2.5312 1.5625-0.43741-0.4863-0.75847-1.1323-1.125-1.7188 0.9659-0.4802 0.51725-5.6855 0.4375-8.4375-0.37038-0.1317-0.66756-0.3562-0.90625-0.5312z" style="fill:#f1dd2f"/>
  </g>
  <text transform="scale(1.4465 .69133)" x="2333.5642" y="1582.0497" style="fill:#f1dd2f;font-family:sans-serif;font-size:28.09px;letter-spacing:0px;line-height:1.25;stroke-width:.70225;word-spacing:0px" xml:space="preserve"><tspan x="2333.5642" y="1582.0497" style="fill:#f1dd2f;font-family:sans-serif;stroke-width:.70225">B</tspan></text>
  <text transform="scale(1.4264 .70108)" x="2385.4539" y="1560.0469" style="fill:#f1dd2f;font-family:sans-serif;font-size:27.699px;letter-spacing:0px;line-height:1.25;stroke-width:.69249;word-spacing:0px" xml:space="preserve"><tspan x="2385.4539" y="1560.0469" style="fill:#f1dd2f;font-family:sans-serif;stroke-width:.69249">R</tspan></text>
  <text transform="scale(1.4543 .68762)" x="2356.7588" y="1590.5747" style="fill:#f1dd2f;font-family:sans-serif;font-size:28.242px;letter-spacing:0px;line-height:1.25;stroke-width:.70604;word-spacing:0px" xml:space="preserve"><tspan x="2356.7588" y="1590.5747" style="fill:#f1dd2f;font-family:sans-serif;stroke-width:.70604">A</tspan></text>
  <text transform="scale(1.2856 .77783)" x="2686.3164" y="1406.1064" style="fill:#f1dd2f;font-family:sans-serif;font-size:24.966px;letter-spacing:0px;line-height:1.25;stroke-width:.62415;word-spacing:0px" xml:space="preserve"><tspan x="2686.3164" y="1406.1064" style="fill:#f1dd2f;font-family:sans-serif;stroke-width:.62415">N</tspan></text>
  <text transform="scale(1.4264 .70108)" x="2436.4333" y="1560.0469" style="fill:#f1dd2f;font-family:sans-serif;font-size:27.699px;letter-spacing:0px;line-height:1.25;stroke-width:.69249;word-spacing:0px" xml:space="preserve"><tspan x="2436.4333" y="1560.0469" style="fill:#f1dd2f;font-family:sans-serif;stroke-width:.69249">D</tspan></text>
  <rect x="3849.3" y="586.81" width="798.51" height="798.51" style="fill:#b7c4c8;paint-order:stroke fill markers"/>
  <path d="m4280.2 820.91c-0.897-0.0405-1.7535 0.37604-2.2755 1.1067-11.407 16.001-24.573 41.43-31.622 65.024-7.0488-23.594-20.215-49.022-31.622-65.024-1.8154-2.5393-5.7617-0.39767-4.6221 2.5083 5.071 12.881 12.211 26.504 15.831 40.303-0.6683-1.2356-1.2112-2.158-1.9042-3.4598-2.0644-3.8782-4.1775-7.9044-5.9959-11.247s-3.1815-5.8367-4.3848-7.351c-1.9812-2.4889-5.8645-0.0126-4.4435 2.8337 4.9831 9.9582 10.163 20.882 13.102 31.781-2.5748-3.1382-5.6427-6.039-9.6181-7.8833-2.9132-1.3505-5.2685 2.6747-2.6642 4.5529 1.9027 1.371 4.3998 4.2937 6.8271 7.7753-3.5655-3.7151-8.2895-6.4589-13.645-6.2805-0.5836 0.0212-1.1439 0.23437-1.5937 0.6067-1.2032-1.2524-2.5254-2.4309-3.9249-3.5024-5.2174-3.9948-11.86-6.7639-17.666-4.159-2.5561 1.1489-1.8116 4.9616 0.989 5.0645 1.709 0.0618 3.6504 0.54289 5.1725 1.3622 0.2325 0.12518 0.4323 0.26722 0.6423 0.40426-0.2898 0.17442-0.5926 0.32335-0.8544 0.55043-0.5377 0.46648-0.9348 1.0588-1.262 1.6972-2.1963-1.467-4.9011-3.3806-7.7229-4.7398-2.1778-1.049-4.6041-1.8435-7.1925-1.2348-1.657 0.38972-3.1085 1.4721-4.3 2.9889-4.5537-3.0792-10.054-3.8737-15.287-3.6739-2.9753 0.11574-3.527 4.2936-0.6837 5.1777-0.1933 0.1266-0.4068 0.21681-0.5905 0.35965-1.1301 0.87868-1.9901 2.0562-2.6028 3.4048-4.4887-1.8334-9.4908-1.015-13.944 0.86931-2.2012 0.93544-2.1342 4.0782 0.1048 4.919-0.4128 0.74191-0.7286 1.5368-0.9269 2.3783-2.5109-0.6826-5.2136-0.92217-7.8768-0.48446-4.0572 0.66677-8.1091 3.0733-9.9402 7.5366-1.135 2.7682 2.4709 5.0015 4.4436 2.7522 0.5051-0.57637 1.2078-1.1605 1.9643-1.65-1.5814 1.8587-2.7863 4.0503-3.333 6.6201-5.7117 2.4058-10.551 7.094-11.624 13.521-6.321 2.3409-12.77 6.4467-16.494 13.265-1.4648 2.6813 2.0223 5.3031 4.1914 3.1512 0.5074-0.50354 1.084-0.97992 1.6868-1.4288 0.2002 0.7601 0.4702 1.4752 0.8441 2.0653 0.4846 0.76486 1.0364 1.41 1.5899 2.0019-2.3579 1.753-4.48 4.0859-5.725 6.7682-0.8933 1.9248-1.3529 4.3016-0.2509 6.4927 0.6702 1.3326 1.8489 2.3013 3.3149 3.0057-2.9459 5.4293-9.2902 11.882-14.496 14.623-2.5874 1.3646-1.3804 5.2986 1.5272 4.9772 4.1389-0.45983 7.6835-2.8646 10.848-5.5626 1.0675-0.90995 2.0308-1.8789 3.0129-2.8362-0.2966 0.42234-0.5843 0.83954-0.9909 1.3059-2.2523 2.5831-6.1267 5.7442-9.4415 10.993-1.6268 2.5804 1.6779 5.414 3.9798 3.4126 4.9981-4.3534 10.556-8.8406 14.836-14.395 9.0325-1.9026 6.8275 6.928 7.5858 13.533l-8.4939 8.5928c-1.654 1.6735-0.4688 4.5118 1.8841 4.5122h6.6234v19.87c0.011 8.4768 4.6846 14.152 10.408 17.082 6.9527 7.2053 12.073 15.732 17.867 23.865 5.3248 13.932 14.906 32.766 28.298 50.367 18.9 24.839 45.553 47.111 78.543 47.111 32.991 0 59.644-22.272 78.543-47.111s30.22-52.147 32.679-64.643c0.4927-1.9756 2.463-4.5993 5.113-6.8038h12.489c0.728 0 1.4236-0.3007 1.9236-0.8298 1.3638 1.2813 2.8811 2.7534 4.1538 4.3504-0.058 0.094-0.1186 0.1856-0.1733 0.2814-0.8337 1.4534-1.2677 3.1093-1.2678 4.7902 0 1.6812 0.4334 3.3381 1.262 4.7981v0.01c0.8337 1.4611 2.0493 2.6768 3.5083 3.5193 1.4655 0.8519 3.1394 1.2988 4.8394 1.2988 1.6983 0 3.3711-0.4485 4.8362-1.3014 1.4564-0.8479 2.6681-2.0672 3.496-3.5297 0.8294-1.4552 1.2632-3.1097 1.2632-4.7902 0-1.6896-0.4389-3.3532-1.2794-4.8123-0.6219-1.0797-1.4522-2.0236-2.4346-2.7793 0.8413-4.4828 1.3244-9.189 1.5323-13.974 0.7718-4.6134 1.0803-9.4035 1.1041-14.262 1.2636 3.3295 2.3398 6.7615 3.203 10.335 0.702 2.9071 4.9304 2.6059 5.2133-0.3713 0.5097-5.351 0-10.442-1.0051-15.364 2.9903 4.6083 5.676 9.3809 7.893 14.324 1.2577 2.7977 5.4708 1.5785 5.04-1.4585-2.4303-17.012-11.47-31.92-20.516-45.71 1.8852 0.83315 3.958-0.71059 3.6997-2.7554-0.5369-4.1966-1.3451-6.5233-2.1687-8.2365-0.4374-0.90988-0.8091-1.5908-1.1552-2.3318 1.5611-0.70783 2.8123-1.7052 3.5122-3.0969 1.1019-2.1911 0.6424-4.5679-0.251-6.4927-1.245-2.6824-3.3671-5.0152-5.7249-6.7682 0.5534-0.59186 1.1052-1.237 1.5898-2.0019 0.3739-0.59008 0.6439-1.3052 0.8441-2.0653 0.6028 0.44886 1.1794 0.92528 1.6869 1.4288 2.169 2.1518 5.6561-0.46993 4.1913-3.1512-3.7245-6.8181-10.173-10.924-16.494-13.265-1.0731-6.4269-5.9121-11.115-11.624-13.521-0.5467-2.5698-1.7515-4.7614-3.333-6.6201 0.7565 0.4895 1.4593 1.0736 1.9644 1.65 1.9727 2.2494 5.5785 0.0159 4.4436-2.7522-1.8312-4.4633-5.883-6.8699-9.9402-7.5366-2.6632-0.4377-5.366-0.19813-7.8769 0.48447-0.1983-0.84173-0.5139-1.6369-0.9268-2.379 2.2379-0.8413 2.3048-3.9825 0.1047-4.9184-4.453-1.8843-9.4552-2.7028-13.944-0.86932-0.6126-1.3486-1.4727-2.5261-2.6027-3.4048-0.1842-0.14319-0.3981-0.23403-0.5919-0.36093 2.8374-0.88657 2.2878-5.0554-0.6824-5.1764-5.2324-0.19983-10.733 0.59461-15.287 3.6739-1.1914-1.5168-2.6429-2.5992-4.2999-2.9889-2.5885-0.60875-5.0147 0.18578-7.1926 1.2348-2.8218 1.3591-5.5266 3.2728-7.7229 4.7398-0.3272-0.63842-0.7242-1.2308-1.2619-1.6972-0.2618-0.22711-0.5647-0.37604-0.8544-0.55046 0.2099-0.13704 0.4097-0.27908 0.6422-0.40426 1.5222-0.81931 3.4635-1.3004 5.1726-1.3622 2.8005-0.1029 3.5451-3.9156 0.9889-5.0645-5.8063-2.6049-12.449 0.16422-17.666 4.159-1.3995 1.0716-2.7217 2.25-3.9248 3.5025-0.4499-0.37237-1.0101-0.58564-1.5938-0.60673-5.3556-0.17837-10.08 2.5654-13.645 6.2805 2.4273-3.4817 4.9243-6.4043 6.827-7.7753 1.1076-0.7988 1.4267-2.3086 0.737-3.4872-0.6897-1.1787-2.1622-1.64-3.4012-1.0657-3.9754 1.8444-7.0433 4.7451-9.618 7.8833 2.9395-10.899 8.1193-21.823 13.102-31.781 1.421-2.8462-2.4623-5.3226-4.4436-2.8337-1.2033 1.5143-2.5663 4.0087-4.3847 7.351-1.8185 3.3423-3.9315 7.3685-5.996 11.247-0.6929 1.3018-1.2359 2.2242-1.9042 3.4598 3.6201-13.799 10.76-27.421 15.831-40.303 0.6637-1.6908-0.5321-3.5329-2.3466-3.615zm116.29 214.11v0.01z" style="fill:#ffff10"/>
  <path d="m4212.5 823.56c6.5343 16.599 17.013 34.967 18.214 53.98-1.969 0.16578-15.872-28.918-19.208-33.117 6.7876 13.564 14.137 29.096 15.565 44.376-4.1526-5.8638-8.4115-13.571-15.565-16.889 7.0923 5.1104 16.702 22.342 17.552 31.13-1.6709-1.3877-4.6436-2.764-7.2856-1.6558-0.2735-1.557-0.045-3.4279-0.3092-5.0134-1.3962-8.3774-9.1369-18.471-18.236-18.168 3.828 1.1453 7.4484 3.8632 9.2726 7.6168-2.6019-1.0432-6.1732-0.14969-7.948 1.987-0.097-8.3757-14.843-20.779-23.513-16.889 4.2097 0.15213 9.1454 2.2209 10.597 6.2922-3.1839-0.85401-5.8179 1.104-4.9675 4.6363-6.0481-2.5468-16.174-14.002-20.532-3.3117-4.2356-4.1379-10.025-5.1917-15.896-4.9675 2.0612 0.61021 4.4757 1.7737 5.961 3.6428-4.59-0.50377-7.8769 1.8661-8.2792 6.6233-4.2916-3.4241-9.4113-2.8457-14.571-0.66233 1.144 0.20976 2.9954 0.25897 3.974 1.3247-2.5511 1.1357-3.9393 4.1838-3.3117 7.2857-5.6413-2.9652-14.969-2.7985-17.883 4.3052 2.4372-2.7813 7.3258-5.3854 10.928-2.3182-4.1061 2.5014-7.4841 5.934-7.948 10.928-6.1481 2.1104-11.259 6.8999-11.591 13.578-6.3775 2.0831-12.966 6.009-16.558 12.584 1.6619-1.6489 3.9102-3.3224 6.6233-3.974-2.5141 3.8362 1.3313 6.7132 3.6429 8.9415-5.6682 2.6589-13.498 12.422-3.3117 14.24-2.4115 6.821-10.127 14.984-16.89 18.545 6.4713-0.71893 12.804-8.1646 17.552-12.916 2.9372 9.0919-5.4533 11.145-11.591 20.863 8.6502-7.5345 18.174-14.979 20.532-26.824 6.5023 1.8306 11.855-1.7363 13.909-7.948 9.1292 0.98442 13.791-2.0025 14.24-11.26 5.5741-0.89282 4.8242-7.8393 9.164-10.733 1.6684-1.1123 5.9018-0.95796 4.5121 1.8214-1.0777 2.1555-2.6618 4.221-4.4035 5.9306 6.6096-3.332 11.172-9.5929 12.916-16.558 2.6681 1.3407 4.7855 3.6021 5.6299 6.6233 0.2354-12.691 19.127-17.206 6.2921-3.6428 1.4763-0.164 16.284-7.5468 16.284-1.7496 0 4.2281-2.9366 4.236-6.3491 5.3924 18.012-1.117 10.596 13.312 25.831 16.558-1.7411 7.4312 2.2074 11.348 9.935 10.928-2.3181 3.974-3.4777 10.928 2.3182 10.928 4.6363 0 8.9415-10.266 11.591-0.66233 2.597-5.9728 9.7486-8.6561 10.266 0 0.9935-4.3052 5.2986-7.6168 6.6233-7.6168s5.6298 3.3117 6.6233 7.6168c0.5176-8.6561 7.6693-5.9728 10.266 0 2.6493-9.6038 11.922-0.16559 16.558-0.16559 5.7959 0 8.5276-6.2094 6.2094-10.183 7.7276 0.41995 6.7086-2.6693 4.9675-10.101 15.235-3.2466 3.9279-18.42 21.94-17.303-3.4125-1.1565-6.3491-1.1644-6.3491-5.3924 0-5.7972 14.808 1.5856 16.284 1.7496-12.835-13.563 6.0568-9.0486 6.2921 3.6428 0.8445-3.0212 2.9618-5.2826 5.6299-6.6233 1.7436 6.9654 4.6669 18.378 11.276 21.71-1.7417-1.7096-1.2185-3.1897-2.2962-5.3453-1.3897-2.7794 2.8437-2.9337 4.5121-1.8214 4.3398 2.8932 2.4191 4.8049 7.9933 5.6978 0.4494 9.2572 0.3104 12.127 9.4395 11.143 2.0537 6.2117 7.4068 8.842 13.909 7.0114 2.8639 11.517 15.801 57.131 13.859 71.551 2.2051-9.3858 2.2601-19.876 1.291-30.425 4.1404 6.9649 7.0187 14.456 8.9635 22.508 0.9502-9.977-1.8781-19.196-4.8006-28.451 6.6294 8.1592 12.472 17.056 16.743 26.578-2.8655-20.059-15.554-37.612-26.295-54.043 2.9043 0.0385 6.149 2.9012 9.4732 5.5393-1.025-8.0122-2.7427-7.5965-4.1273-12.574 10.186-1.8179 2.3565-11.581-3.3116-14.24 2.3115-2.2284 6.1569-5.1053 3.6428-8.9415 2.7131 0.65157 4.9614 2.3251 6.6233 3.974-3.5919-6.5753-10.181-10.501-16.558-12.584-0.3316-6.6779-5.4428-11.467-11.591-13.578-0.4639-4.9945-3.842-8.4271-7.948-10.928 3.6027-3.0672 8.4912-0.46311 10.928 2.3182-2.9143-7.1037-12.242-7.2704-17.883-4.3052 0.6276-3.1019-0.7605-6.1499-3.3117-7.2857 0.9786-1.0657 2.8301-1.1149 3.974-1.3247-5.1599-2.1834-10.28-2.7618-14.571 0.66233-0.4023-4.7573-3.6892-7.1271-8.2792-6.6233 1.4853-1.8691 3.8999-3.0326 5.961-3.6428-5.8713-0.22423-11.66 0.82964-15.896 4.9675-4.3579-10.691-14.484 0.76483-20.532 3.3117 0.8504-3.5323-1.7835-5.4903-4.9675-4.6363 1.4519-4.0712 6.3877-6.14 10.597-6.2922-8.6698-3.8896-23.416 8.5138-23.513 16.889-1.7748-2.1367-5.3461-3.0302-7.948-1.987 1.8242-3.7537 5.4447-6.4715 9.2727-7.6168-9.0992-0.30308-16.84 9.7908-18.236 18.168-0.2643 1.5856-0.036 3.4565-0.3092 5.0134-2.642-1.1081-5.6147 0.26811-7.2856 1.6558 0.8496-8.7875 10.46-26.019 17.552-31.13-7.1533 3.3188-11.412 11.026-15.565 16.889 1.4279-15.28 8.7772-30.812 15.565-44.376-3.3359 4.1983-17.239 33.282-19.208 33.117 1.2013-19.013 11.68-37.381 18.214-53.98-12.76 17.899-27.995 48.324-33.779 73.85-5.7836-25.526-21.019-55.951-33.779-73.85zm-41.422 54.218c6.1124 0 11.436 4.633 13.081 10.515-5.9061-1.125-11.561-4.0835-13.081-10.515zm150.4 0c-1.5204 6.431-7.175 9.3896-13.081 10.515 1.6452-5.8816 6.9687-10.515 13.081-10.515zm-167.04 3.0834c4.861-0.14883 8.2417 2.1637 12.006 5.6926-5.4181 0.51602-10.386-0.0918-12.998-5.6298 0.3378-0.0321 0.6681-0.0528 0.9922-0.0627zm183.69 0c0.3241 0.01 0.6544 0.0305 0.9922 0.0627-2.6126 5.5381-7.5802 6.1458-12.998 5.6298 3.7644-3.5288 7.1451-5.8414 12.006-5.6926zm-144.88 0.70177c2.2589-0.0524 5.5504 3.4393 8.0573 14.015-12.83-2.566-12.084-13.922-8.0573-14.015zm106.08 0c4.0269 0.0935 4.7725 11.449-8.0573 14.015 2.507-10.576 5.7984-14.067 8.0573-14.015zm-155.21 5.4235c2.5825 0.0159 6.2721 1.4977 10.91 5.6939-16.444 7.3997-18.658-5.7418-10.91-5.6939zm204.35 0c7.7476-0.048 5.5333 13.094-10.91 5.6939 4.6382-4.1962 8.3278-5.6779 10.91-5.6939zm-174.2 5.1732c0.5723 0.01 1.1192 0.0961 1.6294 0.27232-0.2597 2.7268-4.02 6.4807-6.9545 7.948-17.573 8.7864-3.2588-8.3655 5.3251-8.2203zm144.06 0c8.5839-0.14515 22.898 17.007 5.3252 8.2203-2.9346-1.4673-6.6948-5.2212-6.9545-7.948 0.5102-0.17625 1.057-0.26265 1.6293-0.27232zm-110 0.53235c4.0182 0.0468 10.256 5.5931 5.9876 14.725-3.1457-0.2996-4.5935-2.7506-6.2922-5.2987-4.3775-6.5662-2.6275-9.4607 0.3046-9.4266zm75.942 0c2.9321-0.0341 4.6821 2.8604 0.3046 9.4266-1.6987 2.5481-3.1464 4.9991-6.2922 5.2987-4.2686-9.1321 1.9695-14.678 5.9876-14.725zm-93.63 3.2075c0.1885-4e-3 0.3733-4e-3 0.5544 3e-3 1.9317 0.0618 3.4208 0.71059 3.9138 2.2431-2.3877 2.5583-15.474 10.697-18.297 5.0503-1.1528-2.3055 7.9876-7.1626 13.829-7.2954zm111.32 0c5.8411 0.13277 14.982 4.9898 13.829 7.2954-2.8234 5.6467-15.909-2.492-18.297-5.0503 0.4931-1.5326 1.9821-2.1813 3.9139-2.2431 0.1811-6e-3 0.3659-6e-3 0.5543-3e-3zm-166.87 2.4262c2.1165 0.0321 4.2559 0.57315 6.3672 1.9715-4.9346 3.1166-12.006 3.8475-17.883 0.9935 3.5182-1.2314 7.4753-3.0261 11.516-2.965zm222.41 0c4.0406-0.0612 7.9976 1.7336 11.516 2.965-5.8766 2.854-12.948 2.1231-17.883-0.9935 2.1113-1.3983 4.2507-1.9394 6.3672-1.9715zm-200.9 1.1436c-11.961 28.406-14.556 4.6828 0 0zm179.38 0c14.556 4.6828 11.961 28.406 0 0zm-112.57 5.547c3.5911 5.3867 2.6182 13.977-1.987 18.711-1.8036-7.2143-4.0792-12.462 1.987-18.711zm45.753 0c6.0661 6.2491 3.7905 11.497 1.987 18.711-4.6052-4.7336-5.5782-13.324-1.987-18.711zm-69.322 2.639c3.0114 0.0537 6.3906 1.3173 8.9984 4.7294-0.7604 2.1726-2.931 2.8977-5.8782 2.8977-16.111 0-10.816-7.7644-3.1202-7.6272zm92.892 0c7.6958-0.13724 12.991 7.6272-3.1202 7.6272-2.9472 0-5.1178-0.72506-5.8782-2.8977 2.6078-3.4121 5.987-4.6758 8.9984-4.7294zm-165.66 2.311c0.3832 0 0.7584 7e-3 1.1229 0.0176-1.7826 5.9418-10.617 7.8854-16.144 7.1201 1.6742-5.8597 9.2732-7.1441 15.022-7.1376zm238.42 0c5.7484-7e-3 13.347 1.2778 15.022 7.1375-5.5276 0.76536-14.362-1.1782-16.144-7.1201 0.3645-0.0109 0.7397-0.0172 1.1229-0.0175zm-227.44 1.5077c8.0879 11.458-11.497 21.975 0 0zm216.47 0c11.497 21.975-8.0878 11.458 0 0zm-225.74 8.6103c8.1854 20.464-15.641 19.549 0 0zm235.01 0c15.641 19.549-8.1854 20.464 0 0zm-134.17 0.16559c1.7127 1.3916 2.8116 3.551 2.0698 6.7061-2.5445-1.3392-4.9106-4.3328-2.0698-6.7061zm33.334 0c2.8408 2.3733 0.4748 5.3669-2.0698 6.7061-0.7418-3.1551 0.3571-5.3145 2.0698-6.7061zm-58.258 0.99866c0.1316-4e-3 0.2673-4e-3 0.4061 0 2.4895 0.0771 6.1419 1.5074 11.106 5.2929-13.83 11.237-19.809-5.0446-11.512-5.2935zm83.182 0c8.2969 0.24887 2.3178 16.53-11.512 5.2935 4.964-3.7855 8.6164-5.2157 11.106-5.2928 0.1389-4e-3 0.2745-5e-3 0.4062 0zm-172.18 1.2367c-1.0721 5.6288-8.0381 7.1504-13.495 8.1964 1.2819-5.1278 8.3956-7.9481 13.495-8.1964zm261.18 0c5.0994 0.24828 12.213 3.0686 13.495 8.1964-5.4569-1.0459-12.423-2.5676-13.495-8.1964zm-138.31 7.2857c3.4818 0.3316 4.852 3.0534 6.7061 5.961-2.8252-0.56503-6.6634-2.2334-6.7061-5.961zm15.451 0c-0.043 3.7276-3.8809 5.396-6.7061 5.961 1.8541-2.9076 3.2243-5.6294 6.7061-5.961zm-28.78 0.82792c2.7425 1.676 5.9415 3.132 8.0308 5.7126-3.1088 0-13.111-1.0245-8.0308-5.7126zm42.11 0c5.0804 4.6881-4.922 5.7126-8.0307 5.7126 2.0892-2.5806 5.2883-4.0366 8.0307-5.7126zm-150.87 1.2529c3.8313 3.8783 2.5146 11.496-2.6493 13.247-4.4568-2.5689-0.6642-9.8706 2.6493-13.247zm259.63 0c3.3135 3.376 7.1061 10.678 2.6493 13.247-5.1639-1.7508-6.4805-9.3684-2.6493-13.247zm-267.58 2.6493c2.0495 5.0299-5.5493 10.434-10.597 10.597 1.7983-5.4132 5.9731-9.8511 10.597-10.597zm275.53 0c4.6243 0.74619 8.799 5.1841 10.597 10.597-5.048-0.16316-12.647-5.5674-10.597-10.597zm-168.67 2.0582c1.7275-0.0186 3.4312 0.44648 4.9604 1.7392-3.5277 0.67194-7.3042 3.4874-11.425 0 1.9827-0.89223 4.2437-1.7154 6.4649-1.7392zm65.691 0.74512c2.2211 0.0238 4.4821 0.84703 6.4648 1.7393-4.121 3.4874-7.8975 0.67194-11.425 0 1.5291-1.2928 3.2328-1.7578 4.9604-1.7393zm-47.815 3.809c0.7951 4.6716-2.6106 8.1073-7.2029 7.4512-1.4136-4.4014 3.771-6.7976 7.2029-7.4512zm26.048 0c3.4318 0.65369 8.6164 3.0498 7.2028 7.4512-4.5923 0.65604-7.998-2.7796-7.2028-7.4512zm-15.725 0.23155c0.3939-6e-3 0.8159 0 1.2678 0.0169 1.4748 10.816-13.478 0.15793-1.2678-0.0169zm4.7903 0c0.2112-3e-3 0.415-3e-3 0.6119 0 12.21 0.17472-2.7426 10.833-1.2678 0.0169 0.226-9e-3 0.4447-0.0139 0.6559-0.0169zm27.162 2.6662c3.5325 0.49834 5.2047 3.3821 5.0503 6.6233-5.7934 0.93511-5.2351-2.7424-5.0503-6.6233zm-53.535 0.82791c0.1848 3.8809 0.7431 7.5584-5.0503 6.6233-0.1544-3.2412 1.5178-6.125 5.0503-6.6233zm-84.339 91.993c4.5878 23.312 45.039 109.62 108.62 109.62s104.03-86.304 108.62-109.62h-33.117c10.654 35.952-35.766 95.707-75.506 95.707s-86.16-59.755-75.506-95.707z" style="fill:#006300"/>
  <path d="m4205.7 1059c-1.2167-0.05-1.8686 0.7257-1.8686 2.7127 0 15.896 23.513 36.097 42.389 36.097s42.389-20.201 42.389-36.097c0-10.597-18.545 13.247-42.389 13.247-19.373 0-35.249-15.741-40.521-15.959z" style="fill:#006300"/>
  <path d="m4178.3 934.17c-17.554 0.10233-34.084 15.177-38.996 32.785h33.779c0-6.9545 9.6038-4.9675 9.6038 0h15.731c-2.483-1.4335-5.3524-4.3052-2.4844-9.2727-6.6233 1.7747-8.2792-3.974-8.2792-8.2792-3.6428 2.6493-6.6959 2.2659-8.2791-3.6428-3.6429 6.3096-5.1926 5.961-10.928 2.6493 1.7747 6.6233-3.974 8.6103-6.2922 6.2922 2.3182 2.3182 1.6558 7.6168-0.6623 7.6168h-13.909c21.049-40.03 54.466-23.511 62.922 4.6363h5.6299c-9.908-23.887-24.181-32.865-37.834-32.785zm144.88 0c-13.653-0.0796-27.926 8.8984-37.834 32.785h5.6298c8.4559-28.147 41.873-44.666 62.922-4.6363h-13.909c-2.3181 0-2.9805-5.2987-0.6623-7.6168-2.3182 2.3182-8.0668 0.33117-6.2922-6.2922-5.7359 3.3117-7.2856 3.6602-10.928-2.6493-1.5832 5.9088-4.6363 6.2922-8.2791 3.6428 0 4.3052-1.6558 10.054-8.2792 8.2792 2.868 4.9675 0 7.8392-2.4844 9.2727h15.731c0-4.9675 9.6038-6.9545 9.6038 0h33.779c-4.9118-17.608-21.442-32.683-38.996-32.785zm46.282 23.844c-0.9935 0-5.2987 0.33116-5.2987 7.6168 0 2.6493 0.9935 7.6168 5.6298 7.6168 0.6624 0 4.9675 0 4.9675-7.6168s-4.3051-7.6168-5.2986-7.6168zm-118.89 0.66233v69.214h20.532v-27.156c5.6298 4.3052 7.948 11.591 7.948 15.565v11.591h20.532v-8.6103c0-17.552-8.6103-23.513-8.6103-23.513 5.6298-5.961 8.6103-12.584 8.6103-21.857h-19.87c0 4.3052-1.3246 14.24-8.6103 18.214v-33.448zm-117.56 0.66233-28.48 28.811h9.2727v22.519c0.024 18.803 24.261 20.034 29.143 12.916v-20.201c-2.9107 5.239-7.153 4.6941-9.6038 0v-15.234h8.9415v-14.24h-9.2727zm193.77 14.44c-8.5406-0.0262-17.486 3.1222-20.901 5.7611v15.565s4.3052-3.974 10.928-3.974c6.9545 0 8.9375 4.7362 8.9415 9.2727-1.422-1.0823-3.4527-1.6559-6.2922-1.6559-7.2856 0-14.902 4.3052-14.902 14.903 0 7.6168 5.2987 14.24 11.591 14.24 5.2987-1e-4 6.2922-1.3246 9.2727-4.3051v4.3051h20.201v-36.428c0-13.547-9.1596-17.654-18.839-17.683zm-176.55 0.13131v53.649h19.208v-25.831c0-4.9675 3.3116-7.457 4.3051-7.457 0.9935 0 2.9805 4.8077 9.2727 4.8077s9.6038-3.6428 10.266-5.2987v20.201c0 13.247 11.591 13.909 14.571 13.909 9.6038 0 13.909-9.2726 13.909-9.2726v9.2726h20.532v-53.98h-20.532v32.123c0 4.3052-3.974 4.3052-4.6363 4.3052-0.6624 0-4.3052-0.3312-4.3052-4.3052v-32.123h-19.539v4.3052s-1.987-4.3052-9.2727-4.3052c-8.2792 0-11.26 3.6428-13.909 10.928v-10.928zm204.66 0.66234v53.318h20.201v-53.318c-5.2987 2.9805-14.902 2.9805-20.201 0zm-32.786 32.454c2.9805 0 4.3052 1.987 4.3052 4.9675 0 0 0 5.961-4.3052 5.961-2.9805 0-4.9675-1.3246-4.9675-5.961 0-4.6363 2.6494-4.9675 4.9675-4.9675zm67.235 25.169c-1.2571 0-2.4275 0.3106-3.5116 0.9327-1.0783 0.6162-1.9235 1.4603-2.5348 2.5316-0.6113 1.0655-0.9165 2.2229-0.9165 3.4727s0.3052 2.4132 0.9165 3.4902c0.6113 1.0713 1.4565 1.918 2.5348 2.54 1.0784 0.6278 2.2487 0.9418 3.5116 0.9418 1.2571 0 2.4247-0.314 3.5031-0.9418 1.0783-0.6277 1.9203-1.4771 2.5258-2.5484 0.6113-1.0713 0.9172-2.232 0.9172-3.4818 0-1.2555-0.3086-2.4189-0.9256-3.4902-0.6171-1.0712-1.4616-1.912-2.5342-2.5225-1.0726-0.6163-2.235-0.9243-3.4863-0.9243zm0 1.3473c0.9918 0 1.9175 0.2505 2.7767 0.7516 0.865 0.4953 1.5454 1.1781 2.0413 2.0478 0.496 0.8639 0.7439 1.7939 0.7439 2.7903 0 1.0194-0.2539 1.9667-0.7613 2.8421-0.5017 0.8697-1.1788 1.5525-2.0323 2.0478-0.8477 0.4896-1.7707 0.7341-2.7683 0.7341s-1.9227-0.2445-2.7761-0.7341c-0.8477-0.4953-1.5255-1.1808-2.033-2.0562-0.5017-0.8754-0.7528-1.82-0.7528-2.8337 0-0.9906 0.2452-1.918 0.7354-2.7819 0.4959-0.8697 1.1737-1.5551 2.0329-2.0562s1.7902-0.7516 2.7936-0.7516zm-155.33 1.6332c0 9.6038-1.1287 15.056-8.2791 14.902-13.65-0.2927-24.506-13.247-34.97-13.247-11.062 0-11.725 12.584-11.725 14.24 0 18.545 35.435 67.889 67.227 67.889s67.227-49.344 67.227-67.889c0-1.6558-0.6626-14.24-11.725-14.24-10.464 0-21.319 12.954-34.97 13.247-7.1504 0.1533-8.2791-5.2987-8.2791-14.902h-9.6039c0 21.195 6.7478 26.493 15.296 26.493 8.5481 0 14.996-10.597 24.444-10.597 7.948 0 7.948 7.948 7.948 10.597 0 10.597-21.195 43.052-50.337 43.052-29.143 0-50.337-32.454-50.337-43.052 0-2.6493 0-10.597 7.948-10.597 9.4482 0 15.896 10.597 24.444 10.597s15.296-5.2986 15.296-26.493zm152.62 0.1468v7.3433h1.7729v-2.652h0.6487l1.8253 2.652h2.1623l-2.0672-2.9722c0.8362-0.3513 1.2542-1.0592 1.2542-2.1247 0-0.7718-0.2367-1.3396-0.7096-1.7024-0.4728-0.3628-1.2225-0.544-2.2489-0.544zm1.7729 1.5291h0.8997c0.4729 0 0.7696 0.069 0.8906 0.2076 0.1269 0.1325 0.1902 0.3341 0.1902 0.6047 0 0.2707-0.037 0.4605-0.1119 0.5699-0.069 0.1036-0.1819 0.1757-0.3376 0.216-0.1557 0.04-0.3891 0.061-0.7005 0.061h-0.8305z" style="fill:#e70810"/>
  <rect x="4647.8" y="586.81" width="798.51" height="798.51" style="fill:#f9f9f9;paint-order:stroke fill markers"/>
  <g transform="matrix(2.3315 0 0 2.3315 4835.8 -1336.2)" style="stroke-width:.42892">
   <path transform="translate(0,922.07)" d="m1 42v48h12v-22c4 0 4 2 4 4v18h12v-18c0-6-7-7-7-7 3-1 7-1 7-9v-1c0-4 0-13-13-13zm12 8c4 0 4 2 4 5v1c0 3 0 5-4 5z" style="fill:#0741a5;stroke-width:.42892"/>
   <path transform="translate(0,922.07)" d="m38 42-7 48h12l0.85156-9h5.2969l0.85156 9h12l-7-48h-17zm8.5 11 1.8926 20h-3.7852z" style="fill:#0741a5;stroke-width:.42892"/>
   <path transform="translate(0,922.07)" d="m64 42v48h11v-31l5 31h7l5-31v31h11v-48h-16l-3.5 22-3.5-22z" style="fill:#0741a5;stroke-width:.42892"/>
   <circle cx="157" cy="957.07" r="34" style="fill:#fedc23;paint-order:stroke fill markers;stroke-width:.42892"/>
   <path transform="translate(0,922.07)" d="m108 42v36c0 3 1 13 14 13s14-10 14-13v-36h-12v36c0 3 0 5-2 5s-2-2-2-5v-36z" style="fill:#0741a5;stroke-width:.42892"/>
   <path d="m25 1041.1c0 5-4 7-11 7s-13-1-13-7v-3h10v4c0 2 4 3 4 0 0-4-2-4-7-6s-7-4-7-8c0-7 9-7 12-7 5 0 11 0 11 8h-9v-2c0-2-4-2-4 0v1c0 2 2 2 8 5s6 6 6 8z" style="fill:#0741a5;stroke-width:.42892"/>
   <path d="m28 1021.1v18c0 3 0 9 12 9s12-6 12-9v-18h-10v18c0 3 0 5-2 5s-2-2-2-5v-18z" style="fill:#0741a5;stroke-width:.42892"/>
   <path transform="translate(0,922.07)" d="m88.098 99-6.0977 27h10.451l0.73242-5h4.6328l0.73242 5h10.451l-6.0977-27h-14.805zm7.4023 6.1875 1.7305 11.812h-3.4609l1.7305-11.812z" style="fill:#0741a5;stroke-width:.42892"/>
   <path d="m55 1040.1c0 1.9999 0 8 11 8 3 0 5-1 6-2l1 2h7v-14h-13v4h2v4c0 2-3 2-3 0v-15c0-2 3-2 3 0v4h11v-2c0-8-11-8-13-8-11 0-12 6-12 8z" style="fill:#0741a5;stroke-width:.42892"/>
   <path d="m112 1021.1v27h11v-12c3.4286 0 3 0.75 3 1.875v10.125h10v-10c0-3-6-4-6-4 2.5714-0.5625 6 0 6-5v-1c0-2.25 0-7-11.143-7zm11 5c3 0 3 1 3 2v2c0 1 0 2-3 2z" style="fill:#0741a5;stroke-width:.42892"/>
   <path d="m0 1015.1h128l-4 4h-124z" style="fill:#3aa43f;stroke-width:.42892"/>
   <path d="m149.38 1012.9c-2.4375-6.0625-22.098-28.829-32.625-3 1.625-17.625 23.688-20.188 32.5-0.8125z" style="fill:#3aa43f;stroke-width:.42892"/>
   <path transform="translate(0,922.07)" d="m150.5 33c-0.42431 5.516-0.93516 22.597-1.3867 40.539 0.82699 0.60907 1.9464 0.60907 2.7734 0-0.45156-17.942-0.96241-35.023-1.3867-40.539zm-1.4102 41.518c-0.0871 3.4861-0.14139 6.346-0.22265 9.8066 0.91685 0.88994 2.3488 0.88994 3.2656 0-0.0813-3.4607-0.13551-6.3205-0.22265-9.8066-0.83758 0.63406-1.9827 0.63406-2.8203 0zm-0.24609 10.787c-0.0591 2.5308-0.0948 4.3717-0.15039 6.8281 0.95452 1.1431 2.6588 1.143 3.6133 0-0.0556-2.4564-0.0913-4.2974-0.15039-6.8281-0.92297 0.91887-2.3895 0.91887-3.3125 0zm-0.17187 7.8008c-0.1022 4.5328-0.097 4.7618-0.1836 8.7578 0.95615 1.5104 3.0673 1.5104 4.0234 0-0.0866-3.996-0.0814-4.225-0.1836-8.7578-0.95717 1.1784-2.6991 1.1784-3.6562 0zm-0.20508 9.7305c-0.0889 4.1205-0.1137 5.4227-0.19532 9.2383 0.86544 1.5597 3.5916 1.5597 4.457 0-0.0816-3.8156-0.10645-5.1178-0.19532-9.2383-0.95311 1.551-3.1133 1.551-4.0664 0zm-0.22266 10.539c-0.0971 4.5574-0.24414 11.327-0.24414 11.625 0 1 1 2 2.5 2s2.5-1 2.5-2c0-0.29774-0.14703-7.0676-0.24414-11.625-0.84499 2.1603-3.6667 2.1603-4.5117 0z" style="fill:#3aa43f;stroke-width:.42892"/>
   <path transform="translate(0,922.07)" d="m138 58c-0.39837 0-1.1575 0.42509-2.084 1.2402-0.9862-0.80813-1.3836-0.63667-1.8145-0.49219-1.8466 0.61929-3.1157 2.3454-4.4707 6.6016-1.7443 4.7458-3.0716 12.185-1.9004 22.318l0.26953 2.332c-0.96101-10.113 1.2883-18.976 3.9453-24.711 1.3628-2.3367 2.8007-4.0195 3.9707-5.0488 3.3708 2.7622 10.216 10.155 14.084 21.76l1-1c-0.0853-0.25584-0.17197-0.49099-0.25781-0.74219l0.25781-0.25781c-5-15-11-22-13-22z" style="fill:#3aa43f;stroke-width:.42892"/>
   <path d="m150 982.07c-6-9-13.624-16.195-21.624-17.195 10.339 5.2705 20.082 15.102 21.624 26.195z" style="fill:#3aa43f;stroke-width:.42892"/>
   <path d="m150 978.07c5-13 12-18 15-20-9 10-11 12-14 25z" style="fill:#3aa43f;stroke-width:.42892"/>
   <path d="m152 1045.1c0.0561-6.4326 12.144-22.193 19.141-23.193 8.5443-1.2206 16.886 13.837 16.859 20.193 0.12461-8.0645-4.7771-20.302-14.605-22.868-1.2882-0.3363-2.7483 1.5643-4.1778 1.8334-1.3168 0.2479-2.392-0.04-3.8172 0.5711-6.321 2.7092-15.389 16.35-13.4 23.463z" style="fill:#3aa43f;stroke-width:.42892"/>
   <path d="m150.82 987.94c1.2093-5.6007 6.9281-14.941 10.73-17.162 0.80132-0.46825 1.111 1.0219 1.8334 1.0219 0.31115 0 0.94057-0.66248 1.1421-0.4809 5.6212 5.0638 1.4598 23.454-4.5385 30.567 3.4657-7.1217 8.2498-19.224 3.727-28.283-0.41289-0.82699-3.8571 2.7951-4.4183 3.5166-2.7653 3.5553-5.4347 7.3172-6.8829 11.662-0.45675 1.3702-0.90564 2.6982-1.3225 4.0877-0.0262 0.0874-0.19589 1.0219-0.30056 1.0219-0.19536 0-0.0491-5.4501 0.03-5.9512z" style="fill:#3aa43f;stroke-width:.42892"/>
   <path d="m151.06 1000.9c0.61906-3.2542 6.3555-15.942 10.76-11.812 7.3416-5.823 18.771 9.9616 20.498 17.733-1.7687-5.9749-14.34-19.938-22.572-14.968-4.5591 2.8494-6.0785 9.3543-8.4458 13.826 0.0171-1.4338-0.93309-3.5475-0.24045-4.779z" style="fill:#3aa43f;stroke-width:.42892"/>
   <path d="m114.76 1046.1c0.10845-13.056 8.8855-37.853 26.029-25.608 3.6347 2.5962 6.5068 5.9799 7.8146 10.339 0.40817-0.126 0.99533-1.3643 1.4427-1.9837-16.532-32.956-39.48-8.7745-35.286 17.252z" style="fill:#3aa43f;stroke-width:.42892"/>
   <path d="m151.12 1020.4c1.219-4.1257 4.038-11.206 10.46-11.902 1.1233-0.1219 1.7691 1.8473 3.0056 1.6831 3.5412-0.4702 6.4328-0.315 9.5579 4.2079 3.5171 5.0902 1.9202 16.767 0.54101 21.701 1.8383-21.916-12.595-36.125-23.029-12.637-0.25953-0.8867-0.61969-2.2479-0.53499-3.0524z" style="fill:#3aa43f;stroke-width:.42892"/>
  </g>
 </g>
</svg>
