<?xml version="1.0" encoding="UTF-8" standalone="no"?>
<!-- Created with Inkscape (http://www.inkscape.org/) -->

<svg
   xmlns:dc="http://purl.org/dc/elements/1.1/"
   xmlns:cc="http://creativecommons.org/ns#"
   xmlns:rdf="http://www.w3.org/1999/02/22-rdf-syntax-ns#"
   xmlns:svg="http://www.w3.org/2000/svg"
   xmlns="http://www.w3.org/2000/svg"
   xmlns:xlink="http://www.w3.org/1999/xlink"
   xmlns:sodipodi="http://sodipodi.sourceforge.net/DTD/sodipodi-0.dtd"
   xmlns:inkscape="http://www.inkscape.org/namespaces/inkscape"
   width="512"
   height="128"
   viewBox="0 0 512 128"
   version="1.1"
   id="svg8"
   inkscape:version="0.92.2 5c3e80d, 2017-08-06"
   sodipodi:docname="compilation.svg">
  <defs
     id="defs2">
    <linearGradient
       inkscape:collect="always"
       id="linearGradient959">
      <stop
         style="stop-color:#ff0814;stop-opacity:1"
         offset="0"
         id="stop955" />
      <stop
         id="stop967"
         offset="0.24033332"
         style="stop-color:#ff0814;stop-opacity:1" />
      <stop
         id="stop963"
         offset="0.46799067"
         style="stop-color:#374548;stop-opacity:1" />
      <stop
         style="stop-color:#374548;stop-opacity:1"
         offset="0.50714457"
         id="stop969" />
      <stop
         style="stop-color:#a02324;stop-opacity:1"
         offset="0.85952985"
         id="stop965" />
      <stop
         style="stop-color:#a02324;stop-opacity:1"
         offset="1"
         id="stop957" />
    </linearGradient>
    <linearGradient
       inkscape:collect="always"
       xlink:href="#linearGradient959"
       id="linearGradient961"
       x1="-143.25543"
       y1="986.06662"
       x2="2247.4536"
       y2="986.06662"
       gradientUnits="userSpaceOnUse"
       gradientTransform="translate(0,578)" />
  </defs>
  <sodipodi:namedview
     id="base"
     pagecolor="#ffffff"
     bordercolor="#666666"
     borderopacity="1.0"
     inkscape:pageopacity="0.0"
     inkscape:pageshadow="2"
     inkscape:zoom="0.1767767"
     inkscape:cx="2416.9529"
     inkscape:cy="330.13754"
     inkscape:document-units="px"
     inkscape:current-layer="layer1"
     showgrid="false"
     units="px"
     inkscape:snap-intersection-paths="false"
     inkscape:object-nodes="true"
     inkscape:snap-smooth-nodes="true"
     inkscape:window-width="1920"
     inkscape:window-height="2032"
     inkscape:window-x="1920"
     inkscape:window-y="60"
     inkscape:window-maximized="0"
     inkscape:snap-bbox="true"
     inkscape:bbox-nodes="true">
    <inkscape:grid
       type="xygrid"
       id="grid852"
       empspacing="8" />
  </sodipodi:namedview>
  <metadata
     id="metadata5">
    <rdf:RDF>
      <cc:Work
         rdf:about="">
        <dc:format>image/svg+xml</dc:format>
        <dc:type
           rdf:resource="http://purl.org/dc/dcmitype/StillImage" />
        <dc:title />
      </cc:Work>
    </rdf:RDF>
  </metadata>
  <g
     inkscape:label="Layer 1"
     inkscape:groupmode="layer"
     id="layer1"
     transform="translate(0,-922.06667)">
    <rect
       style="opacity:1;fill:#a02324;fill-opacity:1;fill-rule:nonzero;stroke:none;stroke-width:13.20777702;stroke-linecap:round;stroke-linejoin:round;stroke-miterlimit:4;stroke-dasharray:none;stroke-opacity:1;paint-order:stroke fill markers"
       id="rect830"
       width="798.51086"
       height="798.51086"
       x="1453.7661"
       y="586.81122"
       inkscape:export-filename="/home/william/Pictures/PNG/tea.png"
       inkscape:export-xdpi="246.21832"
       inkscape:export-ydpi="246.21832" />
    <rect
       style="opacity:1;fill:#ff0814;fill-opacity:1;fill-rule:nonzero;stroke:none;stroke-width:6;stroke-linecap:round;stroke-linejoin:round;stroke-miterlimit:4;stroke-dasharray:none;stroke-opacity:1;paint-order:stroke fill markers"
       id="rect828"
       width="798.51086"
       height="798.51086"
       x="-143.25543"
       y="586.81122"
       inkscape:export-filename="/home/william/Pictures/PNG/was-was.png"
       inkscape:export-xdpi="246.21832"
       inkscape:export-ydpi="246.21832" />
    <g
       id="g974"
       transform="translate(2)">
      <path
         transform="translate(0,922.06667)"
         sodipodi:nodetypes="ccscccccscssccscsc"
         inkscape:connector-curvature="0"
         id="text909"
         d="m 204.92578,6 -0.0723,0.00195 C 190.9601,6.2574362 180.53484,12.061218 174.61914,20.017578 168.70344,27.973948 167,37.24755 167,45 L 153.35547,9 H 1.3027344 L 25.365234,119 H 183.46484 c 5.99551,3.27711 13.31552,5 21.53516,5 9.5,0 19.48062,-2.58805 27.49805,-9.00195 C 240.51548,108.58405 246,98.0606 246,85 246,73.93333 243.17616,65.850024 239.29492,59.275391 L 235,52 h 9 V 44 C 244,33.77451 240.59615,24.072306 233.72266,17.035156 226.84916,9.9979571 216.73333,6 205,6 Z"
         style="color:#000000;font-style:normal;font-variant:normal;font-weight:normal;font-stretch:normal;font-size:126.24941254px;line-height:1.25;font-family:sans-serif;font-variant-ligatures:normal;font-variant-position:normal;font-variant-caps:normal;font-variant-numeric:normal;font-variant-alternates:normal;font-feature-settings:normal;text-indent:0;text-align:start;text-decoration:none;text-decoration-line:none;text-decoration-style:solid;text-decoration-color:#000000;letter-spacing:0px;word-spacing:0px;text-transform:none;writing-mode:lr-tb;direction:ltr;text-orientation:mixed;dominant-baseline:auto;baseline-shift:baseline;text-anchor:start;white-space:normal;shape-padding:0;clip-rule:nonzero;display:inline;overflow:visible;visibility:visible;opacity:1;isolation:auto;mix-blend-mode:normal;color-interpolation:sRGB;color-interpolation-filters:linearRGB;solid-color:#000000;solid-opacity:1;vector-effect:none;fill:#000000;fill-opacity:1;fill-rule:nonzero;stroke:none;stroke-width:16;stroke-linecap:butt;stroke-linejoin:miter;stroke-miterlimit:4;stroke-dasharray:none;stroke-dashoffset:0;stroke-opacity:1;color-rendering:auto;image-rendering:auto;shape-rendering:auto;text-rendering:auto;enable-background:accumulate" />
      <g
         id="g968">
        <path
           style="fill:#ff0814;fill-opacity:1;stroke:none;stroke-width:1px;stroke-linecap:butt;stroke-linejoin:miter;stroke-opacity:1"
           d="M 20.71875,65 31,112 H 52 L 59.552734,65 H 44.306641 L 42,78 39.484375,65 Z M 62.447266,65 70,112 H 91 L 101.28125,65 H 82.515625 L 80,78 77.693359,65 Z M 112.72852,65 100,112 h 20 l 4,-14 h 26 l 4,14 h 20 L 161.27148,65 H 142.09961 L 146,78 h -18 l 3.90039,-13 z m 70.48632,0 c 2.9076,2.494268 6.75032,4.797256 11.78516,7 6.28951,2.75166 21,6 21,14 0,5.779 -3,8 -9,8 -6,0 -13,-4.6681 -13,-13 h -21 c 0,21 9,35 32,35 16,0 33,-9 33,-31 0,-9.217377 -1.70261,-15.457272 -4.51367,-20 z"
           id="path867"
           inkscape:connector-curvature="0"
           sodipodi:nodetypes="ccccccccccccccccccccccccccccccsssccsscc"
           transform="translate(0,922.06667)" />
        <path
           style="fill:#f7eb0c;fill-opacity:1;stroke:none;stroke-width:1px;stroke-linecap:butt;stroke-linejoin:miter;stroke-opacity:1"
           d="m 205,14 c -23.89433,0.43939 -30,18 -30,31 0,8.223868 1.88253,14.567846 8.21484,20 h 50.27149 C 230.1979,59.685835 225.39132,56.695659 220,54 c -6,-3 -23,-6 -23,-12 0,-6 2.99992,-7 8,-7 7,0 11,4 11,9 h 20 C 236,27 225,14 205,14 Z M 10,16 20.71875,65 H 39.484375 L 30,16 Z m 43,0 -8.693359,49 H 59.552734 L 61,56 62.447266,65 H 77.693359 L 69,16 Z m 39,0 -9.484375,49 H 101.28125 L 112,16 Z m 34,0 -13.27148,49 h 19.17187 L 137,48 l 5.09961,17 h 19.17187 L 148,16 Z"
           transform="translate(0,922.06667)"
           id="path889"
           inkscape:connector-curvature="0"
           sodipodi:nodetypes="csccsssccccccccccccccccccccccccccccc" />
      </g>
    </g>
    <path
       style="fill:#000000;fill-opacity:1;stroke:none;stroke-width:1px;stroke-linecap:butt;stroke-linejoin:miter;stroke-opacity:1"
       d="m 247.00001,981.06667 v 24.00003 h 28 v -24.00003 z"
       id="path964"
       inkscape:connector-curvature="0"
       sodipodi:nodetypes="ccccc" />
    <g
       id="g836"
       transform="translate(-2)">
      <path
         style="color:#000000;font-style:normal;font-variant:normal;font-weight:normal;font-stretch:normal;font-size:126.24941254px;line-height:1.25;font-family:sans-serif;font-variant-ligatures:normal;font-variant-position:normal;font-variant-caps:normal;font-variant-numeric:normal;font-variant-alternates:normal;font-feature-settings:normal;text-indent:0;text-align:start;text-decoration:none;text-decoration-line:none;text-decoration-style:solid;text-decoration-color:#000000;letter-spacing:0px;word-spacing:0px;text-transform:none;writing-mode:lr-tb;direction:ltr;text-orientation:mixed;dominant-baseline:auto;baseline-shift:baseline;text-anchor:start;white-space:normal;shape-padding:0;clip-rule:nonzero;display:inline;overflow:visible;visibility:visible;opacity:1;isolation:auto;mix-blend-mode:normal;color-interpolation:sRGB;color-interpolation-filters:linearRGB;solid-color:#000000;solid-opacity:1;vector-effect:none;fill:#000000;fill-opacity:1;fill-rule:nonzero;stroke:none;stroke-width:16;stroke-linecap:butt;stroke-linejoin:miter;stroke-miterlimit:4;stroke-dasharray:none;stroke-dashoffset:0;stroke-opacity:1;color-rendering:auto;image-rendering:auto;shape-rendering:auto;text-rendering:auto;enable-background:accumulate"
         d="m 468.92578,928.06667 -0.0723,0.002 c -13.89338,0.25549 -24.31864,6.05927 -30.23434,14.01563 C 432.70344,950.04062 431,959.31422 431,967.06667 l -13.64453,-36 H 265.30273 l 24.0625,110.00003 h 158.09961 c 5.99551,3.2771 13.31552,5 21.53516,5 9.5,0 19.48062,-2.5881 27.49805,-9.002 C 504.51548,1030.6507 510,1020.1273 510,1007.0667 510,996 507.17616,987.91669 503.29492,981.34206 L 499,974.06667 h 9 v -8 c 0,-10.22549 -3.40385,-19.92769 -10.27734,-26.96484 -6.8735,-7.0372 -16.98933,-11.03516 -28.72266,-11.03516 z"
         id="path976"
         inkscape:connector-curvature="0"
         sodipodi:nodetypes="ccscccccscssccscsc" />
      <g
         transform="translate(264)"
         id="g982">
        <path
           transform="translate(0,922.06667)"
           sodipodi:nodetypes="ccccccccccccccccccccccccccccccsssccsscc"
           inkscape:connector-curvature="0"
           id="path978"
           d="M 20.71875,65 31,112 H 52 L 59.552734,65 H 44.306641 L 42,78 39.484375,65 Z M 62.447266,65 70,112 H 91 L 101.28125,65 H 82.515625 L 80,78 77.693359,65 Z M 112.72852,65 100,112 h 20 l 4,-14 h 26 l 4,14 h 20 L 161.27148,65 H 142.09961 L 146,78 h -18 l 3.90039,-13 z m 70.48632,0 c 2.9076,2.494268 6.75032,4.797256 11.78516,7 6.28951,2.75166 21,6 21,14 0,5.779 -3,8 -9,8 -6,0 -13,-4.6681 -13,-13 h -21 c 0,21 9,35 32,35 16,0 33,-9 33,-31 0,-9.217377 -1.70261,-15.457272 -4.51367,-20 z"
           style="fill:#ff0814;fill-opacity:1;stroke:none;stroke-width:1px;stroke-linecap:butt;stroke-linejoin:miter;stroke-opacity:1" />
        <path
           sodipodi:nodetypes="csccsssccccccccccccccccccccccccccccc"
           inkscape:connector-curvature="0"
           id="path980"
           transform="translate(0,922.06667)"
           d="m 205,14 c -23.89433,0.43939 -30,18 -30,31 0,8.223868 1.88253,14.567846 8.21484,20 h 50.27149 C 230.1979,59.685835 225.39132,56.695659 220,54 c -6,-3 -23,-6 -23,-12 0,-6 2.99992,-7 8,-7 7,0 11,4 11,9 h 20 C 236,27 225,14 205,14 Z M 10,16 20.71875,65 H 39.484375 L 30,16 Z m 43,0 -8.693359,49 H 59.552734 L 61,56 62.447266,65 H 77.693359 L 69,16 Z m 39,0 -9.484375,49 H 101.28125 L 112,16 Z m 34,0 -13.27148,49 h 19.17187 L 137,48 l 5.09961,17 h 19.17187 L 148,16 Z"
           style="fill:#f7eb0c;fill-opacity:1;stroke:none;stroke-width:1px;stroke-linecap:butt;stroke-linejoin:miter;stroke-opacity:1" />
      </g>
    </g>
    <path
       inkscape:connector-curvature="0"
       style="color:#000000;font-style:normal;font-variant:normal;font-weight:normal;font-stretch:normal;font-size:medium;line-height:normal;font-family:sans-serif;font-variant-ligatures:normal;font-variant-position:normal;font-variant-caps:normal;font-variant-numeric:normal;font-variant-alternates:normal;font-feature-settings:normal;text-indent:0;text-align:start;text-decoration:none;text-decoration-line:none;text-decoration-style:solid;text-decoration-color:#000000;letter-spacing:normal;word-spacing:normal;text-transform:none;writing-mode:lr-tb;direction:ltr;text-orientation:mixed;dominant-baseline:auto;baseline-shift:baseline;text-anchor:start;white-space:normal;shape-padding:0;clip-rule:nonzero;display:inline;overflow:visible;visibility:visible;opacity:1;isolation:auto;mix-blend-mode:normal;color-interpolation:sRGB;color-interpolation-filters:linearRGB;solid-color:#000000;solid-opacity:1;vector-effect:none;fill:#000000;fill-opacity:1;fill-rule:nonzero;stroke:none;stroke-width:2.20129609;stroke-linecap:square;stroke-linejoin:miter;stroke-miterlimit:4;stroke-dasharray:none;stroke-dashoffset:0;stroke-opacity:1;color-rendering:auto;image-rendering:auto;shape-rendering:auto;text-rendering:auto;enable-background:accumulate"
       d="m 1657.1878,850.5279 v 15.3274 1.10065 h 2.2013 v -1.10065 -11.16563 l 10.1295,12.26628 h 1.6208 v -15.3274 -1.10065 h -2.2013 v 1.10065 11.16123 l -10.1294,-12.26188 z m 26.2135,0 -6.6769,16.42805 h 2.3732 l 2.4808,-6.09671 h 5.6021 l 2.8075,6.09671 h 2.425 l -7.5628,-16.42805 z m 10.2154,0 v 2.20129 h 1.1006 4.7768 v 13.12611 1.10065 h 2.2013 v -1.10065 -13.12611 h 4.7722 1.1007 v -2.20129 z m 19.9794,0 v 1.10065 14.22675 1.10065 h 2.2013 v -1.10065 -14.22675 -1.10065 z m 17.5502,0 c -4.16,0 -8.1518,3.51084 -8.1518,8.21171 0,4.70087 3.9918,8.21634 8.1518,8.21634 4.1598,0 8.1517,-3.51547 8.1517,-8.21634 0,-4.70087 -3.9919,-8.21171 -8.1517,-8.21171 z m 14.1751,0 v 15.3274 1.10065 h 2.2013 v -1.10065 -11.17003 l 10.1336,12.27068 h 1.6211 v -15.3274 -1.10065 h -2.2013 v 1.10065 11.16981 l -10.1339,-12.27046 z m 26.2134,0 -6.75,16.42805 h 2.3818 l 2.5024,-6.09671 h 5.5504 0.055 l 2.7776,6.09671 h 2.4205 l -7.4896,-16.42805 z m 14.9191,0 v 1.10065 15.3274 h 11.5997 v -2.2013 h -1.1006 -8.2978 v -13.1261 -1.10065 z m -55.3076,2.20129 c 2.8908,0 5.9504,2.58256 5.9504,6.01042 0,3.42808 -3.0596,6.01504 -5.9504,6.01504 -2.8909,0 -5.9505,-2.58696 -5.9505,-6.01504 0,-3.42786 3.0596,-6.01042 5.9505,-6.01042 z m 41.1839,1.66374 1.9435,4.26501 h -3.6975 z m -88.125,0 1.9649,4.26083 h -3.6975 z"
       id="path857" />
    <path
       style="color:#000000;font-style:normal;font-variant:normal;font-weight:normal;font-stretch:normal;font-size:medium;line-height:normal;font-family:sans-serif;font-variant-ligatures:normal;font-variant-position:normal;font-variant-caps:normal;font-variant-numeric:normal;font-variant-alternates:normal;font-feature-settings:normal;text-indent:0;text-align:start;text-decoration:none;text-decoration-line:none;text-decoration-style:solid;text-decoration-color:#000000;letter-spacing:normal;word-spacing:normal;text-transform:none;writing-mode:lr-tb;direction:ltr;text-orientation:mixed;dominant-baseline:auto;baseline-shift:baseline;text-anchor:start;white-space:normal;shape-padding:0;clip-rule:nonzero;visibility:visible;opacity:1;isolation:auto;mix-blend-mode:normal;color-interpolation:sRGB;color-interpolation-filters:linearRGB;solid-color:#000000;solid-opacity:1;fill:#000000;fill-opacity:1;fill-rule:nonzero;stroke:none;stroke-width:8.80518436;stroke-linecap:butt;stroke-linejoin:round;stroke-miterlimit:4;stroke-dasharray:none;stroke-dashoffset:0;stroke-opacity:1;color-rendering:auto;image-rendering:auto;shape-rendering:auto;text-rendering:auto"
       d="m 1656.0313,870.22333 c -0.9012,2.2e-4 -1.6336,0.63442 -1.6338,1.41456 v 11.79322 c 3.7272,3.11087 6.0241,6.63317 6.5222,12.38229 v 64.82223 c 0,3.31956 -6.0148,7.69089 -6.0148,11.10532 v 1.77579 11.13547 4.40678 c 0,0.48825 0.073,0.94964 0.1937,1.3888 0.044,0.16289 0.1233,0.30157 0.1805,0.45567 0.097,0.26085 0.1893,0.52434 0.3181,0.76098 0.092,0.1673 0.2003,0.30664 0.3053,0.46007 0.1343,0.19812 0.2617,0.39646 0.4128,0.5719 0.1166,0.13648 0.2373,0.24897 0.3612,0.3696 0.1057,0.10346 0.2047,0.22673 0.3139,0.31831 l 0.8211,0.6879 220.2542,71.30548 c 1.8988,11.1454 4.9648,19.5975 8.1604,25.8008 0.6516,1.2651 1.1982,1.6681 1.8487,2.7516 h -24.0466 c -4.4025,0 -12.1535,1.9349 11.5568,18.0748 1.0267,0.7802 2.1003,1.5282 3.2762,2.2141 4.2871,2.5009 9.6014,3.9254 15.9852,3.9254 h 88.0518 c 6.3838,0 11.6982,-1.4245 15.9852,-3.9254 3.3794,-1.9713 6.0252,-4.3881 8.6117,-6.9391 l 48.9187,15.8348 v -107.2789 c -2e-4,-1.8594 -0.9853,-3.4023 -2.0853,-4.3253 L 1888.8144,873.12552 c -0.097,-0.0814 -0.1981,-0.16069 -0.2967,-0.23223 -1.2127,-0.88228 -2.5582,-1.25518 -3.9597,-1.2554 v 0 h -21.3596 c -1.4089,2.2e-4 -2.7644,0.3762 -3.9813,1.26838 -1.2167,0.89219 -1.7269,2.67018 -2.3602,4.60468 -3.8307,11.69856 -13.6923,12.32814 -21.1747,16.80205 -3.8963,-5.88318 -13.1801,-24.08967 -41.4161,-24.08967 -7.1287,0 -13.4134,2.01397 -18.4744,5.23249 -1.2891,0.81976 -2.4481,1.74584 -3.5557,2.71287 v -1.09206 -1.03615 c -3e-4,-1.33597 -0.5266,-2.48262 -1.2211,-3.37921 l -0.022,-0.077 -0.051,-0.0264 c -0.3386,-0.41957 -0.7047,-0.79621 -1.0877,-1.07489 -1.2127,-0.88228 -2.5623,-1.25959 -3.9639,-1.25981 h -5.6065 -1.866 -29.2015 c -1.4016,2.2e-4 -2.7514,0.37753 -3.9641,1.25981 -1.2127,0.88228 -2.3816,2.53215 -2.3818,4.55734 v 1.03615 l -6.5092,-5.46032 c -0.055,-0.0462 -0.1167,-0.0726 -0.1717,-0.11666 -0.2114,-0.1651 -0.4297,-0.31039 -0.6536,-0.4385 -0.084,-0.0484 -0.1651,-0.0991 -0.2494,-0.14088 -0.1101,-0.0572 -0.2265,-0.0903 -0.3397,-0.13649 -0.3478,-0.14968 -0.7002,-0.26965 -1.0619,-0.35242 -0.1277,-0.0286 -0.2507,-0.0594 -0.3784,-0.0815 -0.453,-0.077 -0.91,-0.12547 -1.3628,-0.12547 h -35.3024 -11.7032 z"
       id="path6798"
       inkscape:connector-curvature="0"
       sodipodi:nodetypes="cccccscccccccccccccccccssccccccccccsscscccccccsccccsccccccccccccc" />
    <path
       inkscape:connector-curvature="0"
       id="path860"
       d="m 1665.1328,874.62593 a 1.941988,1.4128634 0 0 0 -1.9418,1.41279 v 8.47631 a 1.941988,1.4128634 0 0 0 1.9418,1.41279 c 0,0 1.2745,0 2.7192,0.77794 1.4447,0.78828 3.1063,2.36133 3.1063,6.28558 v 72.04865 c 0,3.76729 -2.3026,5.26219 -4.7522,6.15306 -2.4496,0.8913 -4.9569,0.91068 -4.9569,0.91068 a 1.941988,1.4128634 0 0 0 -1.9417,1.41279 v 15.53983 a 1.941988,1.4128634 0 0 0 1.9417,1.41279 h 42.7195 a 1.941988,1.4128634 0 0 0 1.9418,-1.41279 v -15.53983 a 1.941988,1.4128634 0 0 0 -1.9418,-1.41279 c 0,0 -2.5073,-0.022 -4.9569,-0.91068 -2.4496,-0.89087 -4.7521,-2.38577 -4.7521,-6.15306 v -38.87467 l 40.9637,63.49264 a 1.941988,1.4128634 0 0 0 1.7557,0.81118 h 15.5346 a 1.941988,1.4128634 0 0 0 1.9417,-1.41279 v -96.06501 c 0,-3.92425 1.6613,-5.4973 3.1061,-6.28558 1.4447,-0.78828 2.7192,-0.77794 2.7192,-0.77794 a 1.941988,1.4128634 0 0 0 1.9418,-1.41279 v -8.47631 a 1.941988,1.4128634 0 0 0 -1.9418,-1.41279 h -31.0686 a 1.941988,1.4128634 0 0 0 -1.9418,1.41279 v 8.47631 a 1.941988,1.4128634 0 0 0 1.9418,1.41279 c 0,0 1.2745,0 2.7192,0.77794 1.4447,0.78828 3.106,2.36133 3.106,6.28558 v 28.4916 l -27.3442,-46.00445 a 1.941988,1.4128634 0 0 0 -1.7826,-0.85256 z m 129.1293,0 c -6.3109,0 -11.7338,1.75861 -16.1146,4.54457 -4.3808,2.78574 -7.7818,6.57439 -10.4106,10.76368 -5.2573,8.37835 -7.4562,18.38523 -7.4562,25.66073 0,10.54729 4.4482,26.89654 16.5811,35.54697 a 1.941988,1.4128634 0 0 0 1.8356,0.36146 c 2.0439,-0.37577 4.3053,-0.59039 6.8267,-0.59039 6.3815,0 10.8235,2.37894 14.2637,4.51684 a 1.941988,1.4128634 0 0 0 1.8698,0.26767 c 9.9516,-2.38994 16.5159,-9.33613 20.662,-17.10451 4.1459,-7.76859 5.9239,-16.4778 5.9239,-22.99804 0,-7.2755 -2.1988,-17.28238 -7.4562,-25.66073 -2.6286,-4.18929 -6.0298,-7.97794 -10.4106,-10.76368 -4.3808,-2.78596 -9.8037,-4.54457 -16.1146,-4.54457 z m 68.9336,1.41279 a 1.941988,1.4128634 0 0 0 -1.9417,1.4238 c 0.059,5.39163 -2.5806,9.20296 -6.6938,12.32814 -4.1131,3.12518 -9.7735,5.49223 -15.5345,7.58786 a 1.941988,1.4128634 0 0 0 -1.0731,1.26377 v 11.30167 a 1.941988,1.4128634 0 0 0 1.9417,1.4128 h 7.7671 v 55.09602 c 0,3.7673 -2.3026,5.2622 -4.752,6.15306 -2.4496,0.89109 -4.9568,0.91068 -4.9568,0.91068 a 1.941988,1.4128634 0 0 0 -1.9418,1.41257 v 14.12726 a 1.941988,1.4128634 0 0 0 1.9418,1.41279 h 58.2538 a 1.941988,1.4128634 0 0 0 1.9417,-1.41279 v -14.12726 a 1.941988,1.4128634 0 0 0 -1.9417,-1.41257 c 0,0 -2.5073,-0.022 -4.9569,-0.91068 -2.4496,-0.89086 -4.7522,-2.38576 -4.7522,-6.15306 v -89.00127 a 1.941988,1.4128634 0 0 0 -1.9417,-1.41279 z m -68.9336,12.71447 c 1.6812,0 2.7265,0.4134 3.6562,1.11473 0.9293,0.70134 1.6542,1.74475 2.1427,2.85024 0.9769,2.21098 0.9974,4.51134 0.9974,4.51134 v 35.31803 c 0,0 -0.022,2.30014 -0.9974,4.51134 -0.4885,1.10549 -1.2134,2.15177 -2.1427,2.85288 -0.9297,0.70133 -1.975,1.11209 -3.6562,1.11209 -1.6811,0 -2.7228,-0.41076 -3.6521,-1.11209 -0.9297,-0.70111 -1.6545,-1.74739 -2.1428,-2.85288 -0.9769,-2.2112 -1.0014,-4.51134 -1.0014,-4.51134 V 897.2295 c 0,0 0.024,-2.30036 1.0014,-4.51134 0.4883,-1.10549 1.2131,-2.1489 2.1428,-2.85024 0.9293,-0.70133 1.971,-1.11473 3.6521,-1.11473 z m -8.738,64.98512 c -5.3608,0 -8.8983,0.92675 -11.4952,2.38114 -2.4806,1.38946 -4.2104,3.38296 -5.7837,5.74473 a 1.941988,1.4128634 0 0 0 -0.1981,0.61526 v 9.62429 a 1.941988,1.4128634 0 0 0 1.9418,1.41279 h 3.6255 a 1.941988,1.4128634 0 0 0 1.8887,-1.07886 c 0.251,-0.75438 0.5955,-1.44955 1.1947,-2.11632 1.1972,-1.33223 3.8632,-2.45577 6.8836,-2.45577 4.9435,0 8.0497,2.45533 11.4573,4.58024 3.311,2.06481 6.7149,3.89607 11.8441,3.89607 5.3611,0 8.9023,-0.92674 11.4991,-2.38114 2.4807,-1.38946 4.2102,-3.38317 5.7837,-5.74472 a 1.941988,1.4128634 0 0 0 0.1937,-0.61527 v -9.62428 a 1.941988,1.4128634 0 0 0 -1.9417,-1.4128 h -3.6258 a 1.941988,1.4128634 0 0 0 -1.8849,1.08172 c -0.251,0.75417 -0.5953,1.44669 -1.1947,2.11347 -1.1973,1.332 -3.867,2.45576 -6.8872,2.45576 -4.9437,0 -8.0499,-2.45532 -11.4573,-4.58023 -3.3112,-2.06482 -6.7148,-3.89608 -11.8443,-3.89608 z"
       style="fill:#fff339;fill-opacity:1;stroke:none;stroke-width:4.40259218;stroke-linecap:butt;stroke-linejoin:round;stroke-miterlimit:4;stroke-dasharray:none;stroke-opacity:1" />
    <g
       transform="matrix(2.2012962,0,0,2.2012962,1633.9926,-1281.9491)"
       id="g6904">
      <path
         sodipodi:nodetypes="cccsssccccssscccc"
         inkscape:connector-curvature="0"
         d="m 90.49995,1035.3092 v 4 h -1 c 0,-3 -1,-3 -2,-3 -1,0 -2,0 -2,1 v 11 c 0,1 1,2 2,2 v 1 h -5 v -1 c 1,0 2,-1 2,-2 v -11 c 0,-1 -1,-1 -2,-1 -1,0 -2,0 -2,3 h -1 v -4 z"
         style="fill:#fff339;fill-opacity:1;stroke:#fff339;stroke-width:1px;stroke-linecap:round;stroke-linejoin:round;stroke-opacity:1"
         id="path6807" />
      <path
         transform="translate(1.49995,966.30921)"
         sodipodi:nodetypes="ccccccccccccscsccscsccccccc"
         inkscape:connector-curvature="0"
         id="path6812"
         d="m 92,69 v 1 c 1,1 1,2 1,2 v 10.000003 c 0,0 0,1 -1,2 v 1 h 9 v -4 h -1 c 0,2.000003 0,3.000003 -2,3.000003 l -2,-3e-6 c -1,0 -2,0 -2,-1 V 78 c 0,-1 1,-1 1,-1 h 2 c 1,0 2,1.000003 2,2 v -5 c 0,1.000003 -1,2 -2,2 h -2 c 0,0 -1,0 -1,-1 v -3.999997 c 0,-1 1,-1 2,-1 h 2 c 2,0 2,1 2,2.999997 h 1 v -4 z"
         style="fill:#fff339;fill-opacity:1;stroke:#fff339;stroke-width:1px;stroke-linecap:butt;stroke-linejoin:round;stroke-opacity:1" />
      <g
         id="g6914">
        <g
           id="g6908">
          <path
             sodipodi:nodetypes="ccsccccc"
             inkscape:connector-curvature="0"
             id="path6825"
             d="m 111.49995,1035.3092 h -1 l -4,13 c -0.3077,1 -1,2 -2,3 h 4 v -1 c -1,0 -1.36872,-0.8483 -1,-2 z"
             style="fill:#fff339;fill-opacity:1;stroke:#fff339;stroke-width:1px;stroke-linecap:round;stroke-linejoin:round;stroke-opacity:1" />
          <path
             style="fill:#fff339;fill-opacity:1;stroke:#fff339;stroke-width:1px;stroke-linecap:round;stroke-linejoin:round;stroke-opacity:1"
             d="m 110.49995,1035.3092 h 1 l 4,13 c 0.3077,1 1,2 2,3 h -4 v -1 c 1,0 1.36872,-0.8483 1,-2 z"
             id="path6827"
             inkscape:connector-curvature="0"
             sodipodi:nodetypes="ccsccccc" />
        </g>
        <path
           id="path6843"
           style="fill:#fff339;fill-opacity:1;stroke:#fff339;stroke-width:1px;stroke-linecap:butt;stroke-linejoin:miter;stroke-opacity:1"
           d="m 107.49995,1048.3092 c 0.5967,-1.939 1,-2 3,-2 h 1 c 2,0 2.4033,0.061 3,2 l -1.53846,-5 c 0.60608,1.9698 -0.46154,2 -1.46154,2 h -1 c -1,0 -2.06762,-0.03 -1.46154,-2 z"
           inkscape:connector-curvature="0"
           sodipodi:nodetypes="csccccscc" />
      </g>
    </g>
    <path
       id="path6869"
       style="fill:#fff339;fill-opacity:1;stroke:#fff339;stroke-width:2.20129609px;stroke-linecap:butt;stroke-linejoin:round;stroke-opacity:1"
       d="m 1982.898,1111.5405 c 11.0065,0 15.4091,-4.4026 22.013,-11.0065 h -28.6169 c 0,0 18.711,-13.2078 18.711,-59.435 H 1882.739 c 0,46.2272 18.7111,59.435 18.7111,59.435 h -28.6169 c 6.6039,6.6039 11.0065,11.0065 22.013,11.0065 z"
       inkscape:connector-curvature="0"
       sodipodi:nodetypes="ccccccccc" />
    <path
       style="opacity:1;fill:#fff339;fill-opacity:1;stroke:none;stroke-width:2.20129609px;stroke-linecap:butt;stroke-linejoin:miter;stroke-opacity:1"
       d="m 2013.9526,1041.1549 c -3.95,0.6842 -13.1651,6.4637 -20.0481,15.3532 -2.913,3.7622 -10.6461,8.6374 -12.5199,16.0283 -1.0986,4.333 9.724,11.6999 15.2026,7.4293 2.3691,-1.8464 3.3183,-4.4365 6.0536,-6.26 4.4638,-2.9757 10.8786,-1.9717 14.7901,-7.2918 3.0118,-4.0964 6.7557,-21.2568 -1.3759,-24.8333 -0.6403,-0.2815 -1.3551,-0.5551 -2.1024,-0.4257 z m -7.7629,10.8339 c 5.28,-5.3276 10.7707,0.022 7.604,6.8667 -2.143,4.6333 -5.3963,7.7532 -11.2216,9.2094 -1.1728,0.2934 -7.8131,4.0079 -7.8421,2.1326 -0.1959,-12.7294 4.4528,-11.1381 11.4597,-18.2087 z"
       id="path6874"
       inkscape:connector-curvature="0"
       sodipodi:nodetypes="sssssssssssss" />
    <rect
       style="opacity:1;fill:#374548;fill-opacity:1;fill-rule:nonzero;stroke:none;stroke-width:9.64751911;stroke-linecap:round;stroke-linejoin:round;stroke-miterlimit:4;stroke-dasharray:none;stroke-opacity:1;paint-order:stroke fill markers"
       id="rect822"
       width="798.51074"
       height="798.51074"
       x="655.25543"
       y="586.81122"
       inkscape:export-filename="/home/william/Pictures/PNG/flame.png"
       inkscape:export-xdpi="246.21832"
       inkscape:export-ydpi="246.21832" />
    <path
       style="color:#000000;font-style:normal;font-variant:normal;font-weight:normal;font-stretch:normal;font-size:medium;line-height:normal;font-family:sans-serif;font-variant-ligatures:normal;font-variant-position:normal;font-variant-caps:normal;font-variant-numeric:normal;font-variant-alternates:normal;font-feature-settings:normal;text-indent:0;text-align:start;text-decoration:none;text-decoration-line:none;text-decoration-style:solid;text-decoration-color:#000000;letter-spacing:normal;word-spacing:normal;text-transform:none;writing-mode:lr-tb;direction:ltr;text-orientation:mixed;dominant-baseline:auto;baseline-shift:baseline;text-anchor:start;white-space:normal;shape-padding:0;clip-rule:nonzero;display:inline;overflow:visible;visibility:visible;opacity:1;isolation:auto;mix-blend-mode:normal;color-interpolation:sRGB;color-interpolation-filters:linearRGB;solid-color:#000000;solid-opacity:1;vector-effect:none;fill:#ffffff;fill-opacity:1;fill-rule:nonzero;stroke:none;stroke-width:9.64752007;stroke-linecap:butt;stroke-linejoin:miter;stroke-miterlimit:4;stroke-dasharray:none;stroke-dashoffset:0;stroke-opacity:1;paint-order:stroke fill markers;color-rendering:auto;image-rendering:auto;shape-rendering:auto;text-rendering:auto;enable-background:accumulate"
       d="m 953.58863,873.82929 -6.01699,9.64124 c -10.99464,17.61734 -13.05213,32.17706 -11.04191,44.59165 -3.20442,-4.04473 -6.57334,-7.98172 -10.22541,-11.70148 l -10.38861,-10.58333 2.17632,14.67227 c 0.78,5.25838 1.08696,9.21965 1.40999,13.22128 -2.93832,-5.6565 -7.58135,-10.92999 -14.56551,-15.73366 l -14.59364,-10.04017 7.49001,16.05412 c 2.69102,5.76728 2.41992,9.62404 1.04885,13.85271 -1.37107,4.22851 -4.24491,8.66781 -6.85247,13.93424 -0.55088,1.11235 -0.89851,2.47619 -1.39118,3.68679 l -0.73498,-10.1405 -7.86047,14.46179 c -12.34433,22.71525 -15.71035,53.99866 -4.72327,80.86086 10.98692,26.8624 37.02783,48.7484 81.1559,51.174 l 10.31964,0.5652 -6.19307,-8.272 c -0.22398,-0.2994 -0.42626,-0.6253 -0.64687,-0.9327 l 0.59976,-1.2561 c 1.07136,-2.2434 3.7069,-3.7825 8.29397,-5.3358 4.5829,-1.5516 10.51885,-2.855 16.16715,-5.8317 8.10971,-4.2265 13.80926,-10.5781 17.22866,-18.265 3.4207,-7.6902 4.7182,-16.5992 4.8991,-26.5653 l 0.1415,-7.7884 c 2.5961,-5.6244 4.6065,-12.2786 5.6873,-20.33765 1.3354,-9.95528 0.4207,-23.5102 -3.3477,-32.45989 l -3.6491,-8.66765 -4.8804,7.97046 c 0.042,-0.40375 0.1806,-0.71295 0.2105,-1.12747 0.8986,-11.89427 -4.37099,-24.48589 -10.87551,-33.32977 l -8.65832,-11.77352 -0.0498,14.61568 c 0,2.28196 -0.56358,5.79928 -0.90445,7.08176 -0.48753,1.83528 -3.96883,5.7004 -7.22616,9.24248 2.35882,-9.68434 3.2197,-20.15479 -0.66584,-31.24462 -2.46237,-7.02805 -6.64039,-12.29705 -10.27557,-17.32276 -3.63519,-5.02572 -6.7732,-9.7575 -8.30652,-15.89075 z"
       id="path893"
       inkscape:connector-curvature="0"
       sodipodi:nodetypes="ccccccccccscccccccccccccccccccccccscsscc" />
    <path
       style="fill:#d40000;stroke:none;stroke-width:1.60792005px;stroke-linecap:butt;stroke-linejoin:miter;stroke-opacity:1"
       d="m 848.6971,933.00524 v 131.84946 h 44.40303 c -6.9483,-7.2056 -12.18273,-15.4505 -15.78077,-24.2476 -10.98708,-26.8622 -7.62106,-58.14561 4.72327,-80.86086 l 7.86047,-14.46501 0.73498,10.14372 c 0.49267,-1.21044 0.8403,-2.57444 1.39118,-3.68679 2.60756,-5.26643 5.4814,-9.70879 6.85247,-13.93746 0.52209,-1.61017 0.87953,-3.1676 0.97987,-4.79546 z m 128.86273,0 c 0.10612,5.64429 -0.69896,11.09401 -1.96906,16.30849 3.25748,-3.54208 6.73863,-7.4072 7.22631,-9.24248 0.34008,-1.27975 0.89433,-4.78372 0.90446,-7.06601 z m 16.81723,0 c 5.56276,8.58372 9.73384,19.79559 8.92844,30.4688 -0.031,0.41533 -0.1691,0.72582 -0.2105,1.13053 l 4.8804,-7.97046 3.6492,8.66765 c 3.7683,8.94969 4.6829,22.50477 3.3477,32.45989 -1.0749,8.01495 -3.1088,14.56905 -5.6842,20.17445 l -0.1447,7.9516 c -0.1811,9.9661 -1.4783,18.8751 -4.8992,26.5653 -2.0883,4.6946 -5.03727,8.8831 -8.85608,12.4017 H 1260.3244 V 933.00524 Z"
       id="path861"
       inkscape:connector-curvature="0"
       sodipodi:nodetypes="cccsccccscccccccccccccccccccc" />
    <path
       style="color:#000000;font-style:normal;font-variant:normal;font-weight:normal;font-stretch:normal;font-size:medium;line-height:normal;font-family:sans-serif;font-variant-ligatures:normal;font-variant-position:normal;font-variant-caps:normal;font-variant-numeric:normal;font-variant-alternates:normal;font-feature-settings:normal;text-indent:0;text-align:start;text-decoration:none;text-decoration-line:none;text-decoration-style:solid;text-decoration-color:#000000;letter-spacing:normal;word-spacing:normal;text-transform:none;writing-mode:lr-tb;direction:ltr;text-orientation:mixed;dominant-baseline:auto;baseline-shift:baseline;text-anchor:start;white-space:normal;shape-padding:0;clip-rule:nonzero;display:inline;overflow:visible;visibility:visible;opacity:1;isolation:auto;mix-blend-mode:normal;color-interpolation:sRGB;color-interpolation-filters:linearRGB;solid-color:#000000;solid-opacity:1;vector-effect:none;fill:#d40000;fill-opacity:1;fill-rule:nonzero;stroke:none;stroke-width:9.64752007;stroke-linecap:butt;stroke-linejoin:miter;stroke-miterlimit:4;stroke-dasharray:none;stroke-dashoffset:0;stroke-opacity:1;paint-order:stroke fill markers;color-rendering:auto;image-rendering:auto;shape-rendering:auto;text-rendering:auto;enable-background:accumulate"
       d="m 951.30877,902.65254 c -8.17129,20.06266 0.44716,39.18388 9.59413,56.56309 7.92753,-24.79526 5.04582,-37.48818 -9.59413,-56.56309 z m -42.63497,35.10427 c -0.72662,15.5555 -16.43069,20.33633 -6.89347,42.77935 2.04173,-15.04579 20.40981,-21.99956 6.89347,-42.77935 z m 21.82623,0.67516 c 4.4057,47.69123 -45.05955,43.54843 14.67227,130.44253 -7.66142,-39.2812 32.23429,-62.0773 -14.67227,-130.44253 z m 60.67374,8.49175 c -12.49113,19.59411 -19.48285,15.16687 -21.17615,40.07869 19.94995,-7.41235 26.9645,-18.40843 21.17615,-40.07869 z m 12.58713,35.02259 c -15.83787,23.77919 -50.15313,21.65739 -53.86534,78.38609 9.35681,-30.5259 59.14394,-22.8641 53.86534,-78.38609 z m -118.08164,1.60792 c -10.68463,46.83117 8.42277,82.25687 59.49304,95.36977 -17.37904,-18.5598 -28.65571,-45.3771 -37.08266,-66.1257 -0.16111,-0.3969 -18.55668,-21.41366 -22.41038,-29.24407 z m 112.17429,57.87887 c -8.57681,13.2552 -31.45028,10.6901 -35.88604,27.7146 6.48393,-4.349 31.85257,-5.1023 35.88604,-27.7146 z"
       id="path908"
       inkscape:connector-curvature="0"
       sodipodi:nodetypes="cccccccccccccccccccccc" />
    <path
       inkscape:connector-curvature="0"
       style="opacity:1;fill:#000000;stroke:none;stroke-width:9.64752007;stroke-linecap:butt;stroke-linejoin:miter;stroke-miterlimit:4;stroke-dasharray:none;stroke-opacity:1;paint-order:stroke fill markers"
       d="m 951.66363,886.02375 c -28.37255,45.46313 5.93821,62.92402 8.8844,94.44022 3.81849,-17.78054 17.72282,-38.25338 9.82327,-60.79948 -4.27787,-12.20958 -15.1704,-19.49153 -18.70767,-33.64074 z m -0.35486,16.62879 c 14.63995,19.07491 17.52166,31.76783 9.59413,56.56309 -9.14697,-17.37921 -17.76542,-36.50043 -9.59413,-56.56309 z m -28.44636,17.08736 c 8.51104,57.37831 -11.49727,38.32253 -14.77277,82.1044 -7.84279,-7.56717 -20.53104,-22.19072 -21.80741,-39.796 -23.23525,42.7562 -12.91562,120.2227 72.45689,124.9153 -3.22307,-4.3054 -7.35237,-10.1334 -6.63267,-15.7777 4.644,-36.4252 50.77685,-19.5692 58.08615,-74.06485 1.1966,-8.92218 0.085,-22.585 -3.0149,-29.94751 -14.91377,24.35919 -32.502,27.13092 -46.52917,43.01186 1.1577,-32.21789 -13.23238,-65.43687 -37.78612,-90.4455 z m -20.65808,2.17005 c 12.63359,27.07432 -29.23295,34.46593 2.98656,71.13165 2.20478,-23.86523 13.66362,-26.28724 13.54495,-42.49684 -0.082,-11.2138 -3.88972,-19.93998 -16.53151,-28.63481 z m 86.34097,11.09529 c -0.0161,2.89153 -0.57049,6.43152 -1.06782,8.3033 -1.26318,4.75478 -6.79137,9.64431 -10.09034,13.21823 -13.15616,14.25357 -13.45652,24.34295 -12.79117,43.34792 14.75556,-11.80117 32.28044,-12.31088 33.89833,-34.74925 0.76537,-10.08165 -4.06401,-22.1187 -9.949,-30.1202 z m -79.8715,4.75157 c 13.51634,20.77979 -4.85174,27.73356 -6.89347,42.77935 -9.53722,-22.44302 6.16685,-27.22385 6.89347,-42.77935 z m 21.82623,0.67516 c 46.90656,68.36523 7.01085,91.16133 14.67227,130.44253 -59.73182,-86.8941 -10.26657,-82.7513 -14.67227,-130.44253 z m 60.67374,8.49175 c 5.78835,21.67026 -1.2262,32.66634 -21.17615,40.07869 1.6933,-24.91182 8.68502,-20.48458 21.17615,-40.07869 z m 12.58713,35.02259 c 5.2786,55.52199 -44.50853,47.86019 -53.86534,78.38609 3.71221,-56.7287 38.02747,-54.6069 53.86534,-78.38609 z m -118.08164,1.60792 c 3.8537,7.83041 22.24927,28.84717 22.41038,29.24407 8.42695,20.7486 19.70362,47.5659 37.08266,66.1257 -51.07027,-13.1129 -70.17767,-48.5386 -59.49304,-95.36977 z m 118.64054,42.24557 c -4.78871,5.5257 -9.19152,12.1664 -15.56097,15.9881 -19.13184,10.0047 -37.09069,13.4929 -30.55675,38.0185 3.91721,-8.2031 16.82286,-8.2124 26.57779,-13.3596 14.44893,-7.525 19.19163,-21.4673 19.53993,-40.647 z m -6.46625,15.6333 c -4.03347,22.6123 -29.40211,23.3656 -35.88604,27.7146 4.43576,-17.0245 27.30923,-14.4594 35.88604,-27.7146 z"
       id="path1057" />
    <path
       inkscape:connector-curvature="0"
       style="font-style:normal;font-variant:normal;font-weight:normal;font-stretch:normal;font-size:medium;line-height:1.25;font-family:'Rama Gothic M';-inkscape-font-specification:'Rama Gothic M';letter-spacing:0px;word-spacing:0px;fill:#ffffff;fill-opacity:1;stroke:none;stroke-width:1.60792005"
       d="m 1066.9345,953.6757 v 91.281 h 16.3556 v -91.281 z m -38.2353,0.0322 v 90.9479 h 17.9259 v -45.02796 h 15.3317 v -12.93555 h -15.3317 v -20.75214 h 15.8813 V 953.7079 Z m 189.9168,15.8155 c -13.137,0 -20.2215,6.52687 -20.2214,19.44892 v 37.40608 c 0,12.9221 7.0844,19.5871 20.2214,19.5871 12.9895,0 19.9264,-6.665 19.9264,-19.5871 v -11.5664 h -16.679 v 15.4575 c 0,1.7682 -1.7901,2.7226 -3.5614,2.7226 -1.7713,0 -3.3068,-0.9544 -3.3068,-2.7226 v -20.6486 h 23.5472 v -20.64858 c 0,-12.92205 -6.9369,-19.44892 -19.9264,-19.44892 z m -59.4334,0.50247 c -6.2366,0 -10.296,3.55238 -11.783,8.66766 v -7.31411 h -16.1577 v 73.27658 h 16.0855 v -58.83987 c 0,-1.76067 1.1945,-2.57508 2.8955,-2.57508 1.7009,0 3.2535,0.81441 3.2535,2.57508 v 58.83987 h 16.6884 v -58.83987 c 0,-1.76067 1.3957,-2.57508 3.0966,-2.57508 1.7008,0 3.0525,0.81441 3.0525,2.57508 v 58.83987 h 17.2946 v -59.19152 c 0,-11.24226 -2.852,-15.43861 -10.9853,-15.43861 -6.7573,0 -10.9839,3.38419 -12.5431,7.98944 -1.8427,-5.68882 -4.5475,-7.98944 -10.8975,-7.98944 z m -50.75,0.20099 c -12.7037,0 -19.989,5.81312 -19.989,15.46996 v 10.37929 h 15.9755 v -11.63234 c 0,-1.7753 1.6412,-2.72912 3.3163,-2.72912 1.5357,0 2.5124,0.95382 2.5124,2.72912 v 6.71741 c 0,11.33962 -21.8952,6.14273 -21.8952,27.99412 v 11.8615 c 0,10.788 4.7244,14.7477 11.7044,14.7477 5.5841,0 9.054,-3.541 10.5897,-7.9108 0.2792,2.458 1.1392,5.7837 1.8372,7.0126 h 16.1923 c -1.1169,-5.1891 -1.3976,-8.7414 -1.3976,-16.7984 v -42.37108 c 0,-7.14447 -6.2817,-15.46996 -18.846,-15.46996 z m 109.9699,11.16427 c 1.7713,0 3.2599,0.81635 3.2599,2.58474 v 14.36451 h -6.2653 v -14.36451 c 0,-1.76839 1.2341,-2.58474 3.0054,-2.58474 z m -108.1547,26.68777 v 21.8576 c 0,1.7754 -0.8356,2.7323 -2.6505,2.7323 -1.6753,0 -2.5124,-0.8204 -2.5124,-2.459 v -13.7993 c 0,-4.7796 2.2313,-6.693 5.1629,-8.3316 z"
       id="path834" />
    <rect
       style="opacity:1;fill:#fee41b;fill-opacity:1;fill-rule:nonzero;stroke:none;stroke-width:1.38730299;stroke-linecap:round;stroke-linejoin:round;stroke-miterlimit:4;stroke-dasharray:none;stroke-opacity:1;paint-order:stroke fill markers"
       id="rect4815"
       width="798.5108"
       height="798.5108"
       x="2252.2769"
       y="586.81122"
       inkscape:export-xdpi="246.21834"
       inkscape:export-ydpi="246.21834"
       inkscape:export-filename="/home/william/Pictures/PNG/king.png" />
    <ellipse
       style="opacity:1;fill:#ffffff;fill-opacity:1;fill-rule:nonzero;stroke:none;stroke-width:16.64763641;stroke-linecap:round;stroke-linejoin:round;stroke-miterlimit:4;stroke-dasharray:none;stroke-opacity:1;paint-order:stroke fill markers"
       id="path25"
       cx="2651.533"
       cy="984.67932"
       rx="174.80019"
       ry="126.24458" />
    <ellipse
       ry="123.46998"
       rx="172.02559"
       cy="984.67932"
       cx="2651.533"
       id="ellipse836"
       style="opacity:1;fill:#000000;fill-opacity:1;fill-rule:nonzero;stroke:none;stroke-width:16.64763641;stroke-linecap:round;stroke-linejoin:round;stroke-miterlimit:4;stroke-dasharray:none;stroke-opacity:1;paint-order:stroke fill markers" />
    <ellipse
       style="opacity:1;fill:#de0007;fill-opacity:1;fill-rule:nonzero;stroke:none;stroke-width:16.64763641;stroke-linecap:round;stroke-linejoin:round;stroke-miterlimit:4;stroke-dasharray:none;stroke-opacity:1;paint-order:stroke fill markers"
       id="ellipse838"
       cx="2651.533"
       cy="984.67932"
       rx="158.15256"
       ry="112.37155" />
    <path
       id="path4811"
       d="m 2654.1337,879.76455 -11.0984,11.09843 5.5492,8.32381 v 16.64764 c 0,8.32382 -11.0984,11.09843 -13.873,2.77461 l -2.7746,-8.32382 2.7746,-8.32382 -8.3238,-8.32382 -5.5492,11.09843 5.5492,5.54921 v 11.09842 c 0,2.77461 -2.3454,11.09843 -5.5492,5.54922 l -5.5492,-8.32382 v -8.32382 l -11.0985,-5.54921 -2.7746,11.09842 8.3238,5.54921 5.5493,8.32382 13.873,33.29528 h 49.9429 l 13.873,-33.29528 5.5492,-8.32382 8.3239,-5.54921 -2.7746,-11.09842 -11.0985,5.54921 v 8.32382 l -5.5492,8.32382 c -3.2038,5.54921 -5.5492,-2.77461 -5.5492,-5.54922 v -11.09842 l 5.5492,-5.54921 -5.5492,-11.09843 -8.3238,8.32382 2.7746,8.32382 -2.7746,8.32382 c -2.7746,8.32382 -13.873,5.54921 -13.873,-2.77461 v -16.64764 l 5.5492,-8.32381 z m -49.9429,88.7874 v 13.87303 h 5.5492 v 77.68892 h -5.5492 v 13.8731 h 27.7461 v -13.8731 h -5.5492 v -77.68892 h 5.5492 v -13.87303 z m 36.0699,0 v 13.87303 h 5.5492 v 77.68892 h -5.5492 v 13.8731 h 22.1969 v -13.8731 h -5.5493 v -55.4921 l 24.9715,69.3652 h 13.873 l 2.7746,-91.56202 h 5.5493 v -13.87303 h -22.1969 v 13.87303 h 5.5492 l -0.9536,44.13342 -24.0178,-58.00645 z m -47.1683,2.77461 c 0,0 -9.2622,0.86234 -22.1968,5.31614 v 11.33149 l 5.5492,-2.7746 -19.4223,30.52071 v -19.42229 l 5.5492,-5.54921 v -10.89255 c -8.7189,3.70687 -18.3781,8.94727 -27.746,16.44176 v 8.32379 l 5.5492,-2.7746 v 41.6191 l -5.5492,-2.7746 v 5.5492 c 7.7408,6.1924 16.3499,12.3833 27.746,17.1299 v -8.8061 l -5.5492,-5.5492 v -19.4222 l 5.5492,-5.5492 14.7021,44.1065 c 5.59,1.3726 11.7247,2.4372 18.5932,3.0618 v -11.0985 l -5.5492,-2.7746 -16.6476,-52.7175 13.873,-19.42221 5.5492,-2.77461 z m 141.2069,7.8144 c -33.8799,0.59931 -39.0958,87.62284 -8.3726,93.63214 15.5844,3.0482 19.3354,-4.9982 28.0929,-12.6592 l 3.0348,4.4219 4.5953,0.086 3.4683,-43.3532 h -27.7461 v 5.5492 h 11.0985 v 27.7461 c -27.515,13.0331 -29.9286,-51.0275 -20.5493,-60.78135 2.7515,-2.75296 9.1223,-6.39796 12.6591,-2.86117 2.594,2.59398 6.5264,9.39402 0.4334,9.62432 l 4.6821,9.6245 19.4223,-8.3238 -5.029,-9.71113 c -1.0294,0.57185 -2.0296,1.35956 -3.2948,1.3873 -4.1639,0.0416 -5.9624,-9.69308 -13.266,-12.57257 -3.2785,-1.29241 -6.3577,-1.86065 -9.2289,-1.80988 z"
       style="fill:#000000;fill-opacity:1;stroke:#000000;stroke-width:1.38730311;stroke-linecap:butt;stroke-linejoin:round;stroke-miterlimit:4;stroke-dasharray:none;stroke-opacity:1"
       inkscape:connector-curvature="0" />
    <path
       inkscape:connector-curvature="0"
       style="fill:#fee41b;fill-opacity:1;stroke:#000000;stroke-width:1.38730311;stroke-linecap:butt;stroke-linejoin:round;stroke-miterlimit:4;stroke-dasharray:none;stroke-opacity:1"
       d="m 2651.5325,877.85701 -11.0984,11.09842 5.5492,8.32382 v 16.64764 c 0,8.32382 -11.0984,11.09843 -13.873,2.77461 l -2.7746,-8.32382 2.7746,-8.32382 -8.3238,-8.32382 -5.5492,11.09843 5.5492,5.54921 v 11.09842 c 0,2.77461 -2.3454,11.09843 -5.5492,5.54922 l -5.5492,-8.32382 v -8.32382 l -11.0985,-5.54921 -2.7746,11.09842 8.3238,5.54921 5.5493,8.32382 13.873,33.29528 h 49.9429 l 13.873,-33.29528 5.5492,-8.32382 8.3239,-5.54921 -2.7746,-11.09842 -11.0985,5.54921 v 8.32382 l -5.5492,8.32382 c -3.2038,5.54921 -5.5492,-2.77461 -5.5492,-5.54922 v -11.09842 l 5.5492,-5.54921 -5.5492,-11.09843 -8.3238,8.32382 2.7746,8.32382 -2.7746,8.32382 c -2.7746,8.32382 -13.873,5.54921 -13.873,-2.77461 v -16.64764 l 5.5492,-8.32382 z m -49.9429,88.7874 v 13.87303 h 5.5492 v 77.68896 h -5.5492 v 13.873 h 27.7461 v -13.873 h -5.5492 v -77.68896 h 5.5492 v -13.87303 z m 36.0699,0 v 13.87303 h 5.5492 v 77.68896 h -5.5492 v 13.873 h 22.1969 v -13.873 h -5.5492 v -55.4921 l 24.9714,69.3651 h 13.873 l 2.7746,-91.56196 h 5.5493 v -13.87303 h -22.1969 v 13.87303 h 5.5492 l -0.9536,44.13346 -24.0178,-58.00649 z m -47.1683,2.7746 c 0,0 -9.2622,0.86235 -22.1968,5.31615 v 11.33149 l 5.5492,-2.7746 -19.4223,30.52065 v -19.42223 l 5.5492,-5.54921 v -10.89255 c -8.7189,3.70687 -18.3781,8.94727 -27.746,16.44176 v 8.32383 l 5.5492,-2.77462 v 41.61912 l -5.5492,-2.7746 v 5.5492 c 7.7409,6.1926 16.3499,12.3833 27.746,17.1298 v -8.806 l -5.5492,-5.5492 v -19.4223 l 5.5492,-5.5492 14.7021,44.1065 c 5.59,1.3726 11.7247,2.4372 18.5932,3.0618 v -11.0984 l -5.5492,-2.7746 -16.6476,-52.7175 13.873,-19.42225 5.5492,-2.77461 z m 141.2069,7.81441 c -33.8799,0.59931 -39.0958,87.62288 -8.3726,93.63208 15.5844,3.0482 19.3354,-4.9981 28.0929,-12.6591 l 3.0348,4.4219 4.5953,0.086 3.4683,-43.3532 h -27.7461 v 5.5492 h 11.0985 v 27.746 c -27.515,13.0332 -29.9286,-51.0272 -20.5493,-60.78101 2.7515,-2.75296 9.1223,-6.39824 12.6591,-2.86145 2.594,2.59398 6.5264,9.39426 0.4334,9.62455 l 4.6822,9.62431 19.4222,-8.32385 -5.029,-9.71112 c -1.0294,0.57185 -2.0296,1.35956 -3.2948,1.3873 -4.1639,0.0416 -5.9624,-9.69281 -13.266,-12.57229 -3.2784,-1.29269 -6.3577,-1.86093 -9.2289,-1.81016 z"
       id="path28" />
    <rect
       style="opacity:1;fill:#e00017;fill-opacity:1;fill-rule:nonzero;stroke:none;stroke-width:6.17084599;stroke-linecap:round;stroke-linejoin:round;stroke-miterlimit:4;stroke-dasharray:none;stroke-opacity:1;paint-order:stroke fill markers"
       id="rect959"
       width="798.5108"
       height="798.5108"
       x="3050.7876"
       y="586.81122"
       inkscape:export-filename="/home/william/Pictures/PNG/777.png"
       inkscape:export-xdpi="246.21834"
       inkscape:export-ydpi="246.21834" />
    <g
       transform="matrix(1.8600251,0,0,1.8600251,3211.9601,-848.04216)"
       id="g918">
      <g
         id="g846">
        <path
           style="fill:#000000;stroke:#000000;stroke-width:2;stroke-linecap:butt;stroke-linejoin:round;stroke-miterlimit:4;stroke-dasharray:none;stroke-opacity:1"
           d="m 58,1002.0667 c -1.56986,-15.70451 9.67074,-50.39808 29,-66.00003 l -2,-4 H 40 l -11,20 3,4 h 10 l 5,-9 h 11 c -10.742476,15.39999 -19.317506,37.8754 -23,50 l 4,5.00003 z"
           id="path25-5"
           inkscape:connector-curvature="0"
           sodipodi:nodetypes="cccccccccccc" />
        <path
           style="fill:#ffffff;stroke:#ffffff;stroke-width:2;stroke-linecap:butt;stroke-linejoin:round;stroke-miterlimit:4;stroke-dasharray:none;stroke-opacity:1"
           d="m 52,996.06667 c 1.784814,-21.35108 12.551456,-44.48299 28,-62 H 41 l -9,17 h 8 l 5,-9 h 19 c -12.499097,15.13737 -23.757916,43.07123 -27,54 z"
           id="path842"
           inkscape:connector-curvature="0"
           sodipodi:nodetypes="ccccccccc" />
      </g>
      <g
         transform="translate(66)"
         id="g852">
        <path
           sodipodi:nodetypes="cccccccccccc"
           inkscape:connector-curvature="0"
           id="path848"
           d="m 58,1002.0667 c -1.56986,-15.70451 9.67074,-50.39808 29,-66.00003 l -2,-4 H 40 l -11,20 3,4 h 10 l 5,-9 h 11 c -10.742476,15.39999 -19.317506,37.8754 -23,50 l 4,5.00003 z"
           style="fill:#000000;stroke:#000000;stroke-width:2;stroke-linecap:butt;stroke-linejoin:round;stroke-miterlimit:4;stroke-dasharray:none;stroke-opacity:1" />
        <path
           sodipodi:nodetypes="ccccccccc"
           inkscape:connector-curvature="0"
           id="path850"
           d="m 52,996.06667 c 1.784814,-21.35108 12.551456,-44.48299 28,-62 H 41 l -9,17 h 8 l 5,-9 h 19 c -12.499097,15.13737 -23.757916,43.07123 -27,54 z"
           style="fill:#ffffff;stroke:#ffffff;stroke-width:2;stroke-linecap:butt;stroke-linejoin:round;stroke-miterlimit:4;stroke-dasharray:none;stroke-opacity:1" />
      </g>
      <g
         id="g858"
         transform="translate(134)">
        <path
           style="fill:#000000;stroke:#000000;stroke-width:2;stroke-linecap:butt;stroke-linejoin:round;stroke-miterlimit:4;stroke-dasharray:none;stroke-opacity:1"
           d="m 58,1002.0667 c -1.56986,-15.70451 9.67074,-50.39808 29,-66.00003 l -2,-4 H 40 l -11,20 3,4 h 10 l 5,-9 h 11 c -10.742476,15.39999 -19.317506,37.8754 -23,50 l 4,5.00003 z"
           id="path854"
           inkscape:connector-curvature="0"
           sodipodi:nodetypes="cccccccccccc" />
        <path
           style="fill:#ffffff;stroke:#ffffff;stroke-width:2;stroke-linecap:butt;stroke-linejoin:round;stroke-miterlimit:4;stroke-dasharray:none;stroke-opacity:1"
           d="m 52,996.06667 c 1.784814,-21.35108 12.551456,-44.48299 28,-62 H 41 l -9,17 h 8 l 5,-9 h 19 c -12.499097,15.13737 -23.757916,43.07123 -27,54 z"
           id="path856"
           inkscape:connector-curvature="0"
           sodipodi:nodetypes="ccccccccc" />
      </g>
    </g>
    <g
       transform="matrix(1.8600251,0,0,1.8600251,3211.9601,-848.04216)"
       id="g866">
      <path
         sodipodi:nodetypes="csccc"
         inkscape:connector-curvature="0"
         id="path860-3"
         d="m 10,928.06667 c -7.3768925,6.69618 -8.9580662,14.54064 -2,15 6.024917,0.39776 5.472909,-8.37876 1,-9 1,-2 3,-4 3,-4 z"
         style="fill:#f1dd2f;fill-opacity:1;stroke:#000000;stroke-width:1px;stroke-linecap:butt;stroke-linejoin:round;stroke-opacity:1" />
      <path
         style="fill:#f1dd2f;fill-opacity:1;stroke:#000000;stroke-width:1px;stroke-linecap:butt;stroke-linejoin:round;stroke-opacity:1"
         d="m 23,928.06667 c -7.376892,6.69618 -8.958066,14.54064 -2,15 6.024917,0.39776 5.472909,-8.37876 1,-9 1,-2 3,-4 3,-4 z"
         id="path862"
         inkscape:connector-curvature="0"
         sodipodi:nodetypes="csccc" />
    </g>
    <g
       id="g872"
       transform="matrix(-1.8600251,0,0,-1.8600251,3688.1263,2632.3365)">
      <path
         style="fill:#f1dd2f;fill-opacity:1;stroke:#000000;stroke-width:1px;stroke-linecap:butt;stroke-linejoin:round;stroke-opacity:1"
         d="m 10,928.06667 c -7.3768925,6.69618 -8.9580662,14.54064 -2,15 6.024917,0.39776 5.472909,-8.37876 1,-9 1,-2 3,-4 3,-4 z"
         id="path868"
         inkscape:connector-curvature="0"
         sodipodi:nodetypes="csccc" />
      <path
         sodipodi:nodetypes="csccc"
         inkscape:connector-curvature="0"
         id="path870"
         d="m 23,928.06667 c -7.376892,6.69618 -8.958066,14.54064 -2,15 6.024917,0.39776 5.472909,-8.37876 1,-9 1,-2 3,-4 3,-4 z"
         style="fill:#f1dd2f;fill-opacity:1;stroke:#000000;stroke-width:1px;stroke-linecap:butt;stroke-linejoin:round;stroke-opacity:1" />
    </g>
    <g
       transform="matrix(1.8600251,0,0,1.8600251,3211.9601,-848.04216)"
       id="g931">
      <path
         sodipodi:nodetypes="csccssccsscsscc"
         inkscape:connector-curvature="0"
         id="path876"
         d="m 44.031252,1024.2229 c -1.394571,-1.7538 -1.952699,-3.6883 -0.90625,-5.7812 3.169094,-6.3382 10.081744,-2.2026 15.125001,-4.0938 -0.591864,1.4137 -2.10433,2.5842 -2.40625,4.0938 -1.09953,7.4219 3.547743,14.8179 -6.468751,18.2812 -1.781722,0.616 -4.514414,1.1647 -6.40625,0.2188 -4.685146,-2.3426 -1.773141,-8.8042 3.46875,-8.1875 -0.01432,0.9364 0.04408,1.9066 -0.0625,2.8125 -7.16096,-1.3942 -5.500295,7.3409 0.75,4.9375 8.994641,-3.4587 5.221767,-9.2405 6.0625,-13.6875 0.425261,-2.2494 2.140608,-3.9529 2.281251,-6.3438 -0.895424,0.6826 -1.874594,0.9999 -2.906251,1.3438 -1.10659,0.3688 -2.931832,-1.9702 -4.8125,-1.5 -3.154024,0.7885 -3.50545,4.1925 -1.0625,5.9375 -0.421489,1.0632 -1.656942,1.594 -2.65625,1.9687 z"
         style="fill:#f1dd2f;fill-opacity:1;stroke:none;stroke-width:1px;stroke-linecap:butt;stroke-linejoin:round;stroke-opacity:1" />
      <path
         sodipodi:nodetypes="cccccccccccccccc"
         inkscape:connector-curvature="0"
         id="path880"
         d="m 60.258759,1018.6667 c 1.242295,-1.2909 2.743176,-2.1331 3.911184,-3.5134 0.01481,2.3163 -0.0221,4.638 -0.0221,6.9606 1.317358,-1.3896 3.383214,-2.54 4.772974,-3.8228 0.160788,0.6572 2.707456,2.6574 1.303728,2.74 -0.05037,2.3062 -0.03977,4.7257 0.110486,7.6014 0.413782,0.5542 1.098929,0.6638 1.613087,0.9723 -0.669639,0.8046 -1.588961,1.156 -2.276,1.9003 -0.876304,-0.5838 -1.87027,-1.1654 -2.828427,-1.5247 0.02417,-2.1455 0.157672,-4.6899 0.110485,-8.1096 -1.332942,0.3337 -2.273036,0.7256 -2.80633,1.9445 0.225045,2.0144 0.2036,4.0511 0.441942,5.9883 -0.943137,0.5921 -2.104319,1.3996 -3.204078,1.812 0.216003,-0.5339 0.274538,-0.9354 -0.04419,-1.37 -0.03619,-1.3621 0.294229,-10.5996 -0.0221,-10.916 -0.432269,-0.4322 -0.612714,-0.6365 -1.060661,-0.6629 z"
         style="fill:#f1dd2f;fill-opacity:1;stroke:none;stroke-width:1px;stroke-linecap:butt;stroke-linejoin:miter;stroke-opacity:1" />
      <path
         sodipodi:nodetypes="ccccccccccccccc"
         inkscape:connector-curvature="0"
         id="path884"
         d="m 73.539109,1022.5337 c 1.842034,-2.8538 3.464952,-3.4213 4.883456,-5.2591 0.349098,1.0075 0.203444,2.1045 0.375651,3.1378 3.05869,-2.597 2.278805,-1.604 3.889087,-3.1157 0.407781,0.9471 2.147375,1.3524 2.629554,3.0715 -0.206799,1.1176 -1.095525,3.5816 -2.600525,4.9308 -0.134718,-1.1104 -0.267317,-2.6353 -0.29419,-3.8702 -0.360001,-0.3436 -0.901819,-0.9127 -1.568897,-1.2816 -1.133261,1.2215 -0.796106,0.6553 -2.585359,2.3423 0.331626,2.7574 0.343653,4.6585 0.353553,5.922 0.471211,1.5784 1.735426,0.9495 2.386485,0.6408 -0.658132,0.6299 -1.808468,2.0837 -3.159883,2.4307 -1.175979,-1.1466 -1.50544,-1.3846 -2.165515,-1.9224 0.0054,-3.249 0.0052,-6.4641 -0.176776,-8.0434 -0.604029,0.4191 -1.57073,0.5486 -1.966641,1.0165 z"
         style="fill:#f1dd2f;fill-opacity:1;stroke:none;stroke-width:1px;stroke-linecap:butt;stroke-linejoin:miter;stroke-opacity:1" />
      <path
         sodipodi:nodetypes="ccccccccccccccc"
         inkscape:connector-curvature="0"
         id="path886"
         transform="translate(0,922.06667)"
         d="m 94.375,94.25 c -1.161197,2.1772 -4.119794,3.11495 -5.96875,4.65625 0.266937,2.269 0.06925,4.6949 0.375,6.9375 1.298473,1.1986 2.601811,2.2362 4.1875,2.8125 1.499394,-1.1781 3.083499,-2.30245 4.53125,-3.53125 -0.143912,-0.2399 -0.32182,-0.42795 -0.40625,-0.71875 -1.300529,0.6503 -2.605527,1.4618 -3.96875,2.0625 -0.735369,-0.3217 -1.352893,-0.7501 -1.875,-1.4375 2.023255,-2.1918 4.596687,-3.895 6.5,-6.0625 C 96.755092,97.31055 94.88282,96.1498 94.375,94.25 Z M 92.75,97.5 c 0.44599,0.922839 1.289043,1.844133 1.65625,3.09375 -0.903874,0.6026 -1.9413,1.37535 -2.90625,1.96875 0,-1.4302 0.182081,-2.95265 -0.1875,-4.28125 C 91.815045,98.07435 92.21254,97.6835 92.75,97.5 Z"
         style="fill:#f1dd2f;fill-opacity:1;stroke:none;stroke-width:1px;stroke-linecap:butt;stroke-linejoin:miter;stroke-opacity:1" />
      <path
         style="fill:#f1dd2f;fill-opacity:1;stroke:none;stroke-width:1px;stroke-linecap:butt;stroke-linejoin:miter;stroke-opacity:1"
         d="m 106.78125,1016.3167 c -1.1612,2.1772 -4.11979,3.1149 -5.96875,4.6562 0.26694,2.269 0.0692,4.6949 0.375,6.9375 1.29847,1.1986 2.60181,2.2362 4.1875,2.8125 1.49939,-1.1781 3.0835,-2.3024 4.53125,-3.5312 -0.14391,-0.2399 -0.32182,-0.428 -0.40625,-0.7188 -1.30053,0.6503 -2.60553,1.4618 -3.96875,2.0625 -0.73537,-0.3217 -1.35289,-0.7501 -1.875,-1.4375 2.02326,-2.1918 4.59669,-3.895 6.5,-6.0625 -0.99491,-1.6582 -2.86718,-2.8189 -3.375,-4.7187 z m -1.625,3.25 c 0.44599,0.9228 1.28904,1.8441 1.65625,3.0937 -0.90387,0.6026 -1.9413,1.3754 -2.90625,1.9688 0,-1.4302 0.18208,-2.9527 -0.1875,-4.2813 0.50255,-0.2069 0.90004,-0.5977 1.4375,-0.7812 z"
         id="path891"
         inkscape:connector-curvature="0"
         sodipodi:nodetypes="ccccccccccccccc" />
      <path
         sodipodi:nodetypes="ccsscsssccccc"
         inkscape:connector-curvature="0"
         id="path893-5"
         d="m 131.03573,1012.8994 c -2.64771,3.2653 -6.47656,5.3341 -9.94369,7.6456 5.03742,2.4087 14.55219,3.4349 12.59534,8.8388 -1.6967,4.6855 -11.57489,3.3191 -12.33017,-0.088 -1.0594,-4.7791 4.53725,-3.7599 6.54073,-1.8561 -0.96391,-1.7199 -3.90211,-3.6953 -6.67332,-2.6521 -5.17223,1.9471 0.38527,6.8453 2.74004,7.8224 3.4999,1.4523 13.60512,0.5003 11.22532,-6.9385 -1.10444,-3.4523 -7.05284,-4.3638 -9.98788,-5.7453 0.85027,-1.6927 2.81123,-2.884 4.19845,-3.6239 1.84244,1.6018 4.25896,2.3583 3.93328,5.1265 1.03624,-0.8262 2.17423,-1.7432 3.44714,-2.3422 -2.57218,-1.5286 -4.3806,-3.6286 -5.74524,-6.1872 z"
         style="fill:#f1dd2f;fill-opacity:1;stroke:none;stroke-width:1px;stroke-linecap:butt;stroke-linejoin:miter;stroke-opacity:1" />
      <path
         sodipodi:nodetypes="ccccccccccccccc"
         inkscape:connector-curvature="0"
         id="path895"
         d="m 147.34375,1016.3167 c -1.1612,2.1772 -4.11979,3.1149 -5.96875,4.6562 0.26694,2.269 0.0692,4.6949 0.375,6.9375 1.29847,1.1986 2.60181,2.2362 4.1875,2.8125 1.49939,-1.1781 3.0835,-2.3024 4.53125,-3.5312 -0.14391,-0.2399 -0.32182,-0.428 -0.40625,-0.7188 -1.30053,0.6503 -2.60553,1.4618 -3.96875,2.0625 -0.73537,-0.3217 -1.35289,-0.7501 -1.875,-1.4375 2.02326,-2.1918 4.59669,-3.895 6.5,-6.0625 -0.99491,-1.6582 -2.86718,-2.8189 -3.375,-4.7187 z m -1.625,3.25 c 0.44599,0.9228 1.28904,1.8441 1.65625,3.0937 -0.90387,0.6026 -1.9413,1.3754 -2.90625,1.9688 0,-1.4302 0.18208,-2.9527 -0.1875,-4.2813 0.50255,-0.2069 0.90004,-0.5977 1.4375,-0.7812 z"
         style="fill:#f1dd2f;fill-opacity:1;stroke:none;stroke-width:1px;stroke-linecap:butt;stroke-linejoin:miter;stroke-opacity:1" />
      <path
         style="fill:#f1dd2f;fill-opacity:1;stroke:none;stroke-width:1px;stroke-linecap:butt;stroke-linejoin:miter;stroke-opacity:1"
         d="m 173.81606,1016.3167 c -1.1612,2.1772 -4.11979,3.1149 -5.96875,4.6562 0.26694,2.269 0.0692,4.6949 0.375,6.9375 1.29847,1.1986 2.60181,2.2362 4.1875,2.8125 1.49939,-1.1781 3.0835,-2.3024 4.53125,-3.5312 -0.14391,-0.2399 -0.32182,-0.428 -0.40625,-0.7188 -1.30053,0.6503 -2.60553,1.4618 -3.96875,2.0625 -0.73537,-0.3217 -1.35289,-0.7501 -1.875,-1.4375 2.02326,-2.1918 4.59669,-3.895 6.5,-6.0625 -0.99491,-1.6582 -2.86718,-2.8189 -3.375,-4.7187 z m -1.625,3.25 c 0.44599,0.9228 1.28904,1.8441 1.65625,3.0937 -0.90387,0.6026 -1.9413,1.3754 -2.90625,1.9688 0,-1.4302 0.18208,-2.9527 -0.1875,-4.2813 0.50255,-0.2069 0.90004,-0.5977 1.4375,-0.7812 z"
         id="path897"
         inkscape:connector-curvature="0"
         sodipodi:nodetypes="ccccccccccccccc" />
      <path
         sodipodi:nodetypes="ccccccccccccccc"
         inkscape:connector-curvature="0"
         id="path899"
         d="m 173.81606,1016.3167 c -1.1612,2.1772 -4.11979,3.1149 -5.96875,4.6562 0.26694,2.269 0.0692,4.6949 0.375,6.9375 1.29847,1.1986 2.60181,2.2362 4.1875,2.8125 1.49939,-1.1781 3.0835,-2.3024 4.53125,-3.5312 -0.14391,-0.2399 -0.32182,-0.428 -0.40625,-0.7188 -1.30053,0.6503 -2.60553,1.4618 -3.96875,2.0625 -0.73537,-0.3217 -1.35289,-0.7501 -1.875,-1.4375 2.02326,-2.1918 4.59669,-3.895 6.5,-6.0625 -0.99491,-1.6582 -2.86718,-2.8189 -3.375,-4.7187 z m -1.625,3.25 c 0.44599,0.9228 1.28904,1.8441 1.65625,3.0937 -0.90387,0.6026 -1.9413,1.3754 -2.90625,1.9688 0,-1.4302 0.18208,-2.9527 -0.1875,-4.2813 0.50255,-0.2069 0.90004,-0.5977 1.4375,-0.7812 z"
         style="fill:#f1dd2f;fill-opacity:1;stroke:none;stroke-width:1px;stroke-linecap:butt;stroke-linejoin:miter;stroke-opacity:1" />
      <path
         inkscape:connector-curvature="0"
         id="path903"
         d="m 153.88412,1022.0696 c 1.51088,-1.4719 3.30173,-2.621 5.03814,-3.7786 0.33374,2.4151 1.09229,4.9814 2.82842,6.7176 2.24697,-3.4974 3.50445,-7.0285 1.74567,-11.0486 4.65411,5.5623 -0.22849,12.4924 -4.61829,16.8822 -0.71459,-1.3619 -2.8762,-8.8185 -3.53553,-9.1482 -0.38362,-0.1918 -1.15338,0.268 -1.45841,0.3756 z"
         style="fill:#f1dd2f;fill-opacity:1;stroke:none;stroke-width:1px;stroke-linecap:butt;stroke-linejoin:miter;stroke-opacity:1" />
      <path
         sodipodi:nodetypes="ccccccccccccccccccc"
         inkscape:connector-curvature="0"
         id="path907"
         d="m 179.40626,1019.0042 c 0.81137,-1.0974 1.60022,-1.7831 2.96875,-3.1875 0.46477,0.8427 0.6366,1.3058 1.625,2.375 1.08881,-1.0284 1.47771,-1.7155 2.3125,-2.0625 1.93507,0.9861 2.29334,1.2154 3.375,1.5937 -0.17004,0.2706 -0.41149,0.5769 -0.625,0.8438 0.11777,2.668 0.0111,5.9241 0.3125,8.0312 0.43975,-0.2595 1.0448,-0.7099 1.3125,-0.8437 -0.38187,1.103 -0.98152,2.5397 -1.71875,3.4687 -1.22889,-0.4439 -1.91987,-1.4269 -3.25,-2.4375 0.48876,-0.2007 0.64449,-0.4219 0.90625,-0.625 0.15433,-2.1716 -0.27787,-4.2484 -0.15625,-6.4375 -0.37164,-0.3516 -0.74681,-0.6693 -1.1875,-0.9687 -0.69763,0.7054 -1.55465,1.265 -2.3125,1.9687 0.45315,3.2565 0.0897,5.3416 0.5625,7.4063 -0.82517,0.5328 -1.67179,1.079 -2.53125,1.5625 -0.43741,-0.4863 -0.75847,-1.1323 -1.125,-1.7188 0.9659,-0.4802 0.51725,-5.6855 0.4375,-8.4375 -0.37038,-0.1317 -0.66756,-0.3562 -0.90625,-0.5312 z"
         style="fill:#f1dd2f;fill-opacity:1;stroke:none;stroke-width:1px;stroke-linecap:butt;stroke-linejoin:miter;stroke-opacity:1" />
    </g>
    <text
       xml:space="preserve"
       style="font-style:normal;font-weight:normal;font-size:28.09016609px;line-height:1.25;font-family:sans-serif;letter-spacing:0px;word-spacing:0px;fill:#f1dd2f;fill-opacity:1;stroke:none;stroke-width:0.70225412"
       x="2333.5642"
       y="1582.0497"
       id="text941"
       transform="scale(1.4464882,0.69132952)"><tspan
         sodipodi:role="line"
         id="tspan939"
         x="2333.5642"
         y="1582.0497"
         style="font-style:normal;font-variant:normal;font-weight:normal;font-stretch:normal;font-family:sans-serif;-inkscape-font-specification:sans-serif;fill:#f1dd2f;fill-opacity:1;stroke-width:0.70225412">B</tspan></text>
    <text
       transform="scale(1.426371,0.70107988)"
       id="text945"
       y="1560.0469"
       x="2385.4539"
       style="font-style:normal;font-weight:normal;font-size:27.69949532px;line-height:1.25;font-family:sans-serif;letter-spacing:0px;word-spacing:0px;fill:#f1dd2f;fill-opacity:1;stroke:none;stroke-width:0.69248742"
       xml:space="preserve"><tspan
         style="font-style:normal;font-variant:normal;font-weight:normal;font-stretch:normal;font-family:sans-serif;-inkscape-font-specification:sans-serif;fill:#f1dd2f;fill-opacity:1;stroke-width:0.69248742"
         y="1560.0469"
         x="2385.4539"
         id="tspan943"
         sodipodi:role="line">R</tspan></text>
    <text
       xml:space="preserve"
       style="font-style:normal;font-weight:normal;font-size:28.24153519px;line-height:1.25;font-family:sans-serif;letter-spacing:0px;word-spacing:0px;fill:#f1dd2f;fill-opacity:1;stroke:none;stroke-width:0.70603842"
       x="2356.7588"
       y="1590.5747"
       id="text949"
       transform="scale(1.454283,0.68762407)"><tspan
         sodipodi:role="line"
         id="tspan947"
         x="2356.7588"
         y="1590.5747"
         style="font-style:normal;font-variant:normal;font-weight:normal;font-stretch:normal;font-family:sans-serif;-inkscape-font-specification:sans-serif;fill:#f1dd2f;fill-opacity:1;stroke-width:0.70603842">A</tspan></text>
    <text
       transform="scale(1.2856213,0.77783404)"
       id="text953"
       y="1406.1064"
       x="2686.3164"
       style="font-style:normal;font-weight:normal;font-size:24.96619797px;line-height:1.25;font-family:sans-serif;letter-spacing:0px;word-spacing:0px;fill:#f1dd2f;fill-opacity:1;stroke:none;stroke-width:0.62415493"
       xml:space="preserve"><tspan
         style="font-style:normal;font-variant:normal;font-weight:normal;font-stretch:normal;font-family:sans-serif;-inkscape-font-specification:sans-serif;fill:#f1dd2f;fill-opacity:1;stroke-width:0.62415493"
         y="1406.1064"
         x="2686.3164"
         id="tspan951"
         sodipodi:role="line">N</tspan></text>
    <text
       xml:space="preserve"
       style="font-style:normal;font-weight:normal;font-size:27.69949532px;line-height:1.25;font-family:sans-serif;letter-spacing:0px;word-spacing:0px;fill:#f1dd2f;fill-opacity:1;stroke:none;stroke-width:0.69248742"
       x="2436.4333"
       y="1560.0469"
       id="text957"
       transform="scale(1.426371,0.70107988)"><tspan
         sodipodi:role="line"
         id="tspan955"
         x="2436.4333"
         y="1560.0469"
         style="font-style:normal;font-variant:normal;font-weight:normal;font-stretch:normal;font-family:sans-serif;-inkscape-font-specification:sans-serif;fill:#f1dd2f;fill-opacity:1;stroke-width:0.69248742">D</tspan></text>
    <rect
       style="opacity:1;fill:#b7c4c8;fill-opacity:1;fill-rule:nonzero;stroke:none;stroke-width:3.81834197;stroke-linecap:round;stroke-linejoin:round;stroke-miterlimit:4;stroke-dasharray:none;stroke-opacity:1;paint-order:stroke fill markers"
       id="rect933"
       width="798.5108"
       height="798.5108"
       x="3849.2983"
       y="586.81122"
       inkscape:export-filename="/home/william/Pictures/PNG/trukai.png"
       inkscape:export-xdpi="246.218"
       inkscape:export-ydpi="246.218" />
    <path
       style="fill:#ffff10;fill-opacity:1;stroke:none;stroke-width:5.29866457;stroke-linecap:round;stroke-linejoin:round;stroke-miterlimit:4;stroke-dasharray:none;stroke-opacity:1"
       d="m 4280.1588,820.91284 c -0.897,-0.0405 -1.7535,0.37604 -2.2755,1.1067 -11.4072,16.00143 -24.573,41.42969 -31.6219,65.02375 -7.0488,-23.59406 -20.2147,-49.02232 -31.6219,-65.02375 -1.8154,-2.53929 -5.7617,-0.39767 -4.6221,2.50832 5.071,12.88142 12.2107,26.50399 15.8307,40.3027 -0.6683,-1.23558 -1.2112,-2.15798 -1.9042,-3.45979 -2.0644,-3.8782 -4.1775,-7.90442 -5.9959,-11.24672 -1.8184,-3.3423 -3.1815,-5.83668 -4.3848,-7.351 -1.9812,-2.48892 -5.8645,-0.0126 -4.4435,2.83369 4.9831,9.95818 10.1628,20.88164 13.1024,31.781 -2.5748,-3.13824 -5.6427,-6.03896 -9.6181,-7.88333 -2.9132,-1.35046 -5.2685,2.67467 -2.6642,4.55288 1.9027,1.37103 4.3998,4.29368 6.8271,7.77533 -3.5655,-3.71509 -8.2895,-6.45891 -13.6451,-6.28054 -0.5836,0.0212 -1.1439,0.23437 -1.5937,0.6067 -1.2032,-1.25244 -2.5254,-2.4309 -3.9249,-3.50245 -5.2174,-3.99477 -11.86,-6.76392 -17.6663,-4.15899 -2.5561,1.14888 -1.8116,4.96163 0.989,5.06449 1.709,0.0618 3.6504,0.54289 5.1725,1.36219 0.2325,0.12518 0.4323,0.26722 0.6423,0.40426 -0.2898,0.17442 -0.5926,0.32335 -0.8544,0.55043 -0.5377,0.46648 -0.9348,1.05884 -1.262,1.69723 -2.1963,-1.46704 -4.9011,-3.38065 -7.7229,-4.73982 -2.1778,-1.04897 -4.6041,-1.84351 -7.1925,-1.23476 -1.657,0.38972 -3.1085,1.47207 -4.3,2.98891 -4.5537,-3.07925 -10.0542,-3.87369 -15.2867,-3.67386 -2.9753,0.11574 -3.527,4.29364 -0.6837,5.17769 -0.1933,0.1266 -0.4068,0.21681 -0.5905,0.35965 -1.1301,0.87868 -1.9901,2.05621 -2.6028,3.40479 -4.4887,-1.83344 -9.4908,-1.01496 -13.9439,0.86931 -2.2012,0.93544 -2.1342,4.07815 0.1048,4.91898 -0.4128,0.74191 -0.7286,1.53681 -0.9269,2.37834 -2.5109,-0.6826 -5.2136,-0.92217 -7.8768,-0.48446 -4.0572,0.66677 -8.1091,3.07329 -9.9402,7.53662 -1.135,2.76822 2.4709,5.00154 4.4436,2.75216 0.5051,-0.57637 1.2078,-1.16051 1.9643,-1.65001 -1.5814,1.85874 -2.7863,4.0503 -3.333,6.62012 -5.7117,2.40576 -10.5508,7.09399 -11.6238,13.5209 -6.321,2.34089 -12.7697,6.44669 -16.4943,13.26478 -1.4648,2.68132 2.0223,5.30307 4.1914,3.15125 0.5074,-0.50354 1.084,-0.97992 1.6868,-1.42879 0.2002,0.7601 0.4702,1.47518 0.8441,2.06526 0.4846,0.76486 1.0364,1.41 1.5899,2.00187 -2.3579,1.75299 -4.48,4.08586 -5.725,6.76821 -0.8933,1.92481 -1.3529,4.30159 -0.2509,6.49269 0.6702,1.33261 1.8489,2.30127 3.3149,3.00573 -2.9459,5.42931 -9.2902,11.88186 -14.4957,14.62306 -2.5874,1.36457 -1.3804,5.2986 1.5272,4.9772 4.1389,-0.45983 7.6835,-2.86459 10.8482,-5.56257 1.0675,-0.90995 2.0308,-1.87894 3.0129,-2.83625 -0.2966,0.42234 -0.5843,0.83954 -0.9909,1.30589 -2.2523,2.58314 -6.1267,5.74425 -9.4415,10.99318 -1.6268,2.58038 1.6779,5.41397 3.9798,3.41257 4.9981,-4.35338 10.5563,-8.84056 14.8359,-14.39538 9.0325,-1.90259 6.8275,6.92804 7.5858,13.53256 l -8.4939,8.59284 c -1.654,1.67349 -0.4688,4.51185 1.8841,4.51215 h 6.6234 v 19.87005 0 c 0.011,8.4768 4.6846,14.1517 10.4078,17.0816 6.9527,7.2053 12.0728,15.7324 17.8668,23.8646 5.3248,13.9319 14.9057,32.7664 28.2979,50.3671 18.8995,24.8387 45.5528,47.1111 78.5434,47.1111 32.9907,0 59.6439,-22.2724 78.5434,-47.1111 18.8995,-24.8387 30.2196,-52.147 32.6788,-64.6428 0.4927,-1.9756 2.463,-4.5993 5.113,-6.8038 h 12.4886 c 0.728,0 1.4236,-0.3007 1.9236,-0.8298 1.3638,1.2813 2.8811,2.7534 4.1538,4.3504 -0.058,0.094 -0.1186,0.1856 -0.1733,0.2814 -0.8337,1.4534 -1.2677,3.1093 -1.2678,4.7902 0,1.6812 0.4334,3.3381 1.262,4.7981 0,0 0,0 0,0.01 0.8337,1.4611 2.0493,2.6768 3.5083,3.5193 1.4655,0.8519 3.1394,1.2988 4.8394,1.2988 1.6983,0 3.3711,-0.4485 4.8362,-1.3014 1.4564,-0.8479 2.6681,-2.0672 3.496,-3.5297 0.8294,-1.4552 1.2632,-3.1097 1.2632,-4.7902 0,-1.6896 -0.4389,-3.3532 -1.2794,-4.8123 -0.6219,-1.0797 -1.4522,-2.0236 -2.4346,-2.7793 0.8413,-4.4828 1.3244,-9.189 1.5323,-13.9744 0.7718,-4.6134 1.0803,-9.4035 1.1041,-14.2621 1.2636,3.3295 2.3398,6.7615 3.203,10.3354 0.702,2.9071 4.9304,2.6059 5.2133,-0.3713 0.5097,-5.351 0,-10.4421 -1.0051,-15.36367 2.9903,4.60827 5.676,9.38087 7.893,14.32357 1.2577,2.7977 5.4708,1.5785 5.04,-1.4585 -2.4303,-17.01227 -11.4695,-31.91967 -20.5162,-45.71007 1.8852,0.83315 3.958,-0.71059 3.6997,-2.75541 -0.5369,-4.19657 -1.3451,-6.52332 -2.1687,-8.23647 -0.4374,-0.90988 -0.8091,-1.59083 -1.1552,-2.33175 1.5611,-0.70783 2.8123,-1.70524 3.5122,-3.09693 1.1019,-2.1911 0.6424,-4.56788 -0.251,-6.49269 -1.245,-2.68235 -3.3671,-5.01522 -5.7249,-6.76822 0.5534,-0.59186 1.1052,-1.237 1.5898,-2.00186 0.3739,-0.59008 0.6439,-1.30517 0.8441,-2.06526 0.6028,0.44886 1.1794,0.92528 1.6869,1.42879 2.169,2.15182 5.6561,-0.46993 4.1913,-3.15125 -3.7245,-6.81809 -10.1733,-10.9239 -16.4942,-13.26478 -1.0731,-6.42691 -5.9121,-11.11514 -11.6239,-13.5209 -0.5467,-2.56982 -1.7515,-4.76135 -3.333,-6.62012 0.7565,0.4895 1.4593,1.07364 1.9644,1.65004 1.9727,2.24935 5.5785,0.0159 4.4436,-2.75219 -1.8312,-4.46333 -5.883,-6.86986 -9.9402,-7.53663 -2.6632,-0.4377 -5.366,-0.19813 -7.8769,0.48447 -0.1983,-0.84173 -0.5139,-1.63693 -0.9268,-2.37897 2.2379,-0.8413 2.3048,-3.98251 0.1047,-4.91835 -4.453,-1.88427 -9.4552,-2.70275 -13.9439,-0.86932 -0.6126,-1.34857 -1.4727,-2.5261 -2.6027,-3.40479 -0.1842,-0.14319 -0.3981,-0.23403 -0.5919,-0.36093 2.8374,-0.88657 2.2878,-5.05543 -0.6824,-5.1764 -5.2324,-0.19983 -10.733,0.59461 -15.2867,3.67386 -1.1914,-1.51684 -2.6429,-2.59919 -4.2999,-2.98891 -2.5885,-0.60875 -5.0147,0.18578 -7.1926,1.23479 -2.8218,1.35914 -5.5266,3.27275 -7.7229,4.73982 -0.3272,-0.63842 -0.7242,-1.23078 -1.2619,-1.69723 -0.2618,-0.22711 -0.5647,-0.37604 -0.8544,-0.55046 0.2099,-0.13704 0.4097,-0.27908 0.6422,-0.40426 1.5222,-0.81931 3.4635,-1.30039 5.1726,-1.36215 2.8005,-0.1029 3.5451,-3.91565 0.9889,-5.06453 -5.8063,-2.60493 -12.4488,0.16422 -17.6663,4.15898 -1.3995,1.07156 -2.7217,2.25002 -3.9248,3.50249 -0.4499,-0.37237 -1.0101,-0.58564 -1.5938,-0.60673 -5.3556,-0.17837 -10.0796,2.56545 -13.645,6.28054 2.4273,-3.48166 4.9243,-6.4043 6.827,-7.7753 1.1076,-0.7988 1.4267,-2.30859 0.737,-3.48721 -0.6897,-1.17866 -2.1622,-1.64004 -3.4012,-1.0657 -3.9754,1.84437 -7.0433,4.74512 -9.618,7.88332 2.9395,-10.89935 8.1193,-21.82281 13.1024,-31.78099 1.421,-2.84621 -2.4623,-5.32261 -4.4436,-2.83366 -1.2033,1.51429 -2.5663,4.00867 -4.3847,7.35097 -1.8185,3.3423 -3.9315,7.36852 -5.996,11.24675 -0.6929,1.30178 -1.2359,2.22418 -1.9042,3.45976 3.6201,-13.79872 10.7598,-27.42128 15.8307,-40.3027 0.6637,-1.69081 -0.5321,-3.53292 -2.3466,-3.61502 z m 116.2905,214.10756 v 0.01 c 0,0 0,0 0,0 0,0 0,0 0,0 z"
       id="path906"
       inkscape:connector-curvature="0"
       sodipodi:nodetypes="ccccccssccccccccsccccsccsccccccccsccccccccscsscccccscccccccccccsssccccccccccscccccccccccccccccccsccccccccsccccccccscccccccsccccscccccscccccsc" />
    <path
       style="fill:#006300;fill-opacity:1;stroke:none;stroke-width:0.33116654px;stroke-linecap:butt;stroke-linejoin:miter;stroke-opacity:1"
       d="m 4212.4824,823.55764 c 6.5343,16.59876 17.0129,34.96725 18.2142,53.98015 -1.969,0.16578 -15.8718,-28.91839 -19.2077,-33.11666 6.7876,13.56415 14.137,29.09616 15.5648,44.37632 -4.1526,-5.86377 -8.4115,-13.57074 -15.5648,-16.88949 7.0923,5.11043 16.7022,22.34218 17.5518,31.12965 -1.6709,-1.38772 -4.6436,-2.76395 -7.2856,-1.65583 -0.2735,-1.55695 -0.045,-3.42787 -0.3092,-5.01343 -1.3962,-8.37742 -9.1369,-18.47131 -18.2361,-18.16823 3.828,1.14531 7.4484,3.86316 9.2726,7.61683 -2.6019,-1.04324 -6.1732,-0.14969 -7.948,1.987 -0.097,-8.3757 -14.843,-20.77908 -23.5128,-16.88949 4.2097,0.15213 9.1454,2.22093 10.5973,6.29216 -3.1839,-0.85401 -5.8179,1.10404 -4.9675,4.63633 -6.0481,-2.54683 -16.1744,-14.00225 -20.5323,-3.31166 -4.2356,-4.13786 -10.0246,-5.19173 -15.896,-4.9675 2.0612,0.61021 4.4757,1.77373 5.961,3.64283 -4.59,-0.50377 -7.8769,1.86606 -8.2792,6.62333 -4.2916,-3.42413 -9.4113,-2.84571 -14.5713,-0.66233 1.144,0.20976 2.9954,0.25897 3.974,1.32466 -2.5511,1.13574 -3.9393,4.18376 -3.3117,7.28567 -5.6413,-2.9652 -14.9686,-2.79852 -17.8829,4.30516 2.4372,-2.78127 7.3258,-5.38539 10.9285,-2.31816 -4.1061,2.50136 -7.4841,5.93401 -7.948,10.92849 -6.1481,2.11043 -11.2593,6.89992 -11.5909,13.57783 -6.3775,2.08311 -12.9664,6.00905 -16.5583,12.58433 1.6619,-1.64894 3.9102,-3.32243 6.6233,-3.974 -2.5141,3.83617 1.3313,6.71315 3.6429,8.9415 -5.6682,2.65887 -13.4976,12.42222 -3.3117,14.24016 -2.4115,6.82104 -10.127,14.98416 -16.8895,18.54533 6.4713,-0.71893 12.8035,-8.16455 17.5518,-12.9155 2.9372,9.09188 -5.4533,11.14488 -11.5908,20.86349 8.6502,-7.53447 18.1739,-14.97922 20.5323,-26.82449 6.5023,1.83059 11.8554,-1.7363 13.909,-7.94799 9.1292,0.98442 13.7908,-2.00247 14.2402,-11.25967 5.5741,-0.89282 4.8242,-7.8393 9.164,-10.73251 1.6684,-1.11229 5.9018,-0.95796 4.5121,1.82142 -1.0777,2.1555 -2.6618,4.22105 -4.4035,5.9306 6.6096,-3.33197 11.172,-9.59291 12.9155,-16.55833 2.6681,1.34073 4.7855,3.6021 5.6299,6.62333 0.2354,-12.69146 19.127,-17.20566 6.2921,-3.64283 1.4763,-0.164 16.2841,-7.54679 16.2841,-1.74962 0,4.2281 -2.9366,4.23598 -6.3491,5.39245 18.0119,-1.11703 10.5962,13.3117 25.831,16.55833 -1.7411,7.43124 2.2074,11.34844 9.935,10.92849 -2.3181,3.974 -3.4777,10.9285 2.3182,10.9285 4.6363,0 8.9415,-10.26616 11.5908,-0.66233 2.597,-5.97276 9.7486,-8.65614 10.2662,0 0.9935,-4.30517 5.2986,-7.61684 6.6233,-7.61684 1.3247,0 5.6298,3.31167 6.6233,7.61684 0.5176,-8.65614 7.6693,-5.97276 10.2662,0 2.6493,-9.60383 11.922,-0.16559 16.5583,-0.16559 5.7959,0 8.5276,-6.20937 6.2094,-10.18337 7.7276,0.41995 6.7086,-2.66933 4.9675,-10.10058 15.2349,-3.24662 3.9279,-18.42048 21.9398,-17.30345 -3.4125,-1.15647 -6.3491,-1.16435 -6.3491,-5.39245 0,-5.79717 14.8078,1.58562 16.2841,1.74962 -12.8348,-13.56283 6.0568,-9.04863 6.2921,3.64283 0.8445,-3.02123 2.9618,-5.2826 5.6299,-6.62333 1.7436,6.96542 4.6669,18.37818 11.2765,21.71018 -1.7417,-1.70958 -1.2185,-3.18973 -2.2962,-5.34526 -1.3897,-2.77938 2.8437,-2.9337 4.5121,-1.82141 4.3398,2.8932 2.4191,4.80493 7.9933,5.69775 0.4494,9.2572 0.3104,12.12702 9.4395,11.1426 2.0537,6.21169 7.4068,8.84198 13.909,7.01142 2.8639,11.51672 15.8008,57.13121 13.8586,71.55071 2.2051,-9.3858 2.2601,-19.8764 1.291,-30.42525 4.1404,6.96489 7.0187,14.45585 8.9635,22.50765 0.9502,-9.977 -1.8781,-19.19582 -4.8006,-28.4512 6.6294,8.15925 12.4725,17.0565 16.7433,26.5781 -2.8655,-20.05885 -15.5545,-37.61164 -26.2948,-54.04293 2.9043,0.0385 6.149,2.90115 9.4732,5.53929 -1.025,-8.01218 -2.7427,-7.59653 -4.1273,-12.574 10.1859,-1.81794 2.3565,-11.58129 -3.3116,-14.24016 2.3115,-2.22835 6.1569,-5.10533 3.6428,-8.9415 2.7131,0.65157 4.9614,2.32506 6.6233,3.974 -3.5919,-6.57528 -10.1807,-10.50122 -16.5583,-12.58433 -0.3316,-6.67791 -5.4428,-11.4674 -11.5908,-13.57783 -0.4639,-4.99448 -3.842,-8.42713 -7.948,-10.92849 3.6027,-3.06723 8.4912,-0.46311 10.9285,2.31816 -2.9143,-7.10368 -12.2417,-7.27036 -17.883,-4.30516 0.6276,-3.10191 -0.7605,-6.14993 -3.3117,-7.28567 0.9786,-1.06569 2.8301,-1.1149 3.974,-1.32466 -5.1599,-2.18338 -10.2796,-2.7618 -14.5713,0.66233 -0.4023,-4.75727 -3.6892,-7.1271 -8.2792,-6.62333 1.4853,-1.8691 3.8999,-3.03262 5.961,-3.64283 -5.8713,-0.22423 -11.6604,0.82964 -15.896,4.9675 -4.3579,-10.69059 -14.4842,0.76483 -20.5323,3.31166 0.8504,-3.53229 -1.7835,-5.49034 -4.9675,-4.63633 1.4519,-4.07123 6.3877,-6.14003 10.5973,-6.29216 -8.6698,-3.88959 -23.4156,8.51379 -23.5128,16.88949 -1.7748,-2.13669 -5.3461,-3.03024 -7.948,-1.987 1.8242,-3.75367 5.4447,-6.47152 9.2727,-7.61683 -9.0992,-0.30308 -16.84,9.79081 -18.2362,18.16823 -0.2643,1.58556 -0.036,3.45648 -0.3092,5.01343 -2.642,-1.10812 -5.6147,0.26811 -7.2856,1.65583 0.8496,-8.78747 10.4595,-26.01922 17.5518,-31.12965 -7.1533,3.31875 -11.4121,11.02572 -15.5648,16.88949 1.4279,-15.28016 8.7772,-30.81217 15.5648,-44.37632 -3.3359,4.19827 -17.2386,33.28244 -19.2077,33.11666 1.2013,-19.0129 11.6799,-37.38139 18.2142,-53.98015 -12.7603,17.89949 -27.9954,48.32415 -33.779,73.85014 -5.7836,-25.52599 -21.0187,-55.95065 -33.779,-73.85014 z m -41.4217,54.21753 c 6.1124,0 11.4359,4.63298 13.0811,10.51453 -5.9061,-1.12497 -11.5607,-4.08351 -13.0811,-10.51453 z m 150.4014,0 c -1.5204,6.43102 -7.175,9.38956 -13.0811,10.51453 1.6452,-5.88155 6.9687,-10.51453 13.0811,-10.51453 z m -167.0438,3.08336 c 4.861,-0.14883 8.2417,2.16374 12.0061,5.69255 -5.4181,0.51602 -10.3857,-0.0918 -12.9983,-5.62983 0.3378,-0.0321 0.6681,-0.0528 0.9922,-0.0627 z m 183.6862,0 c 0.3241,0.01 0.6544,0.0305 0.9922,0.0627 -2.6126,5.53806 -7.5802,6.14585 -12.9983,5.62983 3.7644,-3.52881 7.1451,-5.84138 12.0061,-5.69255 z m -144.8821,0.70177 c 2.2589,-0.0524 5.5504,3.43933 8.0573,14.01507 -12.8297,-2.56595 -12.0842,-13.92161 -8.0573,-14.01507 z m 106.078,0 c 4.0269,0.0935 4.7725,11.44912 -8.0573,14.01507 2.507,-10.57574 5.7984,-14.06749 8.0573,-14.01507 z m -155.2116,5.42348 c 2.5825,0.0159 6.2721,1.49767 10.9104,5.69388 -16.4438,7.39969 -18.6581,-5.74183 -10.9104,-5.69388 z m 204.3453,0 c 7.7476,-0.048 5.5333,13.09357 -10.9104,5.69388 4.6382,-4.19621 8.3278,-5.67788 10.9104,-5.69388 z m -174.2008,5.17319 c 0.5723,0.01 1.1192,0.0961 1.6294,0.27232 -0.2597,2.72676 -4.02,6.48069 -6.9545,7.94799 -17.573,8.78645 -3.2588,-8.36546 5.3251,-8.22031 z m 144.0562,0 c 8.5839,-0.14515 22.8981,17.00676 5.3252,8.22031 -2.9346,-1.4673 -6.6948,-5.22123 -6.9545,-7.94799 0.5102,-0.17625 1.057,-0.26265 1.6293,-0.27232 z m -109.9991,0.53235 c 4.0182,0.0468 10.2563,5.59314 5.9876,14.72525 -3.1457,-0.2996 -4.5935,-2.75057 -6.2922,-5.29866 -4.3775,-6.56621 -2.6275,-9.46073 0.3046,-9.42659 z m 75.942,0 c 2.9321,-0.0341 4.6821,2.86038 0.3046,9.42659 -1.6987,2.54809 -3.1464,4.99906 -6.2922,5.29866 -4.2686,-9.13211 1.9695,-14.67849 5.9876,-14.72525 z m -93.6303,3.20751 c 0.1885,-0.004 0.3733,-0.004 0.5544,0.003 1.9317,0.0618 3.4208,0.71059 3.9138,2.24313 -2.3877,2.55829 -15.4736,10.69697 -18.2969,5.05029 -1.1528,-2.30552 7.9876,-7.16257 13.8287,-7.29537 z m 111.3186,0 c 5.8411,0.13277 14.9815,4.98985 13.8288,7.29537 -2.8234,5.64669 -15.9093,-2.492 -18.297,-5.05029 0.4931,-1.53257 1.9821,-2.18133 3.9139,-2.24312 0.1811,-0.006 0.3659,-0.006 0.5543,-0.003 z m -166.8666,2.42619 c 2.1165,0.0321 4.2559,0.57315 6.3672,1.97147 -4.9346,3.11661 -12.0064,3.84753 -17.883,0.9935 3.5182,-1.23137 7.4753,-3.02613 11.5158,-2.96497 z m 222.4146,0 c 4.0406,-0.0612 7.9976,1.7336 11.5158,2.96497 -5.8766,2.85403 -12.9484,2.12311 -17.883,-0.9935 2.1113,-1.39832 4.2507,-1.93944 6.3672,-1.97147 z m -200.8965,1.14356 c -11.9606,28.4065 -14.5561,4.68279 0,0 z m 179.3784,0 c 14.5561,4.68279 11.9607,28.4065 0,0 z m -112.5655,5.54704 c 3.5911,5.38672 2.6182,13.97734 -1.987,18.71091 -1.8036,-7.21427 -4.0792,-12.46177 1.987,-18.71091 z m 45.7527,0 c 6.0661,6.24914 3.7905,11.49664 1.987,18.71091 -4.6052,-4.73357 -5.5782,-13.32419 -1.987,-18.71091 z m -69.3225,2.639 c 3.0114,0.0537 6.3906,1.31734 8.9984,4.72945 -0.7604,2.17265 -2.931,2.89771 -5.8782,2.89771 -16.1109,0 -10.816,-7.7644 -3.1202,-7.62716 z m 92.8922,0 c 7.6958,-0.13724 12.9908,7.62716 -3.1202,7.62716 -2.9472,0 -5.1178,-0.72506 -5.8782,-2.89771 2.6078,-3.41211 5.987,-4.67577 8.9984,-4.72945 z m -165.6557,2.31104 c 0.3832,0 0.7584,0.007 1.1229,0.0176 -1.7826,5.94183 -10.6168,7.88544 -16.1444,7.12008 1.6742,-5.85972 9.2732,-7.14409 15.0215,-7.13756 z m 238.4192,0 c 5.7484,-0.007 13.3473,1.27784 15.0215,7.13753 -5.5276,0.76536 -14.3618,-1.17825 -16.1444,-7.12008 0.3645,-0.0109 0.7397,-0.0172 1.1229,-0.0175 z m -227.4441,1.5077 c 8.0879,11.45787 -11.4967,21.97479 0,0 z m 216.469,0 c 11.4967,21.97479 -8.0878,11.45787 0,0 z m -225.7417,8.61033 c 8.1854,20.46355 -15.6414,19.5488 0,0 z m 235.0144,0 c 15.6414,19.5488 -8.1854,20.46355 0,0 z m -134.1742,0.16559 c 1.7127,1.39159 2.8116,3.55103 2.0698,6.70612 -2.5445,-1.33924 -4.9106,-4.33279 -2.0698,-6.70612 z m 33.334,0 c 2.8408,2.37333 0.4748,5.36688 -2.0698,6.70612 -0.7418,-3.15509 0.3571,-5.31453 2.0698,-6.70612 z m -58.2581,0.99866 c 0.1316,-0.004 0.2673,-0.004 0.4061,0 2.4895,0.0771 6.1419,1.50737 11.1058,5.29287 -13.8298,11.23665 -19.8089,-5.04463 -11.5119,-5.2935 z m 83.1823,0 c 8.2969,0.24887 2.3178,16.53015 -11.512,5.2935 4.964,-3.7855 8.6164,-5.21574 11.1058,-5.29284 0.1389,-0.004 0.2745,-0.005 0.4062,0 z m -172.1795,1.23671 c -1.0721,5.62881 -8.0381,7.15045 -13.495,8.19637 1.2819,-5.12781 8.3956,-7.94809 13.495,-8.19637 z m 261.1766,0 c 5.0994,0.24828 12.2131,3.06856 13.495,8.19637 -5.4569,-1.04592 -12.4228,-2.56756 -13.495,-8.19637 z m -138.3138,7.28566 c 3.4818,0.3316 4.852,3.05336 6.7061,5.961 -2.8252,-0.56503 -6.6634,-2.23342 -6.7061,-5.961 z m 15.451,0 c -0.043,3.72758 -3.8809,5.39597 -6.7061,5.961 1.8541,-2.90764 3.2243,-5.6294 6.7061,-5.961 z m -28.7804,0.82792 c 2.7425,1.67597 5.9415,3.13198 8.0308,5.71262 -3.1088,0 -13.1112,-1.02453 -8.0308,-5.71262 z m 42.1098,0 c 5.0804,4.68809 -4.922,5.71262 -8.0307,5.71262 2.0892,-2.58064 5.2883,-4.03665 8.0307,-5.71262 z m -150.8722,1.25287 c 3.8313,3.87826 2.5146,11.49582 -2.6493,13.24666 -4.4568,-2.56892 -0.6642,-9.87062 2.6493,-13.24666 z m 259.6346,0 c 3.3135,3.37604 7.1061,10.67774 2.6493,13.24666 -5.1639,-1.75084 -6.4805,-9.3684 -2.6493,-13.24666 z m -267.5826,2.64933 c 2.0495,5.02993 -5.5493,10.43417 -10.5973,10.59733 1.7983,-5.41321 5.9731,-9.85114 10.5973,-10.59733 z m 275.5306,0 c 4.6243,0.74619 8.799,5.18412 10.5973,10.59733 -5.048,-0.16316 -12.6468,-5.5674 -10.5973,-10.59733 z m -168.6653,2.05817 c 1.7275,-0.0186 3.4312,0.44648 4.9604,1.73925 -3.5277,0.67194 -7.3042,3.48745 -11.4253,0 1.9827,-0.89223 4.2437,-1.71544 6.4649,-1.73925 z m 65.6913,0.74512 c 2.2211,0.0238 4.4821,0.84703 6.4648,1.73926 -4.121,3.48745 -7.8975,0.67194 -11.4252,0 1.5291,-1.29278 3.2328,-1.75777 4.9604,-1.73926 z m -47.8154,3.80905 c 0.7951,4.6716 -2.6106,8.10729 -7.2029,7.45125 -1.4136,-4.40144 3.771,-6.79756 7.2029,-7.45125 z m 26.0483,0 c 3.4318,0.65369 8.6164,3.04981 7.2028,7.45125 -4.5923,0.65604 -7.998,-2.77965 -7.2028,-7.45125 z m -15.7253,0.23155 c 0.3939,-0.006 0.8159,0 1.2678,0.0169 1.4748,10.8157 -13.478,0.15793 -1.2678,-0.0169 z m 4.7903,0 c 0.2112,-0.003 0.415,-0.003 0.6119,0 12.2102,0.17472 -2.7426,10.83252 -1.2678,0.0169 0.226,-0.009 0.4447,-0.0139 0.6559,-0.0169 z m 27.1621,2.66616 c 3.5325,0.49834 5.2047,3.3821 5.0503,6.62333 -5.7934,0.93511 -5.2351,-2.74239 -5.0503,-6.62333 z m -53.5351,0.82791 c 0.1848,3.88094 0.7431,7.55845 -5.0503,6.62333 -0.1544,-3.24122 1.5178,-6.12499 5.0503,-6.62333 z m -84.3388,91.99251 c 4.5878,23.3121 45.0386,109.6162 108.6226,109.6162 63.584,0 104.0348,-86.3041 108.6226,-109.6162 h -33.1166 c 10.6537,35.9522 -35.766,95.7072 -75.506,95.7072 -39.74,0 -86.1597,-59.755 -75.506,-95.7072 z"
       id="path4632"
       inkscape:connector-curvature="0" />
    <path
       style="fill:#006300;fill-opacity:1;stroke:none;stroke-width:0.33116654px;stroke-linecap:butt;stroke-linejoin:miter;stroke-opacity:1"
       d="m 4205.7407,1058.9536 c -1.2167,-0.05 -1.8686,0.7257 -1.8686,2.7127 0,15.896 23.5128,36.0972 42.3893,36.0972 18.8765,0 42.3893,-20.2012 42.3893,-36.0972 0,-10.5973 -18.5453,13.2467 -42.3893,13.2467 -19.3733,0 -35.2486,-15.7408 -40.5207,-15.9594 z"
       id="path4637"
       inkscape:connector-curvature="0" />
    <path
       style="fill:#e70810;fill-opacity:1;stroke:none;stroke-width:0.33116654px;stroke-linecap:butt;stroke-linejoin:miter;stroke-opacity:1"
       d="m 4178.2908,934.16727 c -17.5544,0.10233 -34.0844,15.17716 -38.9962,32.78548 h 33.779 c 0,-6.95449 9.6038,-4.96749 9.6038,0 h 15.7311 c -2.483,-1.43348 -5.3524,-4.30516 -2.4844,-9.27266 -6.6233,1.77472 -8.2792,-3.974 -8.2792,-8.27916 -3.6428,2.64933 -6.6959,2.26594 -8.2791,-3.64283 -3.6429,6.30958 -5.1926,5.96099 -10.9285,2.64933 1.7747,6.62333 -3.974,8.61033 -6.2922,6.29216 2.3182,2.31817 1.6558,7.61683 -0.6623,7.61683 h -13.909 c 21.049,-40.02955 54.4657,-23.5109 62.9216,4.63633 h 5.6299 c -9.908,-23.88707 -24.1811,-32.86506 -37.8345,-32.78548 z m 144.8827,0 c -13.6534,-0.0796 -27.9265,8.89841 -37.8344,32.78548 h 5.6298 c 8.4559,-28.14723 41.8727,-44.66588 62.9216,-4.63633 h -13.909 c -2.3181,0 -2.9805,-5.29866 -0.6623,-7.61683 -2.3182,2.31817 -8.0668,0.33117 -6.2922,-6.29216 -5.7359,3.31166 -7.2856,3.66025 -10.9285,-2.64933 -1.5832,5.90877 -4.6363,6.29216 -8.2791,3.64283 0,4.30516 -1.6558,10.05388 -8.2792,8.27916 2.868,4.9675 0,7.83918 -2.4844,9.27266 h 15.7311 c 0,-4.96749 9.6038,-6.95449 9.6038,0 h 33.779 c -4.9118,-17.60832 -21.4418,-32.68315 -38.9962,-32.78548 z m 46.2819,23.84399 c -0.9935,0 -5.2987,0.33116 -5.2987,7.61683 0,2.64933 0.9935,7.61683 5.6298,7.61683 0.6624,0 4.9675,0 4.9675,-7.61683 0,-7.61683 -4.3051,-7.61683 -5.2986,-7.61683 z m -118.8888,0.66233 v 69.21381 h 20.5323 v -27.1557 c 5.6298,4.3052 7.948,11.5909 7.948,15.5649 v 11.5908 h 20.5323 v -8.6103 c 0,-17.5518 -8.6103,-23.51286 -8.6103,-23.51286 5.6298,-5.96099 8.6103,-12.58432 8.6103,-21.85699 h -19.87 c 0,4.30517 -1.3246,14.24016 -8.6103,18.21416 v -33.44782 z m -117.5642,0.66233 -28.4803,28.81149 h 9.2727 v 22.51939 c 0.024,18.8033 24.2612,20.0341 29.1426,12.9155 v -20.2012 c -2.9107,5.239 -7.153,4.6941 -9.6038,0 v -15.23369 h 8.9415 v -14.24016 h -9.2727 z m 193.77,14.44002 c -8.5406,-0.0262 -17.4859,3.12218 -20.901,5.76114 v 15.56483 c 0,0 4.3052,-3.974 10.9285,-3.974 6.9545,0 8.9375,4.73625 8.9415,9.27269 -1.422,-1.08228 -3.4527,-1.65586 -6.2922,-1.65586 -7.2856,0 -14.9025,4.30516 -14.9025,14.90256 0,7.6168 5.2987,14.2402 11.5908,14.2401 5.2987,-10e-5 6.2922,-1.3246 9.2727,-4.3051 v 4.3051 h 20.2012 v -36.42832 c 0,-13.54677 -9.1596,-17.65356 -18.839,-17.68314 z m -176.5493,0.13131 v 53.64905 h 19.2077 v -25.8311 c 0,-4.96746 3.3116,-7.457 4.3051,-7.45703 0.9935,0 2.9805,4.80774 9.2727,4.80774 6.2922,0 9.6038,-3.64283 10.2662,-5.29867 v 20.20116 c 0,13.2467 11.5908,13.909 14.5713,13.909 9.6038,0 13.909,-9.2726 13.909,-9.2726 v 9.2726 h 20.5323 v -53.98015 h -20.5323 v 32.12315 c 0,4.3052 -3.974,4.3052 -4.6363,4.3052 -0.6624,0 -4.3052,-0.3312 -4.3052,-4.3052 v -32.12315 h -19.5388 v 4.30517 c 0,0 -1.987,-4.30517 -9.2727,-4.30517 -8.2792,0 -11.2597,3.64283 -13.909,10.9285 v -10.9285 z m 204.6609,0.66234 v 53.31781 h 20.2012 v -53.31781 c -5.2987,2.98049 -14.9025,2.98049 -20.2012,0 z m -32.7855,32.45431 c 2.9805,0 4.3052,1.987 4.3052,4.9675 0,0 0,5.961 -4.3052,5.961 -2.9805,0 -4.9675,-1.3246 -4.9675,-5.961 0,-4.6363 2.6494,-4.9675 4.9675,-4.9675 z m 67.2353,25.1687 c -1.2571,0 -2.4275,0.3106 -3.5116,0.9327 -1.0783,0.6162 -1.9235,1.4603 -2.5348,2.5316 -0.6113,1.0655 -0.9165,2.2229 -0.9165,3.4727 0,1.2498 0.3052,2.4132 0.9165,3.4902 0.6113,1.0713 1.4565,1.918 2.5348,2.54 1.0784,0.6278 2.2487,0.9418 3.5116,0.9418 1.2571,0 2.4247,-0.314 3.5031,-0.9418 1.0783,-0.6277 1.9203,-1.4771 2.5258,-2.5484 0.6113,-1.0713 0.9172,-2.232 0.9172,-3.4818 0,-1.2555 -0.3086,-2.4189 -0.9256,-3.4902 -0.6171,-1.0712 -1.4616,-1.912 -2.5342,-2.5225 -1.0726,-0.6163 -2.235,-0.9243 -3.4863,-0.9243 z m 0,1.3473 c 0.9918,0 1.9175,0.2505 2.7767,0.7516 0.865,0.4953 1.5454,1.1781 2.0413,2.0478 0.496,0.8639 0.7439,1.7939 0.7439,2.7903 0,1.0194 -0.2539,1.9667 -0.7613,2.8421 -0.5017,0.8697 -1.1788,1.5525 -2.0323,2.0478 -0.8477,0.4896 -1.7707,0.7341 -2.7683,0.7341 -0.9976,0 -1.9227,-0.2445 -2.7761,-0.7341 -0.8477,-0.4953 -1.5255,-1.1808 -2.033,-2.0562 -0.5017,-0.8754 -0.7528,-1.82 -0.7528,-2.8337 0,-0.9906 0.2452,-1.918 0.7354,-2.7819 0.4959,-0.8697 1.1737,-1.5551 2.0329,-2.0562 0.8592,-0.5011 1.7902,-0.7516 2.7936,-0.7516 z m -155.3256,1.6332 c 0,9.6038 -1.1287,15.0558 -8.2791,14.9025 -13.6503,-0.2927 -24.506,-13.2467 -34.9698,-13.2467 -11.0621,0 -11.7247,12.5844 -11.7247,14.2402 0,18.5453 35.4348,67.8891 67.2268,67.8891 31.792,0 67.2268,-49.3438 67.2268,-67.8891 0,-1.6558 -0.6626,-14.2402 -11.7247,-14.2402 -10.4637,0 -21.3194,12.954 -34.9698,13.2467 -7.1504,0.1533 -8.2791,-5.2987 -8.2791,-14.9025 h -9.6039 c 0,21.1947 6.7478,26.4933 15.2958,26.4933 8.5481,0 14.9961,-10.5973 24.4442,-10.5973 7.948,0 7.948,7.948 7.948,10.5973 0,10.5973 -21.1946,43.0517 -50.3373,43.0517 -29.1426,0 -50.3373,-32.4544 -50.3373,-43.0517 0,-2.6493 0,-10.5973 7.948,-10.5973 9.4482,0 15.8961,10.5973 24.4442,10.5973 8.5481,0 15.2958,-5.2986 15.2958,-26.4933 z m 152.6187,0.1468 v 7.3433 h 1.7729 v -2.652 h 0.6487 l 1.8253,2.652 h 2.1623 l -2.0672,-2.9722 c 0.8362,-0.3513 1.2542,-1.0592 1.2542,-2.1247 0,-0.7718 -0.2367,-1.3396 -0.7096,-1.7024 -0.4728,-0.3628 -1.2225,-0.544 -2.2489,-0.544 z m 1.7729,1.5291 h 0.8997 c 0.4729,0 0.7696,0.069 0.8906,0.2076 0.1269,0.1325 0.1902,0.3341 0.1902,0.6047 0,0.2707 -0.037,0.4605 -0.1119,0.5699 -0.069,0.1036 -0.1819,0.1757 -0.3376,0.216 -0.1557,0.04 -0.3891,0.061 -0.7005,0.061 h -0.8305 z"
       id="path4642"
       inkscape:connector-curvature="0" />
  </g>
</svg>
