<?xml version="1.0" encoding="UTF-8" standalone="no"?>
<!-- Created with Inkscape (http://www.inkscape.org/) -->

<svg
   xmlns:dc="http://purl.org/dc/elements/1.1/"
   xmlns:cc="http://creativecommons.org/ns#"
   xmlns:rdf="http://www.w3.org/1999/02/22-rdf-syntax-ns#"
   xmlns:svg="http://www.w3.org/2000/svg"
   xmlns="http://www.w3.org/2000/svg"
   xmlns:sodipodi="http://sodipodi.sourceforge.net/DTD/sodipodi-0.dtd"
   xmlns:inkscape="http://www.inkscape.org/namespaces/inkscape"
   width="256"
   height="128"
   viewBox="0 0 256 128"
   version="1.1"
   id="svg8"
   inkscape:version="0.92.2 5c3e80d, 2017-08-06"
   sodipodi:docname="Flame_Flour.svg">
  <sodipodi:namedview
     id="base"
     pagecolor="#ffffff"
     bordercolor="#666666"
     borderopacity="1.0"
     inkscape:pageopacity="0.0"
     inkscape:pageshadow="2"
     inkscape:zoom="1.4142135"
     inkscape:cx="85.077251"
     inkscape:cy="84.281989"
     inkscape:document-units="px"
     inkscape:current-layer="layer1"
     showgrid="false"
     units="px"
     inkscape:snap-intersection-paths="false"
     inkscape:object-nodes="true"
     inkscape:snap-smooth-nodes="true"
     inkscape:window-width="1920"
     inkscape:window-height="2032"
     inkscape:window-x="1920"
     inkscape:window-y="60"
     inkscape:window-maximized="0"
     inkscape:object-paths="true">
    <inkscape:grid
       empspacing="8"
       id="grid852"
       type="xygrid" />
  </sodipodi:namedview>
  <defs
     id="defs2" />
  <metadata
     id="metadata5">
    <rdf:RDF>
      <cc:Work
         rdf:about="">
        <dc:format>image/svg+xml</dc:format>
        <dc:type
           rdf:resource="http://purl.org/dc/dcmitype/StillImage" />
        <dc:title />
      </cc:Work>
    </rdf:RDF>
  </metadata>
  <g
     transform="translate(0,-922.06667)"
     id="layer1"
     inkscape:groupmode="layer"
     inkscape:label="Layer 1">
    <rect
       style="opacity:1;fill:#374548;fill-opacity:1;fill-rule:nonzero;stroke:none;stroke-width:5.99999952;stroke-linecap:round;stroke-linejoin:round;stroke-miterlimit:4;stroke-dasharray:none;stroke-opacity:1;paint-order:stroke fill markers"
       id="rect822"
       width="496.61099"
       height="496.61099"
       x="-120.3055"
       y="737.76117" />
    <path
       style="color:#000000;font-style:normal;font-variant:normal;font-weight:normal;font-stretch:normal;font-size:medium;line-height:normal;font-family:sans-serif;font-variant-ligatures:normal;font-variant-position:normal;font-variant-caps:normal;font-variant-numeric:normal;font-variant-alternates:normal;font-feature-settings:normal;text-indent:0;text-align:start;text-decoration:none;text-decoration-line:none;text-decoration-style:solid;text-decoration-color:#000000;letter-spacing:normal;word-spacing:normal;text-transform:none;writing-mode:lr-tb;direction:ltr;text-orientation:mixed;dominant-baseline:auto;baseline-shift:baseline;text-anchor:start;white-space:normal;shape-padding:0;clip-rule:nonzero;display:inline;overflow:visible;visibility:visible;opacity:1;isolation:auto;mix-blend-mode:normal;color-interpolation:sRGB;color-interpolation-filters:linearRGB;solid-color:#000000;solid-opacity:1;vector-effect:none;fill:#ffffff;fill-opacity:1;fill-rule:nonzero;stroke:none;stroke-width:6;stroke-linecap:butt;stroke-linejoin:miter;stroke-miterlimit:4;stroke-dasharray:none;stroke-dashoffset:0;stroke-opacity:1;paint-order:stroke fill markers;color-rendering:auto;image-rendering:auto;shape-rendering:auto;text-rendering:auto;enable-background:accumulate"
       d="m 65.234375,916.26394 -3.742187,5.99609 c -6.837753,10.95657 -8.117367,20.0116 -6.867188,27.73242 -1.992897,-2.51549 -4.088062,-4.96395 -6.359375,-7.27734 l -6.460937,-6.58203 1.353515,9.125 c 0.485106,3.27036 0.676051,5.7339 0.876953,8.22265 -1.827456,-3.51796 -4.714979,-6.79766 -9.058594,-9.78515 l -9.076171,-6.24414 4.658203,9.98437 c 1.673671,3.58675 1.505065,5.98539 0.652344,8.61524 -0.852724,2.62986 -2.64001,5.39075 -4.261719,8.66601 -0.342575,0.69187 -0.558745,1.54008 -0.865235,2.29297 l -0.457031,-6.30664 -4.888672,8.99414 c -7.677169,14.12706 -9.770541,33.58287 -2.9375,50.28907 6.833042,16.7063 23.028461,30.3177 50.472657,31.8262 l 6.417968,0.3515 -3.851562,-5.1445 c -0.139359,-0.1862 -0.265102,-0.3889 -0.402344,-0.5801 l 0.373047,-0.7812 c 0.666244,-1.3952 2.305377,-2.3524 5.158203,-3.3184 2.850195,-0.965 6.541928,-1.7756 10.054688,-3.6269 5.043616,-2.6285 8.588281,-6.5787 10.714843,-11.3594 2.127466,-4.7827 2.934321,-10.3234 3.046875,-16.5215 l 0.08789,-4.8438 c 1.614524,-3.4979 2.864864,-7.6363 3.537114,-12.6484 0.83041,-6.1914 0.26156,-14.62153 -2.08204,-20.18749 l -2.269527,-5.39063 -3.035156,4.95703 c 0.02565,-0.25115 0.112257,-0.44346 0.130859,-0.70117 0.558915,-7.39731 -2.718426,-15.22833 -6.763672,-20.72851 l -5.384766,-7.32227 -0.03125,9.08984 c -0.0049,1.41915 -0.350586,3.60668 -0.5625,4.4043 -0.303249,1.14139 -2.468328,3.54517 -4.49414,5.74805 1.46696,-6.02285 2.002447,-12.53467 -0.414063,-19.43164 -1.531455,-4.37093 -4.1298,-7.64783 -6.390625,-10.77344 -2.260825,-3.12561 -4.212399,-6.06839 -5.166015,-9.88281 z"
       id="path893"
       inkscape:connector-curvature="0"
       sodipodi:nodetypes="ccccccccccscccccccccccccccccccccccscsscc" />
    <path
       style="fill:#d40000;stroke:none;stroke-width:1px;stroke-linecap:butt;stroke-linejoin:miter;stroke-opacity:1"
       d="m 0,31 v 82 h 27.615234 c -4.321329,-4.48132 -7.576698,-9.60895 -9.814453,-15.080078 -6.833042,-16.7062 -4.739667,-36.161983 2.9375,-50.289063 l 4.888672,-8.996093 0.457031,6.308593 c 0.30649,-0.75288 0.52266,-1.601098 0.865235,-2.292968 1.621709,-3.27525 3.408995,-6.038109 4.261719,-8.667969 C 31.535646,32.980999 31.757948,32.012387 31.820312,31 Z m 80.142578,0 c 0.06565,3.510296 -0.434731,6.899597 -1.224609,10.142578 2.025812,-2.20288 4.190891,-4.606657 4.49414,-5.748047 0.211474,-0.795955 0.556202,-2.975143 0.5625,-4.394531 z m 10.458984,0 c 3.459533,5.338472 6.053665,12.311347 5.552735,18.949219 -0.01865,0.25832 -0.105139,0.451415 -0.130859,0.703125 l 3.035156,-4.957032 2.269526,5.390626 c 2.3436,5.56596 2.91245,13.99615 2.08204,20.1875 -0.66857,4.984669 -1.93348,9.060775 -3.53516,12.546874 l -0.08984,4.945313 c -0.112554,6.1981 -0.919409,11.738785 -3.046875,16.521485 -1.298759,2.91973 -3.13275,5.5246 -5.507812,7.71289 H 256 V 31 Z"
       id="path861"
       transform="translate(0,922.06667)"
       inkscape:connector-curvature="0"
       sodipodi:nodetypes="cccsccccscccccccccccccccccccc" />
    <path
       style="color:#000000;font-style:normal;font-variant:normal;font-weight:normal;font-stretch:normal;font-size:medium;line-height:normal;font-family:sans-serif;font-variant-ligatures:normal;font-variant-position:normal;font-variant-caps:normal;font-variant-numeric:normal;font-variant-alternates:normal;font-feature-settings:normal;text-indent:0;text-align:start;text-decoration:none;text-decoration-line:none;text-decoration-style:solid;text-decoration-color:#000000;letter-spacing:normal;word-spacing:normal;text-transform:none;writing-mode:lr-tb;direction:ltr;text-orientation:mixed;dominant-baseline:auto;baseline-shift:baseline;text-anchor:start;white-space:normal;shape-padding:0;clip-rule:nonzero;display:inline;overflow:visible;visibility:visible;opacity:1;isolation:auto;mix-blend-mode:normal;color-interpolation:sRGB;color-interpolation-filters:linearRGB;solid-color:#000000;solid-opacity:1;vector-effect:none;fill:#d40000;fill-opacity:1;fill-rule:nonzero;stroke:none;stroke-width:6;stroke-linecap:butt;stroke-linejoin:miter;stroke-miterlimit:4;stroke-dasharray:none;stroke-dashoffset:0;stroke-opacity:1;paint-order:stroke fill markers;color-rendering:auto;image-rendering:auto;shape-rendering:auto;text-rendering:auto;enable-background:accumulate"
       d="M 63.816406,12.123047 C 58.734517,24.600452 64.09456,36.492351 69.783203,47.300781 74.713574,31.880156 72.921321,23.986083 63.816406,12.123047 Z M 37.300781,33.955078 C 36.848944,43.62943 27.082206,46.602774 33.013672,60.560547 34.283417,51.203222 45.706901,46.878482 37.300781,33.955078 Z M 50.875,34.375 C 53.614986,64.035274 22.851553,61.458739 60,115.5 55.235207,91.070272 80.047228,76.892835 50.875,34.375 Z m 37.734375,5.28125 C 80.840823,51.842201 76.492557,49.088793 75.439453,64.582031 87.84676,59.972096 92.209272,53.133415 88.609375,39.65625 Z M 96.4375,61.4375 c -9.8499,14.78884 -31.191295,13.469179 -33.5,48.75 5.81919,-18.984664 36.782968,-14.219628 33.5,-48.75 z M 23,62.4375 C 16.355036,91.562799 28.238359,113.5948 60,121.75 49.191634,110.20732 42.178428,93.529066 36.9375,80.625 36.837287,80.378257 25.396741,67.307438 23,62.4375 Z m 69.763672,35.996094 c -5.334185,8.243696 -19.559624,6.648426 -22.31836,17.236326 4.032565,-2.70472 19.809793,-3.17319 22.31836,-17.236326 z"
       id="path908"
       inkscape:connector-curvature="0"
       sodipodi:nodetypes="cccccccccccccccccccccc"
       transform="translate(0,922.06667)" />
    <path
       style="opacity:1;fill:#000000;stroke:none;stroke-width:6;stroke-linecap:butt;stroke-linejoin:miter;stroke-opacity:1;paint-order:stroke fill markers;stroke-miterlimit:4;stroke-dasharray:none"
       d="M 64.037109 1.78125 C 46.39166 30.055712 67.73024 40.914992 69.5625 60.515625 C 71.937354 49.457513 80.584753 36.724978 75.671875 22.703125 C 73.011362 15.10975 66.237062 10.58094 64.037109 1.78125 z M 63.816406 12.123047 C 72.921321 23.986083 74.713574 31.880156 69.783203 47.300781 C 64.09456 36.492351 58.734517 24.600452 63.816406 12.123047 z M 46.125 22.75 C 51.418278 58.43482 38.974641 46.58363 36.9375 73.8125 C 32.059975 69.10632 24.16883 60.0116 23.375 49.0625 C 8.9245036 75.65348 15.342479 123.8316 68.4375 126.75 C 66.433051 124.0724 63.86495 120.4478 64.3125 116.9375 C 67.200764 94.2839 95.891731 104.76703 100.4375 70.875 C 101.18174 65.32617 100.4905 56.82896 98.5625 52.25 C 89.287375 67.39948 78.34879 69.12333 69.625 79 C 70.345064 58.96305 61.395519 38.30338 46.125 22.75 z M 33.277344 24.099609 C 41.134439 40.937699 15.096702 45.534681 35.134766 68.337891 C 36.505955 53.495581 43.632454 51.989353 43.558594 41.908203 C 43.507494 34.934113 41.139551 29.507139 33.277344 24.099609 z M 86.974609 31 C 86.968409 32.79835 86.619847 34.999893 86.310547 36.164062 C 85.52491 39.121094 82.086811 42.161986 80.035156 44.384766 C 71.85304 53.249326 71.666244 59.52416 72.080078 71.34375 C 81.256828 64.00428 92.155941 63.687372 93.162109 49.732422 C 93.638138 43.462412 90.63459 35.97635 86.974609 31 z M 37.300781 33.955078 C 45.706901 46.878482 34.283417 51.203222 33.013672 60.560547 C 27.082206 46.602774 36.848944 43.62943 37.300781 33.955078 z M 50.875 34.375 C 80.047228 76.892835 55.235207 91.070272 60 115.5 C 22.851553 61.458739 53.614986 64.035274 50.875 34.375 z M 88.609375 39.65625 C 92.209272 53.133415 87.84676 59.972096 75.439453 64.582031 C 76.492557 49.088793 80.840823 51.842201 88.609375 39.65625 z M 96.4375 61.4375 C 99.720468 95.967872 68.75669 91.202836 62.9375 110.1875 C 65.246205 74.906679 86.5876 76.22634 96.4375 61.4375 z M 23 62.4375 C 25.396741 67.307438 36.837287 80.378257 36.9375 80.625 C 42.178428 93.529066 49.191634 110.20732 60 121.75 C 28.238359 113.5948 16.355036 91.562799 23 62.4375 z M 96.785156 88.710938 C 93.806968 92.147537 91.068756 96.277497 87.107422 98.654297 C 75.208926 104.8764 64.039905 107.04583 68.103516 122.29883 C 70.539741 117.19713 78.56603 117.19133 84.632812 113.99023 C 93.618978 109.31023 96.568545 100.63924 96.785156 88.710938 z M 92.763672 98.433594 C 90.255105 112.49673 74.477876 112.9652 70.445312 115.66992 C 73.204048 105.08202 87.429487 106.67729 92.763672 98.433594 z "
       id="path1057"
       transform="translate(0,922.06667)" />
    <path
       style="font-style:normal;font-variant:normal;font-weight:normal;font-stretch:normal;font-size:medium;line-height:1.25;font-family:'Rama Gothic M';-inkscape-font-specification:'Rama Gothic M';letter-spacing:0px;word-spacing:0px;fill:#ffffff;fill-opacity:1;stroke:none;stroke-width:1"
       d="M 135.72656 43.855469 L 135.72656 100.625 L 145.89844 100.625 L 145.89844 43.855469 L 135.72656 43.855469 z M 111.94727 43.875 L 111.94727 100.4375 L 123.0957 100.4375 L 123.0957 72.433594 L 132.63086 72.433594 L 132.63086 64.388672 L 123.0957 64.388672 L 123.0957 51.482422 L 132.97266 51.482422 L 132.97266 43.875 L 111.94727 43.875 z M 230.06055 53.710938 C 221.89034 53.710938 217.48437 57.770171 217.48438 65.806641 L 217.48438 89.070312 C 217.48438 97.106813 221.89034 101.25195 230.06055 101.25195 C 238.13895 101.25195 242.45313 97.106812 242.45312 89.070312 L 242.45312 81.876953 L 232.08008 81.876953 L 232.08008 91.490234 C 232.08008 92.589934 230.96683 93.183594 229.86523 93.183594 C 228.76363 93.183594 227.80859 92.589934 227.80859 91.490234 L 227.80859 78.648438 L 242.45312 78.648438 L 242.45312 65.806641 C 242.45312 57.770171 238.13895 53.710938 230.06055 53.710938 z M 193.09766 54.023438 C 189.21891 54.023438 186.6943 56.232774 185.76953 59.414062 L 185.76953 54.865234 L 175.7207 54.865234 L 175.7207 100.4375 L 185.72461 100.4375 L 185.72461 63.84375 C 185.72461 62.74871 186.46755 62.242188 187.52539 62.242188 C 188.58323 62.242188 189.54883 62.74871 189.54883 63.84375 L 189.54883 100.4375 L 199.92773 100.4375 L 199.92773 63.84375 C 199.92773 62.74871 200.79568 62.242188 201.85352 62.242188 C 202.91136 62.242188 203.75195 62.74871 203.75195 63.84375 L 203.75195 100.4375 L 214.50781 100.4375 L 214.50781 63.625 C 214.50781 56.63326 212.73411 54.023437 207.67578 54.023438 C 203.47334 54.023438 200.84469 56.128096 199.875 58.992188 C 198.72901 55.454237 197.04683 54.023437 193.09766 54.023438 z M 161.53516 54.148438 C 153.63441 54.148438 149.10352 57.763781 149.10352 63.769531 L 149.10352 70.224609 L 159.03906 70.224609 L 159.03906 62.990234 C 159.03906 61.886154 160.0597 61.292969 161.10156 61.292969 C 162.05659 61.292969 162.66406 61.886154 162.66406 62.990234 L 162.66406 67.167969 C 162.66406 74.220329 149.04688 70.988205 149.04688 84.578125 L 149.04688 91.955078 C 149.04688 98.664378 151.98511 101.12695 156.32617 101.12695 C 159.79902 101.12695 161.95707 98.924731 162.91211 96.207031 C 163.08575 97.735731 163.62058 99.804057 164.05469 100.56836 L 174.125 100.56836 C 173.43043 97.341157 173.25586 95.131894 173.25586 90.121094 L 173.25586 63.769531 C 173.25586 59.326291 169.34908 54.148438 161.53516 54.148438 z M 229.92773 61.091797 C 231.02933 61.091797 231.95508 61.599499 231.95508 62.699219 L 231.95508 71.632812 L 228.05859 71.632812 L 228.05859 62.699219 C 228.05859 61.599499 228.82613 61.091797 229.92773 61.091797 z M 162.66406 77.689453 L 162.66406 91.283203 C 162.66406 92.387403 162.1443 92.982422 161.01562 92.982422 C 159.97376 92.982422 159.45312 92.472225 159.45312 91.453125 L 159.45312 82.871094 C 159.45312 79.898594 160.84081 78.708543 162.66406 77.689453 z "
       id="path834"
       transform="translate(0,922.06667)" />
  </g>
</svg>
