<svg width="192" height="128" version="1.1" viewBox="0 0 192 128" xmlns="http://www.w3.org/2000/svg">
 <rect x="-80.617" y="-97.276" width="342.5" height="342.5" style="fill:#f9f9f9;paint-order:stroke fill markers"/>
 <g transform="translate(0 -922.07)">
  <path transform="translate(0 922.07)" d="m1 42v48h12v-22c4 0 4 2 4 4v18h12v-18c0-6-7-7-7-7 3-1 7-1 7-9v-1c0-4 0-13-13-13h-15zm12 8c4 0 4 2 4 5v1c0 3 0 5-4 5v-11z" style="fill:#0741a5"/>
  <path transform="translate(0 922.07)" d="m38 42l-7 48h12l0.85156-9h5.2969l0.85156 9h12l-7-48h-17zm8.5 11l1.8926 20h-3.7852l1.8926-20z" style="fill:#0741a5"/>
  <path transform="translate(0 922.07)" d="m64 42v48h11v-31l5 31h7l5-31v31h11v-48h-16l-3.5 22-3.5-22z" style="fill:#0741a5"/>
  <circle cx="157" cy="957.07" r="34" style="fill:#fedc23;paint-order:stroke fill markers"/>
  <path transform="translate(0 922.07)" d="m108 42v36c0 3 1 13 14 13s14-10 14-13v-36h-12v36c0 3 0 5-2 5s-2-2-2-5v-36h-12z" style="fill:#0741a5"/>
  <path d="m25 1041.1c0 5-4 7-11 7s-13-1-13-7v-3h10v4c0 2 4 3 4 0 0-4-2-4-7-6s-7-4-7-8c0-7 9-7 12-7 5 0 11 0 11 8h-9v-2c0-2-4-2-4 0v1c0 2 2 2 8 5s6 6 6 8z" style="fill:#0741a5"/>
  <path d="m28 1021.1v18c0 3 0 9 12 9s12-6 12-9v-18h-10v18c0 3 0 5-2 5s-2-2-2-5v-18z" style="fill:#0741a5"/>
  <path transform="translate(0 922.07)" d="m88.098 99l-6.0977 27h10.451l0.73242-5h4.6328l0.73242 5h10.451l-6.0977-27h-14.805zm7.4023 6.1875l1.7305 11.812h-3.4609l1.7305-11.812z" style="fill:#0741a5"/>
  <path d="m55 1040.1c0 1.9999 0 8 11 8 3 0 5-1 6-2l1 2h7v-14h-13v4h2v4c0 2-3 2-3 0v-15c0-2 3-2 3 0v4h11v-2c0-8-11-8-13-8-11 0-12 6-12 8z" style="fill:#0741a5"/>
  <path d="m112 1021.1v27h11v-12c3.4286 0 3 0.75 3 1.875v10.125h10v-10c0-3-6-4-6-4 2.5714-0.5625 6 0 6-5v-1c0-2.25 0-7-11.143-7zm11 5c3 0 3 1 3 2v2c0 1 0 2-3 2z" style="fill:#0741a5"/>
  <path d="m0 1015.1h128l-4 4h-124z" style="fill:#3aa43f"/>
  <path d="m149.38 1012.9c-2.4375-6.0625-22.098-28.829-32.625-3 1.625-17.625 23.688-20.188 32.5-0.8125z" style="fill:#3aa43f"/>
  <path transform="translate(0 922.07)" d="m150.5 33c-0.42431 5.516-0.93516 22.597-1.3867 40.539 0.82699 0.60907 1.9464 0.60907 2.7734 0-0.45156-17.942-0.96241-35.023-1.3867-40.539zm-1.4102 41.518c-0.08714 3.4861-0.14139 6.346-0.22265 9.8066 0.91685 0.88994 2.3488 0.88994 3.2656 0-0.08126-3.4607-0.13551-6.3205-0.22265-9.8066-0.83758 0.63406-1.9827 0.63406-2.8203 0zm-0.24609 10.787c-0.05909 2.5308-0.09478 4.3717-0.15039 6.8281 0.95452 1.1431 2.6588 1.143 3.6133 0-0.05561-2.4564-0.0913-4.2974-0.15039-6.8281-0.92297 0.91887-2.3895 0.91887-3.3125 0zm-0.17187 7.8008c-0.1022 4.5328-0.09704 4.7618-0.1836 8.7578 0.95615 1.5104 3.0673 1.5104 4.0234 0-0.08656-3.996-0.08139-4.225-0.1836-8.7578-0.95717 1.1784-2.6991 1.1784-3.6562 0zm-0.20508 9.7305c-0.08887 4.1205-0.1137 5.4227-0.19532 9.2383 0.86544 1.5597 3.5916 1.5597 4.457 0-0.08162-3.8156-0.10645-5.1178-0.19532-9.2383-0.95311 1.551-3.1133 1.551-4.0664 0zm-0.22266 10.539c-0.09711 4.5574-0.24414 11.327-0.24414 11.625 0 1 1 2 2.5 2s2.5-1 2.5-2c0-0.29774-0.14703-7.0676-0.24414-11.625-0.84499 2.1603-3.6667 2.1603-4.5117 0z" style="fill:#3aa43f"/>
  <path transform="translate(0 922.07)" d="m138 58c-0.39837 0-1.1575 0.42509-2.084 1.2402-0.9862-0.80813-1.3836-0.63667-1.8145-0.49219-1.8466 0.61929-3.1157 2.3454-4.4707 6.6016-1.7443 4.7458-3.0716 12.185-1.9004 22.318l0.26953 2.332c-0.96101-10.113 1.2883-18.976 3.9453-24.711 1.3628-2.3367 2.8007-4.0195 3.9707-5.0488 3.3708 2.7622 10.216 10.155 14.084 21.76l1-1c-0.0853-0.25584-0.17197-0.49099-0.25781-0.74219l0.25781-0.25781c-5-15-11-22-13-22z" style="fill:#3aa43f"/>
  <path d="m150 982.07c-6-9-13.624-16.195-21.624-17.195 10.339 5.2705 20.082 15.102 21.624 26.195z" style="fill:#3aa43f"/>
  <path d="m150 978.07c5-13 12-18 15-20-9 10-11 12-14 25z" style="fill:#3aa43f"/>
  <path d="m152 1045.1c0.0561-6.4326 12.144-22.193 19.141-23.193 8.5443-1.2206 16.886 13.837 16.859 20.193 0.12461-8.0645-4.7771-20.302-14.605-22.868-1.2882-0.3363-2.7483 1.5643-4.1778 1.8334-1.3168 0.2479-2.392-0.04-3.8172 0.5711-6.321 2.7092-15.389 16.35-13.4 23.463z" style="fill:#3aa43f"/>
  <path d="m150.82 987.94c1.2093-5.6007 6.9281-14.941 10.73-17.162 0.80132-0.46825 1.111 1.0219 1.8334 1.0219 0.31115 0 0.94057-0.66248 1.1421-0.4809 5.6212 5.0638 1.4598 23.454-4.5385 30.567 3.4657-7.1217 8.2498-19.224 3.727-28.283-0.41289-0.82699-3.8571 2.7951-4.4183 3.5166-2.7653 3.5553-5.4347 7.3172-6.8829 11.662-0.45675 1.3702-0.90564 2.6982-1.3225 4.0877-0.0262 0.0874-0.19589 1.0219-0.30056 1.0219-0.19536 0-0.0491-5.4501 0.03-5.9512z" style="fill:#3aa43f"/>
  <path d="m151.06 1000.9c0.61906-3.2542 6.3555-15.942 10.76-11.812 7.3416-5.823 18.771 9.9616 20.498 17.733-1.7687-5.9749-14.34-19.938-22.572-14.968-4.5591 2.8494-6.0785 9.3543-8.4458 13.826 0.0171-1.4338-0.93309-3.5475-0.24045-4.779z" style="fill:#3aa43f"/>
  <path d="m114.76 1046.1c0.10845-13.056 8.8855-37.853 26.029-25.608 3.6347 2.5962 6.5068 5.9799 7.8146 10.339 0.40817-0.126 0.99533-1.3643 1.4427-1.9837-16.532-32.956-39.48-8.7745-35.286 17.252z" style="fill:#3aa43f"/>
  <path d="m151.12 1020.4c1.219-4.1257 4.038-11.206 10.46-11.902 1.1233-0.1219 1.7691 1.8473 3.0056 1.6831 3.5412-0.4702 6.4328-0.315 9.5579 4.2079 3.5171 5.0902 1.9202 16.767 0.54101 21.701 1.8383-21.916-12.595-36.125-23.029-12.637-0.25953-0.8867-0.61969-2.2479-0.53499-3.0524z" style="fill:#3aa43f"/>
 </g>
</svg>
