<?xml version="1.0" encoding="UTF-8" standalone="no"?>
<!-- Created with Inkscape (http://www.inkscape.org/) -->

<svg
   xmlns:dc="http://purl.org/dc/elements/1.1/"
   xmlns:cc="http://creativecommons.org/ns#"
   xmlns:rdf="http://www.w3.org/1999/02/22-rdf-syntax-ns#"
   xmlns:svg="http://www.w3.org/2000/svg"
   xmlns="http://www.w3.org/2000/svg"
   xmlns:sodipodi="http://sodipodi.sourceforge.net/DTD/sodipodi-0.dtd"
   xmlns:inkscape="http://www.inkscape.org/namespaces/inkscape"
   width="1026"
   height="1024"
   viewBox="0 0 1025.9999 1024"
   version="1.1"
   id="svg8"
   inkscape:version="0.92.2 5c3e80d, 2017-08-06"
   sodipodi:docname="Trukai.svg">
  <defs
     id="defs2" />
  <sodipodi:namedview
     id="base"
     pagecolor="#ffffff"
     bordercolor="#666666"
     borderopacity="1.0"
     inkscape:pageopacity="0.0"
     inkscape:pageshadow="2"
     inkscape:zoom="0.3535534"
     inkscape:cx="271.57161"
     inkscape:cy="285.44035"
     inkscape:document-units="px"
     inkscape:current-layer="layer1"
     showgrid="false"
     units="px"
     inkscape:snap-intersection-paths="false"
     inkscape:object-nodes="true"
     inkscape:snap-smooth-nodes="true"
     inkscape:window-width="3840"
     inkscape:window-height="2032"
     inkscape:window-x="0"
     inkscape:window-y="60"
     inkscape:window-maximized="1"
     fit-margin-top="0"
     fit-margin-left="0"
     fit-margin-right="0"
     fit-margin-bottom="0"
     inkscape:snap-bbox="true"
     inkscape:bbox-nodes="true">
    <inkscape:grid
       type="xygrid"
       id="grid852"
       empspacing="8"
       originx="404.07801"
       originy="387.71703" />
  </sodipodi:namedview>
  <metadata
     id="metadata5">
    <rdf:RDF>
      <cc:Work
         rdf:about="">
        <dc:format>image/svg+xml</dc:format>
        <dc:type
           rdf:resource="http://purl.org/dc/dcmitype/StillImage" />
        <dc:title></dc:title>
      </cc:Work>
    </rdf:RDF>
  </metadata>
  <g
     inkscape:label="Layer 1"
     inkscape:groupmode="layer"
     id="layer1"
     transform="translate(404.07803,-413.78366)">
    <rect
       style="opacity:1;fill:#b7c4c8;fill-opacity:1;fill-rule:nonzero;stroke:none;stroke-width:11.52997494;stroke-linecap:round;stroke-linejoin:round;stroke-miterlimit:4;stroke-dasharray:none;stroke-opacity:1;paint-order:stroke fill markers"
       id="rect933"
       width="2411.2061"
       height="2411.2061"
       x="-1096.681"
       y="-279.81937" />
    <path
       style="fill:#ffff10;fill-opacity:1;stroke:none;stroke-width:16;stroke-linecap:round;stroke-linejoin:round;stroke-miterlimit:4;stroke-dasharray:none;stroke-opacity:1"
       d="m 204.35741,427.08054 c -2.70866,-0.12232 -5.29495,1.13554 -6.8711,3.34179 -34.44546,48.3184 -74.20135,125.1023 -95.48633,196.34766 C 80.715069,555.52463 40.959119,478.74073 6.5136589,430.42233 c -5.48185,-7.66764 -17.3983099,-1.2008 -13.95703,7.57422 15.31232,38.89709 36.8716301,80.03219 47.8027301,121.69922 -2.01787,-3.73106 -3.65748,-6.51629 -5.75,-10.44727 -6.23381,-11.71076 -12.61451,-23.86843 -18.10547,-33.96093 -5.49096,-10.09252 -9.6068001,-17.62459 -13.2402301,-22.19727 -5.98266,-7.51562 -17.7087499,-0.0379 -13.4179699,8.55664 15.0472199,30.06997 30.688,63.05484 39.56445,95.9668 -7.77483,-9.47624 -17.03868,-18.23535 -29.04297011,-23.80469 -8.79677999,-4.07788 -15.90911989,8.07646 -8.04491999,13.74805 5.7455,4.13998 13.28558,12.96523 20.6152301,23.47851 -10.7664101,-11.21817 -25.03109,-19.50349 -41.20312,-18.96484 -1.76222,0.0636 -3.45405,0.7077 -4.8125,1.83203 -3.63296,-3.78197 -7.62551,-7.34048 -11.85156,-10.57617 -15.75473,-12.06266 -35.81282,-20.42447 -53.34571,-12.55859 -7.718449,3.4692 -5.470229,14.98233 2.98633,15.29296 5.16066,0.18652 11.02281,1.63925 15.61914,4.11328 0.70214,0.37794 1.30542,0.80689 1.93946,1.22071 -0.87496,0.5267 -1.78958,0.97634 -2.58008,1.66211 -1.62363,1.40852 -2.82254,3.19726 -3.81055,5.125 -6.63214,-4.42996 -14.79945,-10.20833 -23.320309,-14.3125 -6.5763,-3.16756 -13.90256,-5.56676 -21.71875,-3.72852 -5.00361,1.17677 -9.38668,4.4451 -12.98438,9.02539 -13.75048,-9.29826 -30.36004,-11.69713 -46.16015,-11.09375 -8.98425,0.34952 -10.65007,12.96528 -2.06446,15.63477 -0.58366,0.38229 -1.2285,0.65463 -1.7832,1.08594 -3.41241,2.6533 -6.00949,6.20904 -7.85937,10.28125 -13.5543,-5.5363 -28.65884,-3.0648 -42.10547,2.625 -6.6468,2.82468 -6.44465,12.31444 0.3164,14.85351 -1.24651,2.2403 -2.19999,4.64055 -2.79882,7.18164 -7.58192,-2.06118 -15.74325,-2.78453 -23.78516,-1.46289 -12.25124,2.01341 -24.48635,9.28018 -30.01563,22.75781 -3.42721,8.35901 7.46111,15.10279 13.41797,8.31055 1.5252,-1.74045 3.64726,-3.50432 5.93164,-4.98242 -4.77536,5.61272 -8.41364,12.23034 -10.06445,19.99023 -17.24733,7.2645 -31.85954,21.42126 -35.09961,40.82813 -19.08705,7.0686 -38.55987,19.46659 -49.80664,40.05469 -4.42308,8.09658 6.10659,16.01333 12.65625,9.51562 1.53247,-1.5205 3.27355,-2.95906 5.09375,-4.31445 0.60449,2.29525 1.41987,4.45453 2.54883,6.23633 1.46336,2.30957 3.12961,4.25774 4.80078,6.04492 -7.11981,5.29338 -13.52772,12.33782 -17.28711,20.4375 -2.69767,5.81218 -4.08539,12.98921 -0.75781,19.60547 2.02383,4.024 5.58286,6.94901 10.00976,9.07617 -8.89556,16.39458 -28.05304,35.87883 -43.77148,44.15625 -7.81312,4.1205 -4.16828,15.99982 4.61133,15.0293 12.49808,-1.38847 23.20136,-8.65001 32.75781,-16.79688 3.22315,-2.74774 6.13201,-5.67377 9.09765,-8.56445 -0.89563,1.27534 -1.7643,2.53511 -2.99218,3.94336 -6.801,7.80005 -18.50024,17.34546 -28.50977,33.19531 -4.9122,7.79171 5.06655,16.34816 12.01758,10.30469 15.09233,-13.14565 31.87604,-26.69522 44.79883,-43.46875 27.27493,-5.74512 20.61662,20.92014 22.90625,40.86328 l -25.64844,25.94726 c -4.99443,5.05326 -1.41546,13.62411 5.68945,13.625 h 20 v 60.00004 0.01 c 0.0321,25.5968 14.14591,42.7328 31.42774,51.58 20.99465,21.7576 36.45556,47.5061 53.95117,72.0625 16.07884,42.069 45.00975,98.9422 85.44922,152.0899 57.069379,75.0035 137.5524189,142.2578 237.17187,142.2578 99.61956,0 180.1025,-67.2543 237.17188,-142.2578 57.06938,-75.0036 91.25193,-157.4648 98.67773,-195.1973 1.48795,-5.9656 7.43745,-13.8883 15.43946,-20.5449 h 37.71093 c 2.19823,0 4.29886,-0.9081 5.8086,-2.5059 4.11812,3.8692 8.69991,8.3143 12.54297,13.1367 -0.17518,0.2828 -0.35811,0.5604 -0.52344,0.8497 -2.51745,4.3889 -3.82809,9.3889 -3.82813,14.4648 2e-5,5.0766 1.30849,10.0798 3.81055,14.4883 0.003,0 0.005,0.01 0.008,0.016 2.51739,4.4119 6.18817,8.0829 10.59375,10.6269 4.42527,2.5726 9.47976,3.9219 14.61329,3.9219 5.12805,0 10.17954,-1.3542 14.60351,-3.9297 4.39781,-2.5602 8.05668,-6.242 10.55664,-10.6582 2.50431,-4.3942 3.81449,-9.3904 3.81445,-14.4648 0,-5.102 -1.3255,-10.1254 -3.86328,-14.5313 -1.87788,-3.2603 -4.3852,-6.1104 -7.35156,-8.3925 2.54021,-13.5363 3.99907,-27.7474 4.62695,-42.1973 2.33038,-13.931 3.26204,-28.39508 3.33399,-43.06641 3.81553,10.05388 7.06532,20.41714 9.67187,31.20901 2.11961,8.7783 14.88791,7.869 15.74221,-1.1211 1.5389,-16.15789 -0.01,-31.53128 -3.0352,-46.3926 9.0298,13.9152 17.1395,28.32674 23.834,43.2519 3.7979,8.4481 16.5197,4.7664 15.2188,-4.4043 -7.3386,-51.37057 -34.6336,-96.38538 -61.95121,-138.02729 5.69256,2.51579 11.95161,-2.14564 11.17191,-8.32031 -1.62147,-12.67209 -4.06193,-19.69792 -6.54887,-24.8711 -1.32079,-2.74744 -2.44299,-4.80368 -3.48828,-7.04101 4.71384,-2.13732 8.49205,-5.14918 10.60545,-9.35156 3.3276,-6.61626 1.9399,-13.79329 -0.7578,-19.60547 -3.75933,-8.09968 -10.16729,-15.14412 -17.2871,-20.4375 1.67117,-1.78718 3.33742,-3.73535 4.80078,-6.04492 1.12896,-1.7818 1.94434,-3.94108 2.54883,-6.23633 1.82019,1.35538 3.56134,2.79398 5.09375,4.31445 6.54964,6.49767 17.07924,-1.41905 12.65624,-9.51562 -11.24661,-20.58813 -30.71955,-32.98609 -49.80663,-40.05469 -3.24005,-19.40687 -17.85225,-33.56363 -35.09961,-40.82813 -1.6508,-7.75989 -5.28909,-14.37751 -10.06445,-19.99023 2.28438,1.4781 4.40644,3.24198 5.93164,4.98242 5.95686,6.79224 16.84518,0.0485 13.41797,-8.31055 -5.52927,-13.47764 -17.76439,-20.7444 -30.01563,-22.75781 -8.04191,-1.32164 -16.20324,-0.59829 -23.78516,1.46289 -0.59896,-2.54165 -1.55189,-4.94288 -2.79882,-7.18359 6.75784,-2.54037 6.95992,-12.02568 0.3164,-14.85156 -13.4466,-5.68981 -28.55116,-8.1613 -42.10547,-2.625 -1.84988,-4.07222 -4.44695,-7.62795 -7.85937,-10.28125 -0.55613,-0.43242 -1.20188,-0.7067 -1.78711,-1.08985 8.56784,-2.67711 6.90836,-15.26554 -2.06055,-15.63086 -15.80009,-0.60338 -32.40966,1.7955 -46.16015,11.09375 -3.5977,-4.58029 -7.98077,-7.84862 -12.98438,-9.02539 -7.81619,-1.83824 -15.14245,0.56096 -21.71875,3.72852 -8.52086,4.10417 -16.68817,9.88254 -23.32031,14.3125 -0.98801,-1.92774 -2.18692,-3.71647 -3.81055,-5.125 -0.7905,-0.68577 -1.70512,-1.13541 -2.58008,-1.66211 0.63404,-0.41382 1.23732,-0.84276 1.93946,-1.22071 4.59633,-2.47405 10.45851,-3.92676 15.61914,-4.11328 8.45656,-0.31063 10.70478,-11.82376 2.98633,-15.29296 -17.53289,-7.86586 -37.59098,0.49593 -53.34571,12.55859 -4.22605,3.23569 -8.2186,6.7942 -11.85156,10.57617 -1.35845,-1.12433 -3.05028,-1.76838 -4.8125,-1.83203 -16.17201,-0.53865 -30.43671,7.74667 -41.20313,18.96484 7.32966,-10.51328 14.86974,-19.33853 20.61524,-23.47851 3.34456,-2.41207 4.30804,-6.97103 2.22541,-10.53008 -2.08264,-3.55904 -6.52915,-4.95225 -10.27033,-3.21797 -12.00429,5.56934 -21.26814,14.32845 -29.04297,23.80469 8.87646,-32.91196 24.51724,-65.89683 39.56445,-95.9668 4.29078,-8.59453 -7.43531,-16.07226 -13.41797,-8.55664 -3.63341,4.57267 -7.74928,12.10475 -13.24023,22.19727 -5.49096,10.0925 -11.87166,22.25017 -18.10547,33.96093 -2.09252,3.93098 -3.73213,6.71621 -5.75,10.44727 10.9311,-41.66702 32.49041,-82.80213 47.80273,-121.69922 2.0041,-5.10561 -1.60667,-10.66808 -7.08593,-10.91602 z m 351.15429,646.52536 0.0117,0.019 c -0.002,0 -0.006,-0.01 -0.008,-0.01 -0.002,0 -0.002,-0.01 -0.004,-0.01 z"
       id="path906"
       inkscape:connector-curvature="0"
       sodipodi:nodetypes="ccccccssccccccccsccccsccsccccccccsccccccccscsscccccscccccccccccsssccccccccccscccccccccccccccccccsccccccccsccccccccscccccccsccccscccccscccccsc" />
    <path
       style="fill:#006300;fill-opacity:1;stroke:none;stroke-width:1px;stroke-linecap:butt;stroke-linejoin:miter;stroke-opacity:1"
       d="m -2.111e-5,435.06686 c 19.73121011,50.12214 51.37268011,105.58809 55.00000011,163 -5.94571,0.50059 -47.9267601,-87.32282 -58.0000001,-100 20.4960201,40.9587 42.6882701,87.85957 47.0000001,134 -12.5396,-17.7064 -25.39967,-40.97862 -47.0000001,-51 21.4160901,15.4316 50.4345101,67.46505 53.0000001,94 -5.04565,-4.19036 -14.0221,-8.34613 -22,-5 -0.82584,-4.70136 -0.13563,-10.35091 -0.93359,-15.13867 -4.21613,-25.29678 -27.59016011,-55.7765 -55.06641,-54.86133 11.5592,3.45837 22.4915199,11.66528 27.99999989,23 -7.85679999,-3.15019 -18.64081989,-0.45196 -23.99999989,6 -0.29334,-25.29155 -44.82029,-62.74512 -71,-51 12.71162,0.45942 27.61572,6.70638 32,19 -9.61441,-2.57878 -17.56799,3.33383 -15,14 -18.26312,-7.69047 -48.840699,-42.28157 -61.999999,-10 -12.78994,-12.49479 -30.27064,-15.67706 -48,-15 6.22389,1.84263 13.515,5.35604 18,11 -13.86,-1.5212 -23.78529,5.63475 -25,20 -12.95928,-10.3396 -28.41882,-8.59301 -44,-2 3.45433,0.63343 9.04516,0.78199 12,4 -7.70353,3.42951 -11.89518,12.6334 -10,22 -17.03471,-8.9538 -45.19982,-8.45049 -54,13 7.35976,-8.39842 22.12121,-16.26194 33,-7 -12.39873,7.55316 -22.59918,17.91852 -24,33 -18.56468,6.37273 -33.99877,20.83522 -35,41 -19.25789,6.29015 -39.15375,18.14509 -50,38 5.01843,-4.97923 11.80729,-10.03252 20,-12 -7.59176,11.58373 4.02004,20.27113 11,27 -17.11573,8.02882 -40.75746,37.51049 -10,43 -7.28191,20.59701 -30.57972,45.24656 -51,56 19.54091,-2.17088 38.66176,-24.6539 53,-39 8.86913,27.45405 -16.46697,33.65339 -35,63 26.12051,-22.75134 54.87852,-45.23173 62,-81 19.63448,5.52763 35.79875,-5.24298 42,-24 27.5667,2.97261 41.64306,-6.04671 43,-34 16.83196,-2.69598 14.56734,-23.67184 27.67188,-32.4082 5.03807,-3.35871 17.82137,-2.89273 13.625,5.5 -3.2544,6.50882 -8.03757,12.74595 -13.29688,17.9082 19.95831,-10.06134 33.7351,-28.96697 39,-50 8.05674,4.04851 14.4502,10.87701 17,20 0.71085,-38.32349 57.756399,-51.95474 19,-11 4.4577,-0.49522 49.171879,-22.78855 49.171879,-5.2832 0,12.76728 -8.86747,12.79105 -19.17188,16.2832 54.3891,-3.37296 31.99647,40.19642 78,50 -5.25749,22.43955 6.6656,34.26808 29.9999999,33 -6.99999,12 -10.50128,33 7.0000001,33 14,0 27,-31 35,-2 7.84184,-18.03552 29.43708,-26.13832 31,0 3,-13 16,-23 20.000001,-23 4,0 17,10 20,23 1.56292,-26.13832 23.15818,-18.03552 31,0 8,-29 36,-0.5 50,-0.5 17.50128,0 25.75,-18.75 18.75,-30.75 23.3344,1.26808 20.25751,-8.06045 15,-30.5 46.00356,-9.80358 11.86091,-55.62296 66.25,-52.25 -10.30439,-3.49215 -19.17187,-3.51592 -19.17187,-16.2832 0,-17.50535 44.71418,4.78798 49.17187,5.2832 -38.75639,-40.95474 18.28916,-27.32349 19,11 2.54981,-9.12299 8.9433,-15.95149 17,-20 5.26495,21.03303 14.09251,55.4953 34.05079,65.55664 -5.25929,-5.16225 -3.6792,-9.6318 -6.9336,-16.14062 -4.19637,-8.39273 8.58693,-8.85871 13.625,-5.5 13.10454,8.73636 7.30479,14.5091 24.13672,17.20508 1.35695,27.95329 0.93722,36.61909 28.50391,33.64648 6.20126,18.75702 22.36552,26.69951 42,21.17188 8.64778,34.7762 47.71243,172.51488 41.84765,216.05668 6.6586,-28.3419 6.82475,-60.01951 3.89844,-91.87309 12.50232,21.03147 21.19387,43.65121 27.06637,67.96489 2.8693,-30.12687 -5.6712,-57.96439 -14.49606,-85.91216 20.01836,24.63792 37.66246,51.5042 50.55856,80.25586 -8.6528,-60.57015 -46.96885,-113.57309 -79.40035,-163.18945 8.76962,0.11635 18.56748,8.76041 28.60547,16.72656 -3.0952,-24.19377 -8.28189,-22.9387 -12.4629,-37.96875 30.75748,-5.48951 7.11573,-34.97118 -10,-43 6.97997,-6.72887 18.59177,-15.41627 11,-27 8.19273,1.96748 14.98164,7.02077 19.99998,12 -10.84617,-19.85491 -30.74207,-31.70985 -49.99998,-38 -1.00121,-20.16478 -16.43528,-34.62727 -35,-41 -1.4008,-15.08148 -11.60125,-25.44684 -24,-33 10.8788,-9.26194 25.64025,-1.39842 33,7 -8.80016,-21.45049 -36.96527,-21.9538 -54,-13 1.89518,-9.3666 -2.29646,-18.57049 -10,-22 2.95488,-3.21801 8.54567,-3.36657 12,-4 -15.58114,-6.59301 -31.0407,-8.3396 -44,2 -1.21469,-14.36525 -11.13999,-21.5212 -25,-20 4.48501,-5.64396 11.77616,-9.15737 18,-11 -17.72933,-0.67706 -35.21005,2.50521 -48,15 -13.1593,-32.28157 -43.73687,2.30953 -62,10 2.568,-10.66617 -5.38558,-16.57878 -15,-14 4.38433,-12.29362 19.28841,-18.54058 32,-19 -26.17971,-11.74512 -70.70663,25.70845 -71,51 -5.35915,-6.45196 -16.14319,-9.15019 -24,-6 5.50848,-11.33472 16.44084,-19.54163 28,-23 -27.47622,-0.91517 -50.85027,29.56455 -55.0664,54.86133 -0.79797,4.78776 -0.10774,10.43731 -0.9336,15.13867 -7.97789,-3.34613 -16.95434,0.80964 -22,5 2.56549,-26.53495 31.58394,-78.5684 53,-94 -21.60031,10.02138 -34.46037,33.2936 -47,51 4.31174,-46.14043 26.504,-93.0413 47,-134 -10.07321,12.67718 -52.05429,100.50059 -58,100 3.62731,-57.41191 35.2688,-112.87786 55,-163 -38.53128,54.04978 -84.53571,145.92101 -102,223 C 84.535699,580.98787 38.531259,489.11664 -2.111e-5,435.06686 Z M -125.07814,598.78366 c 18.4571,0 34.532249,13.98986 39.499999,31.75 -17.834299,-3.39701 -34.909059,-12.33075 -39.499999,-31.75 z m 454.15625,0 c -4.59094,19.41925 -21.66571,28.35299 -39.5,31.75 4.96775,-17.76014 21.04289,-31.75 39.5,-31.75 z m -504.41016,9.31055 c 14.67848,-0.44932 24.88695,6.53371 36.25391,17.18945 -16.36069,1.55817 -31.361,-0.27713 -39.25,-17 1.01997,-0.0971 2.01753,-0.1595 2.99609,-0.18945 z m 554.66407,0 c 0.97856,0.0299 1.97612,0.0923 2.99609,0.18945 -7.889,16.72287 -22.88932,18.55817 -39.25,17 11.36696,-10.65574 21.57542,-17.63877 36.25391,-17.18945 z m -437.490241,2.11914 c 6.82117,-0.1583 16.76008,10.3855 24.33008,42.32031 -38.74099,-7.7482 -36.48955,-42.03814 -24.33008,-42.32031 z m 320.316411,0 c 12.15947,0.28217 14.41091,34.57211 -24.33008,42.32031 7.57,-31.93481 17.50891,-42.47861 24.33008,-42.32031 z m -468.68164,16.37695 c 7.79837,0.0483 18.93953,4.52237 32.94531,17.19336 -49.65394,22.34427 -56.34042,-17.33821 -32.94531,-17.19336 z m 617.04687,0 c 23.39511,-0.14485 16.70863,39.53763 -32.94531,17.19336 14.00578,-12.67099 25.14694,-17.14506 32.94531,-17.19336 z m -526.02148,15.62109 c 1.72801,0.0292 3.37938,0.29008 4.91992,0.82227 -0.78417,8.23382 -12.13864,19.56932 -21,24 -53.06365,26.53183 -9.84007,-25.26063 16.08008,-24.82227 z m 434.99609,0 c 25.92015,-0.43836 69.14373,51.3541 16.08008,24.82227 -8.86136,-4.43068 -20.21583,-15.76618 -21,-24 1.54054,-0.53219 3.19191,-0.79307 4.91992,-0.82227 z m -332.156251,1.60743 c 12.13323989,0.14125 30.96997,16.8892 18.0800799,44.46484 -9.49891,-0.90466 -13.87047,-8.30571 -18.9999999,-16 -13.21832,-19.82748 -7.93406,-28.56792 0.91992,-28.46484 z m 229.316411,0 c 8.85398,-0.10308 14.13824,8.63736 0.91992,28.46484 -5.12953,7.69429 -9.50109,15.09534 -19,16 -12.88989,-27.57564 5.94684,-44.32359 18.08008,-44.46484 z m -282.728521,9.68554 c 0.56897,-0.0129 1.12697,-0.0118 1.67383,0.006 5.83314,0.18661 10.32953,2.14567 11.81836,6.77344 -7.21006,7.72507 -46.72457,32.30087 -55.249999,15.25 -3.48092,-6.96185 24.119829,-21.62836 41.757809,-22.0293 z m 336.140631,0 c 17.63798,0.40094 45.23873,15.06745 41.75781,22.0293 -8.52543,17.05087 -48.03994,-7.52493 -55.25,-15.25 1.48883,-4.62777 5.98523,-6.58683 11.81836,-6.77344 0.54687,-0.0176 1.10486,-0.0186 1.67383,-0.006 z m -503.875,7.32618 c 6.39102,0.0967 12.8511,1.73071 19.22656,5.95312 -14.90072,9.41099 -36.25492,11.61811 -54,3 10.62364,-3.71828 22.5724,-9.13778 34.77344,-8.95312 z m 671.60937,0 c 12.20104,-0.18468 24.1498,5.23484 34.77344,8.95312 -17.74508,8.61811 -39.09928,6.41099 -54,-3 6.37546,-4.22241 12.83554,-5.85644 19.22656,-5.95312 z m -606.63281,3.45312 c -36.11667,85.77709 -43.95407,14.1403 0,0 z m 541.65625,0 c 43.95408,14.1403 36.11668,85.77709 0,0 z m -339.906251,16.75 c 10.84396,16.26594 7.90606,42.20639 -6,56.5 -5.44609,-21.78437 -12.31746,-37.62987 6,-56.5 z m 138.156251,0 c 18.31745,18.87013 11.44609,34.71563 6,56.5 -13.90607,-14.29361 -16.84396,-40.23406 -6,-56.5 z m -209.328131,7.96875 c 9.09331,0.16216 19.29734,3.97797 27.17188,14.28125 -2.29622,6.56062 -8.85048,8.75 -17.75,8.75 -48.64912,0 -32.66026,-23.44565 -9.42188,-23.03125 z m 280.500001,0 c 23.23843,-0.4144 39.22724,23.03125 -9.42187,23.03125 -8.89952,0 -15.45378,-2.18938 -17.75,-8.75 7.87454,-10.30328 18.07859,-14.11909 27.17187,-14.28125 z m -500.21874,6.97852 c 1.15718,0.001 2.29007,0.0197 3.39062,0.0527 -5.38264,17.94209 -32.05853,23.81108 -48.75,21.5 5.05547,-17.69414 28.00153,-21.5725 45.35938,-21.55273 z m 719.9375,0 c 17.35784,-0.0198 40.3039,3.85859 45.35937,21.55273 -16.69147,2.31108 -43.36736,-3.55791 -48.75,-21.5 1.10055,-0.033 2.23342,-0.0517 3.39063,-0.0527 z m -686.79688,4.55273 c 24.42244,34.59845 -34.7157,66.35567 0,0 z m 653.65625,0 c 34.7157,66.35567 -24.42244,34.59845 0,0 z m -681.65625,26 c 24.71689,61.79224 -47.23123,59.0301 0,0 z m 709.65625,0 c 47.23123,59.0301 -24.71689,61.79224 0,0 z m -405.156251,0.5 c 5.17175,4.20205 8.48996,10.72282 6.25,20.25 -7.68358,-4.04399 -14.82824,-13.08345 -6.25,-20.25 z m 100.656251,0 c 8.57824,7.16655 1.43358,16.20601 -6.25,20.25 -2.23996,-9.52718 1.07825,-16.04795 6.25,-20.25 z m -175.917971,3.01562 c 0.39768,-0.0119 0.80709,-0.011 1.22656,0.002 7.51706,0.23282 18.5460199,4.55163 33.53516,15.98242 -41.76065,33.93052 -59.81549,-15.23289 -34.76172,-15.98438 z m 251.179691,0 c 25.05377,0.75149 6.99893,49.9149 -34.76172,15.98438 14.98914,-11.43079 26.0181,-15.7496 33.53516,-15.98242 0.41947,-0.013 0.82888,-0.0137 1.22656,-0.002 z m -519.91797,3.73438 c -3.23751,16.99689 -24.27204,21.59163 -40.75,24.75 3.87102,-15.4841 25.35175,-24.00033 40.75,-24.75 z m 788.65625,0 c 15.39825,0.74967 36.87898,9.2659 40.75,24.75 -16.47796,-3.15837 -37.51249,-7.75311 -40.75,-24.75 z m -417.656251,22 c 10.5137,1.0013 14.6513,9.21995 20.25,18 -8.53119,-1.70624 -20.12112,-6.74411 -20.25,-18 z m 46.656251,0 c -0.12888,11.25589 -11.71881,16.29376 -20.25,18 5.5987,-8.78005 9.7363,-16.9987 20.25,-18 z m -86.906251,2.5 c 8.28134,5.06082 17.94127,9.45739 24.25,17.25 -9.38716,0 -39.59067,-3.09376 -24.25,-17.25 z m 127.156251,0 c 15.34067,14.15624 -14.86284,17.25 -24.25,17.25 6.30873,-7.79261 15.96866,-12.18918 24.25,-17.25 z m -455.57813,3.7832 c 11.5689,11.71085 7.59308,34.71309 -8,40 -13.45765,-7.75723 -2.00562,-29.80558 8,-40 z m 784,0 c 10.00568,10.19442 21.45765,32.24277 8,40 -15.59306,-5.28691 -19.56885,-28.28915 -8,-40 z m -808,8 c 6.18865,15.18848 -16.75676,31.50728 -32,32 5.43025,-16.34592 18.0365,-29.74681 32,-32 z m 832,0 c 13.96354,2.25319 26.56976,15.65408 32,32 -15.24323,-0.49272 -38.18861,-16.81152 -32,-32 z M 8.6933389,776.28171 c 5.2166601,-0.0559 10.3610101,1.34827 14.9785201,5.25195 -10.65232,2.02901 -22.0560201,10.53074 -34.5,0 5.9870899,-2.69419 12.8143499,-5.18007 19.5214799,-5.25195 z m 198.3632911,2.25 c 6.70713,0.0719 13.53438,2.55776 19.52148,5.25195 -12.44398,10.53074 -23.84769,2.02901 -34.5,0 4.6175,-3.90368 9.76186,-5.30785 14.97852,-5.25195 z M 62.671859,790.03366 c 2.40111,14.10648 -7.88298,24.48099 -21.75,22.5 -4.26855,-13.29073 11.387,-20.5261 21.75,-22.5 z m 78.656251,0 c 10.363,1.9739 26.01855,9.20927 21.75,22.5 -13.86703,1.98099 -24.15112,-8.39352 -21.75,-22.5 z m -47.484371,0.69922 c 1.18934,-0.017 2.46364,-10e-4 3.82812,0.0508 4.453551,32.65939 -40.6984,0.47683 -3.82812,-0.0508 z m 14.464841,0 c 0.6378,-0.008 1.25297,-0.009 1.84766,0 36.87022,0.52759 -8.28168,32.71013 -3.82813,0.0508 0.68223,-0.0259 1.34267,-0.0424 1.98047,-0.0508 z m 82.01953,8.05078 c 10.66688,1.50475 15.71606,10.21271 15.25,20 -17.49386,2.82371 -15.80804,-8.28107 -15.25,-20 z m -161.656251,2.5 c 0.55804,11.71893 2.24386,22.82371 -15.25,20 -0.46606,-9.78729 4.58312,-18.49525 15.25,-20 z M -226.00002,1079.0669 c 13.85364,70.3939 136.000009,331 328,331 192,0 314.14638,-260.6061 328,-331 h -100 c 32.17023,108.5621 -108,289 -228,289 -119.999991,0 -260.17021,-180.4379 -228,-289 z"
       id="path4632"
       inkscape:connector-curvature="0" />
    <path
       style="fill:#006300;fill-opacity:1;stroke:none;stroke-width:1px;stroke-linecap:butt;stroke-linejoin:miter;stroke-opacity:1"
       d="m -20.357553,1145.8752 c -3.673828,-0.1523 -5.642578,2.1914 -5.642578,8.1914 0,48 71,109 128.000001,109 57,0 128,-61 128,-109 0,-32 -56,40 -128,40 -58.500001,0 -106.4375011,-47.5312 -122.357423,-48.1914 z"
       id="path4637"
       inkscape:connector-curvature="0" />
    <path
       style="fill:#e70810;fill-opacity:1;stroke:none;stroke-width:1px;stroke-linecap:butt;stroke-linejoin:miter;stroke-opacity:1"
       d="m -103.24611,769.06686 c -53.00769,0.30901 -102.9222,45.82936 -117.75391,99 h 102 c 0,-21 28.999999,-15 28.999999,0 h 47.50196 c -7.49758,-4.32864 -16.16219,-13 -7.50196,-28 -20,5.35898 -25,-12 -25,-25 -11,8 -20.21915,6.84232 -24.999999,-11 -11,19.05256 -15.67948,18 -33,8 5.35898,20 -12,26 -19,19 7,7 5,23 -2,23 h -42 c 63.56017,-120.87447 164.466269,-70.99421 189.9999989,14 H 10.999979 c -29.91836,-72.13017 -73.01789,-99.24034 -114.246089,-99 z m 437.49219,0 c -41.2282,-0.24034 -84.32773,26.86983 -114.2461,99 h 17 c 25.53378,-84.99421 126.43986,-134.87447 190,-14 h -42 c -7,0 -9,-16 -2,-23 -7,7 -24.35896,1 -19,-19 -17.32051,10 -22,11.05256 -33,-8 -4.78083,17.84232 -14,19 -25,11 0,13 -5,30.35898 -25,25 8.66026,15 -0.004,23.67136 -7.50195,28 h 47.50195 c 0,-15 29,-21 29,0 h 102 c -14.8317,-53.17064 -64.74621,-98.69099 -117.7539,-99 z m 139.7539,72 c -3,0 -16,1 -16,23 1e-5,8 3,23 17,23 2,0 15,0 15,-23 0,-23 -13,-23 -16,-23 z m -359,2 v 209.00004 h 62 v -82.00004 c 17,13 24,35.00004 24,47.00004 v 35 h 62 v -26 c 0,-53.00001 -26,-71.00004 -26,-71.00004 17,-18 26.00002,-38 26,-66 h -60 c 0,13 -4,43 -26,55 v -101 z m -355,2 -86,87 h 28 v 68.00004 c 0.0712,56.7791 73.25987,60.4955 88,39 v -61.00004 c -8.78939,15.81973 -21.59961,14.17442 -29,0 v -46 h 27 v -43 h -28 z m 585.11329,43.60352 c -25.78949,-0.0787 -52.80079,9.42773 -63.11329,17.39648 v 47 c 0,0 13,-12 33,-12 21,0 26.98811,14.3017 27,28 -4.29367,-3.26799 -10.42574,-5 -19,-5 -22,0 -45,13.00003 -45,45.00004 0,23 16,43.0002 35,43 15.99991,-3e-4 19,-4 28,-13 v 13 h 61 V 942.06686 c 0,-40.90625 -27.65863,-53.30725 -56.88671,-53.39648 z m -533.11329,0.39648 v 162.00004 h 58 v -78.00004 c 0,-15 10,-22.51754 13,-22.51758 3,0 9,14.51758 27.999999,14.51758 19,0 29.00004,-11 31,-16 v 61.00004 c 0,40 35,42 44,42 29,0 42,-28 42,-28 v 28 h 62 V 889.06686 h -62 v 97 c 0,13 -12,13 -14,13 -2,0 -13.00000011,-1 -13.00000011,-13 v -97 H -58.000021 v 13 c 0,0 -6,-13 -28,-13 -24.999999,0 -33.999999,11 -41.999999,33 v -33 z m 618,2 v 161.00004 h 61 V 891.06686 c -16,9 -44.99998,9 -61,0 z m -99,98 c 9,0 13,6.00006 13,15.00004 0,0 0,18 -13,18 -9,0 -15,-4 -15,-18 0,-13.99998 8,-15.00004 15,-15.00004 z m 203.0254,76.00004 c -3.79602,0 -7.32989,0.938 -10.60352,2.8164 -3.25622,1.8608 -5.80852,4.4097 -7.6543,7.6445 -1.84577,3.2174 -2.76756,6.7124 -2.76758,10.4863 10e-6,3.774 0.92181,7.2869 2.76758,10.5391 1.84578,3.2348 4.39808,5.7917 7.6543,7.6699 3.25621,1.8957 6.79008,2.8438 10.60352,2.8438 3.79602,0 7.3219,-0.9481 10.57812,-2.8438 3.25621,-1.8956 5.79859,-4.4605 7.62695,-7.6953 1.84578,-3.2348 2.76954,-6.7397 2.76953,-10.5137 0,-3.7913 -0.93174,-7.3043 -2.79492,-10.539 -1.86319,-3.2348 -4.41354,-5.7737 -7.65234,-7.6172 -3.23881,-1.8609 -6.74873,-2.791 -10.52734,-2.791 z m 0,4.0683 c 2.99502,0 5.79023,0.7565 8.38476,2.2696 2.61194,1.4956 4.66656,3.5575 6.16406,6.1836 1.49752,2.6086 2.2461,5.417 2.2461,8.4257 0,3.0783 -0.76649,5.9386 -2.29883,8.5821 -1.51493,2.626 -3.5596,4.6879 -6.13672,6.1836 -2.55969,1.4783 -5.34693,2.2168 -8.35937,2.2168 -3.01244,0 -5.8057,-0.7385 -8.38282,-2.2168 -2.5597,-1.4957 -4.60634,-3.5656 -6.13867,-6.209 -1.51493,-2.6434 -2.27344,-5.4957 -2.27344,-8.5567 0,-2.9913 0.74061,-5.7917 2.22071,-8.4004 1.49751,-2.626 3.54414,-4.6959 6.13867,-6.2089 2.59453,-1.5131 5.4057,-2.2696 8.43555,-2.2696 z m -469.025401,4.9317 c 0,29 -3.40834,45.463 -25,45 -41.2188101,-0.8839 -73.99909,-40 -105.5957,-40 -33.40339,0 -35.404289,38 -35.404299,43 0,56 107.0000389,205 203,205 96,0 203.00002,-149 203,-205 0,-5 -2.00089,-43 -35.40429,-43 -31.5966,0 -64.37685,39.1161 -105.59571,40 -21.59163,0.463 -25,-16 -25,-45 h -29 c 0,64 20.37555,80 46.1875,80 25.81198,0 45.28255,-32 73.8125,-32 24,0 24,24 24,32 0,32 -64,130 -152,130 -88.000001,0 -152.000001,-98 -152.000001,-130 0,-8 10e-6,-32 24,-32 28.5299499,0 48.00053,32 73.8125,32 25.81199,0 46.18751,-16 46.1875,-80 z m 460.851571,0.4433 v 22.1739 h 5.35351 v -8.0079 h 1.95899 l 5.51172,8.0079 h 6.52929 l -6.24218,-8.9747 c 2.52487,-1.0608 3.78712,-3.1985 3.7871,-6.416 0,-2.3304 -0.71471,-4.0449 -2.14257,-5.1406 -1.42786,-1.0956 -3.69151,-1.6426 -6.79102,-1.6426 z m 5.35351,4.6172 h 2.7168 c 1.42786,0 2.32378,0.2096 2.68945,0.627 0.38308,0.4 0.57422,1.0087 0.57422,1.8261 0,0.8174 -0.11152,1.3903 -0.33789,1.7207 -0.20895,0.313 -0.54938,0.5307 -1.01953,0.6524 -0.47015,0.1218 -1.17493,0.1836 -2.11523,0.1836 h -2.50782 z"
       id="path4642"
       inkscape:connector-curvature="0" />
  </g>
</svg>
