<?xml version="1.0" encoding="UTF-8" standalone="no"?>
<!-- Created with Inkscape (http://www.inkscape.org/) -->

<svg
   xmlns:dc="http://purl.org/dc/elements/1.1/"
   xmlns:cc="http://creativecommons.org/ns#"
   xmlns:rdf="http://www.w3.org/1999/02/22-rdf-syntax-ns#"
   xmlns:svg="http://www.w3.org/2000/svg"
   xmlns="http://www.w3.org/2000/svg"
   xmlns:sodipodi="http://sodipodi.sourceforge.net/DTD/sodipodi-0.dtd"
   xmlns:inkscape="http://www.inkscape.org/namespaces/inkscape"
   width="128"
   height="172"
   viewBox="0 0 128 172"
   version="1.1"
   id="svg8"
   inkscape:version="0.92.2 5c3e80d, 2017-08-06"
   sodipodi:docname="National_No1.svg">
  <defs
     id="defs2" />
  <sodipodi:namedview
     id="base"
     pagecolor="#ffffff"
     bordercolor="#666666"
     borderopacity="1.0"
     inkscape:pageopacity="0.0"
     inkscape:pageshadow="2"
     inkscape:zoom="2"
     inkscape:cx="65.178409"
     inkscape:cy="30.161386"
     inkscape:document-units="px"
     inkscape:current-layer="layer1"
     showgrid="false"
     units="px"
     inkscape:snap-intersection-paths="false"
     inkscape:object-nodes="true"
     inkscape:snap-smooth-nodes="true"
     inkscape:window-width="1920"
     inkscape:window-height="2032"
     inkscape:window-x="1920"
     inkscape:window-y="60"
     inkscape:window-maximized="0">
    <inkscape:grid
       type="xygrid"
       id="grid852"
       empspacing="8" />
  </sodipodi:namedview>
  <metadata
     id="metadata5">
    <rdf:RDF>
      <cc:Work
         rdf:about="">
        <dc:format>image/svg+xml</dc:format>
        <dc:type
           rdf:resource="http://purl.org/dc/dcmitype/StillImage" />
        <dc:title />
      </cc:Work>
    </rdf:RDF>
  </metadata>
  <g
     inkscape:label="Layer 1"
     inkscape:groupmode="layer"
     id="layer1"
     transform="translate(0,-878.06667)">
    <rect
       style="opacity:1;fill:#a02324;fill-opacity:1;fill-rule:nonzero;stroke:none;stroke-width:13.20777702;stroke-linecap:round;stroke-linejoin:round;stroke-miterlimit:4;stroke-dasharray:none;stroke-opacity:1;paint-order:stroke fill markers"
       id="rect830"
       width="408.18793"
       height="408.18793"
       x="-140.09396"
       y="759.97272" />
    <g
       id="g1048"
       transform="translate(-1.49995,-44.242543)">
      <g
         style="stroke:#ffffff"
         id="g880">
        <path
           style="fill:none;stroke:#ffffff;stroke-width:2;stroke-linecap:round;stroke-linejoin:round;stroke-miterlimit:4;stroke-dasharray:none;stroke-opacity:1"
           d="m 5,952.06667 v -14 l 10,14 v -14"
           id="path819"
           inkscape:connector-curvature="0"
           sodipodi:nodetypes="cccc" />
        <g
           style="stroke:#ffffff"
           id="g847"
           transform="translate(1)">
          <path
             sodipodi:nodetypes="ccc"
             inkscape:connector-curvature="0"
             d="m 32,952.06667 -6,-14 -6,14"
             style="fill:none;stroke:#ffffff;stroke-width:2;stroke-linecap:round;stroke-linejoin:round;stroke-miterlimit:4;stroke-dasharray:none;stroke-opacity:1"
             id="path823" />
          <path
             inkscape:connector-curvature="0"
             id="path826"
             d="m 23,946.06667 h 6"
             style="fill:none;stroke:#ffffff;stroke-width:2;stroke-linecap:butt;stroke-linejoin:miter;stroke-miterlimit:4;stroke-dasharray:none;stroke-opacity:1" />
        </g>
        <path
           style="fill:none;stroke:#ffffff;stroke-width:2;stroke-linecap:round;stroke-linejoin:miter;stroke-miterlimit:4;stroke-dasharray:none;stroke-opacity:1"
           d="M 36,938.06667 H 46"
           id="path828"
           inkscape:connector-curvature="0" />
        <path
           style="fill:none;stroke:#ffffff;stroke-width:2;stroke-linecap:round;stroke-linejoin:round;stroke-miterlimit:4;stroke-dasharray:none;stroke-opacity:1"
           d="m 41,938.06667 v 14"
           id="path830"
           inkscape:connector-curvature="0" />
        <path
           inkscape:connector-curvature="0"
           id="path832"
           d="m 53,938.06667 v 14"
           style="fill:none;stroke:#ffffff;stroke-width:2;stroke-linecap:round;stroke-linejoin:round;stroke-miterlimit:4;stroke-dasharray:none;stroke-opacity:1" />
        <path
           id="path840"
           style="fill:none;stroke:#ffffff;stroke-width:2;stroke-linecap:butt;stroke-linejoin:miter;stroke-miterlimit:4;stroke-dasharray:none;stroke-opacity:1"
           d="m 73,945.06667 c 0,-4 -3,-7 -6,-7 -3,0 -6,3 -6,7 0,4 3,7 6,7 3,0 6,-3 6,-7 z"
           inkscape:connector-curvature="0"
           sodipodi:nodetypes="ccccc" />
        <path
           style="fill:none;stroke:#ffffff;stroke-width:2;stroke-linecap:round;stroke-linejoin:round;stroke-miterlimit:4;stroke-dasharray:none;stroke-opacity:1"
           d="m 80,952.06667 v -14 l 10,14 v -14"
           id="path843"
           inkscape:connector-curvature="0" />
        <g
           style="stroke:#ffffff"
           id="g853"
           transform="translate(76)">
          <path
             id="path849"
             style="fill:none;stroke:#ffffff;stroke-width:2;stroke-linecap:round;stroke-linejoin:round;stroke-miterlimit:4;stroke-dasharray:none;stroke-opacity:1"
             d="m 32,952.06667 -6,-14 -6,14"
             inkscape:connector-curvature="0"
             sodipodi:nodetypes="ccc" />
          <path
             style="fill:none;stroke:#ffffff;stroke-width:2;stroke-linecap:butt;stroke-linejoin:miter;stroke-miterlimit:4;stroke-dasharray:none;stroke-opacity:1"
             d="m 23,946.06667 h 6"
             id="path851"
             inkscape:connector-curvature="0" />
        </g>
        <path
           id="path857"
           style="fill:none;stroke:#ffffff;stroke-width:2;stroke-linecap:round;stroke-linejoin:round;stroke-miterlimit:4;stroke-dasharray:none;stroke-opacity:1"
           d="m 115,938.06667 v 14 h 8"
           inkscape:connector-curvature="0"
           sodipodi:nodetypes="ccc" />
      </g>
      <path
         sodipodi:nodetypes="ccsccccccccsccccccccc"
         inkscape:connector-curvature="0"
         id="path860"
         d="m 28,958.06667 16,37 v -25 c 0,-6 -4,-6 -4,-6 v -6 h 16 v 6 c 0,0 -4,0 -4,6 v 68.00003 H 44 L 21,989.06667 v 32.00003 c 0,6 6,6 6,6 v 11 H 5 v -11 c 0,0 6,0 6,-6 v -51.00003 c 0,-6 -4,-6 -4,-6 v -6 z"
         style="fill:#fff339;fill-opacity:1;stroke:#fff339;stroke-width:2;stroke-linecap:butt;stroke-linejoin:round;stroke-miterlimit:4;stroke-dasharray:none;stroke-opacity:1" />
      <path
         transform="translate(0,922.06667)"
         id="path912"
         d="M 73.5,36 C 61.5,36 57,54 57,64 57,71.248291 59.367461,82.693956 65.238281,88.447266 66.374098,88.16013 67.623906,88 69,88 c 3.632341,0 6.175954,1.884436 7.994141,3.4375 C 86.381426,88.338915 90,72.961701 90,64 90,54 85.5,36 73.5,36 Z m 0,8 c 4.5,0 4.5,7 4.5,7 v 25 c 0,0 0,7 -4.5,7 C 69,83 69,76 69,76 V 51 c 0,0 0,-7 4.5,-7 z"
         style="fill:#fff339;fill-opacity:1;stroke:#fff339;stroke-width:2;stroke-linecap:round;stroke-linejoin:round;stroke-miterlimit:4;stroke-dasharray:none;stroke-opacity:1"
         inkscape:connector-curvature="0" />
      <path
         transform="translate(0,922.06667)"
         id="path984"
         d="m 69,92 c -2.612859,0 -4.143196,0.579816 -5.310547,1.478516 C 62.604781,94.313616 61.779283,95.5797 61,97.1875 V 104 h 1.867188 c 0.145889,-0.6028 0.361933,-1.21519 0.75,-1.80859 C 64.448528,100.92001 66.118558,100 68,100 c 3,0 4.872241,2.04362 6.550781,3.48242 C 76.229322,104.92112 77.666667,106 80,106 c 2.612859,0 4.143196,-0.57982 5.310547,-1.47852 1.084672,-0.8351 1.91017,-2.10128 2.689453,-3.70898 V 94 h -1.867188 c -0.145889,0.6027 -0.361934,1.215094 -0.75,1.808594 C 84.551473,97.079894 82.881443,98 81,98 78,98 76.127759,95.956378 74.449219,94.517578 72.770678,93.078878 71.333333,92 69,92 Z"
         style="opacity:1;fill:#fff339;fill-opacity:1;stroke:#fff339;stroke-width:2;stroke-linecap:round;stroke-linejoin:round;stroke-miterlimit:4;stroke-dasharray:none;stroke-opacity:1"
         inkscape:connector-curvature="0" />
      <path
         sodipodi:nodetypes="cccscccccccc"
         inkscape:connector-curvature="0"
         id="path989"
         d="m 97,974.06667 c 6,-3 12.0656,-6.86707 12,-15 h 11 v 63.00003 c 0,6 6,6 6,6 v 10 H 96 v -10 c 0,0 6,0 6,-6 v -40.00003 h -5 z"
         style="fill:#fff339;fill-opacity:1;stroke:#fff339;stroke-width:2;stroke-linecap:round;stroke-linejoin:round;stroke-miterlimit:4;stroke-dasharray:none;stroke-opacity:1" />
      <path
         sodipodi:nodetypes="cccccsccccccccccccsccccccccccsccccccccccccccssccccsscsccsssccccsccccccsccsccccccccssssscccssccccccccccccccsscccsccccc"
         inkscape:connector-curvature="0"
         id="path1017"
         transform="translate(0,922.06667)"
         d="m 72.212891,121.90625 c -0.436372,-0.0207 -1.618007,0.32426 -2.847657,0.84375 l -2.55664,1.08008 0.265625,2.30664 c 0.229849,2.0041 -0.171569,3.3916 -3.056641,10.5664 -1.826537,4.54231 -3.320312,8.56591 -3.320312,8.94141 0,0.37537 0.452197,1.13524 1.005859,1.68945 1.363188,1.3635 5.035452,1.34384 7.900391,-0.043 4.189992,-2.0284 7.87101,-7.53699 7.93164,-11.86719 0.04955,-3.5372 -1.090836,-4.80362 -4.226562,-4.69922 -1.257351,0.044 -2.445572,0.0562 -2.640625,0.0312 -0.195049,-0.0246 0.19974,-1.23485 0.876953,-2.68945 1.231508,-2.6451 1.624978,-5.62246 0.808594,-6.12696 -0.0298,-0.0184 -0.07829,-0.0302 -0.140625,-0.0332 z m 44.742189,1.41211 c -1.99662,-0.0448 -3.94296,0.81622 -5.09766,2.46484 -1.27931,1.8265 -0.94952,3.6228 1.15039,6.2793 2.96344,3.7491 3.35526,4.65444 2.41992,5.58984 -1.07224,1.0722 -2.34179,-6.6e-4 -2.34179,-1.98046 0,-3.37291 -3.38198,-1.71603 -3.86328,1.89257 -0.20437,1.5323 -0.0148,2.27608 0.86523,3.39258 0.8087,1.026 1.41169,1.0446 2.18945,1.1582 4.62999,0.6764 7.85538,-2.71512 7.85938,-6.51562 0.003,-1.9259 -0.10868,-2.08436 -3.71289,-5.31836 -1.52718,-1.3703 -1.60485,-1.7307 -0.5625,-2.5957 0.63918,-0.5305 0.84428,-0.38655 1.29492,0.90625 0.66836,1.9172 1.76941,2.37048 3.30664,1.36328 1.70178,-1.1151 1.69133,-4.43304 -0.0176,-5.55274 -1.0758,-0.70492 -2.29226,-1.05708 -3.49023,-1.08398 z m -10.125,1.85156 c -1.84066,0 -4.07718,0.31281 -4.96875,0.69531 -2.103315,0.9025 -4.636297,3.59333 -5.632814,5.98243 -0.949637,2.2767 -1.540144,7.31938 -1.074219,9.17578 0.616178,2.4549 4.118054,3.12499 7.984373,1.52929 1.14347,-0.4719 1.12193,-0.29334 -0.42383,3.68946 -0.82852,2.1346 -2.01462,4.04794 -3.253902,5.24804 -4.594012,4.4488 -6.804573,0.3656 -2.708985,-5.0039 1.446649,-1.8968 1.106353,-2.26813 -1.529297,-1.67383 -3.777353,0.8519 -5.928034,4.89687 -4.810547,9.04688 0.608027,2.25819 1.430922,3.04918 3.66211,3.52148 1.802213,0.3815 5.189131,-0.20387 6.398441,-1.10547 4.97675,-3.7102 6.46222,-7.38584 8.09375,-20.02344 0.55443,-4.2945 1.14324,-8.54481 1.30859,-9.44531 l 0.30078,-1.63672 z m -16.945314,1.58594 c -3.448547,0.0514 -8.168463,3.83641 -10.302735,8.58984 -1.79552,3.9991 -2.193709,7.47264 -1.054687,9.21094 0.97943,1.4948 2.653968,1.63775 5.873047,0.50195 1.473715,-0.5198 2.334734,-0.60075 2.683593,-0.25195 0.282425,0.2824 1.060622,0.51367 1.730469,0.51367 1.508741,0 5.128906,-3.49051 5.128906,-4.94531 0,-0.9018 -0.225911,-0.9992 -1.761718,-0.75 -0.969725,0.1568 -1.763672,0.11666 -1.763672,-0.0898 0,-0.2064 0.719095,-2.64257 1.597656,-5.41407 1.733679,-5.469 1.64667,-6.29869 -0.742187,-7.15039 -0.42948,-0.15307 -0.896023,-0.22218 -1.388672,-0.21484 z m 14.927734,2.94726 c 0.99078,0 1.22266,0.25782 1.22266,1.35352 0,0.7437 -0.47287,2.32788 -1.05078,3.52148 -0.57791,1.1939 -1.67975,2.61757 -2.44727,3.16407 -1.1993,0.854 -1.52632,0.8998 -2.32422,0.3164 -0.844103,-0.6173 -0.865911,-0.86616 -0.251952,-2.72656 0.942422,-2.8554 3.332972,-5.62891 4.851562,-5.62891 z m -16.945312,2.13282 c 0.07612,-0.006 0.14434,0.002 0.205078,0.0215 1.812666,0.5946 -0.151767,6.28669 -2.8125,8.15039 -1.440729,1.009 -1.749093,0.98272 -2.384766,-0.20508 -0.389985,-0.7287 -0.316785,-1.51317 0.285156,-3.01757 0.810848,-2.0265 3.565253,-4.86481 4.707032,-4.94922 z m -45.279297,0.45703 c -0.890792,0.0823 -1.9676,0.49416 -3.5,1.25781 -2.935332,1.4627 -5.015425,3.90736 -6.916016,8.13086 -1.558384,3.4631 -1.646486,7.72269 -0.189453,9.17969 1.194129,1.1941 2.19793,1.25397 4.921875,0.29297 1.200907,-0.422 2.878324,-0.6001 4.119141,-0.4336 1.807325,0.2424 2.293144,0.0895 3.554687,-1.11914 0.803569,-0.7698 1.695428,-2.07328 1.982422,-2.89648 0.511667,-1.4677 0.491309,-1.49334 -1.005859,-1.27344 -0.839758,0.1232 -1.641408,0.0387 -1.78125,-0.1875 -0.139843,-0.2263 0.323125,-2.24106 1.029296,-4.47656 1.600499,-5.0665 1.637423,-6.73102 0.166016,-7.76172 -0.78462,-0.54955 -1.490067,-0.79519 -2.380859,-0.71289 z m -13.111329,0.43359 c -4.573465,0 -10.075689,6.69414 -10.648705,13.5509 -0.288678,3.45435 0.552639,4.84895 1.172143,5.96863 1.311015,2.36951 9.410755,-0.043 9.453125,-3.58007 0.0084,-0.7022 -0.209306,-0.84004 -0.871094,-0.55274 -1.54714,0.6714 -4.026692,0.84689 -4.359375,0.3086 -0.176955,-0.28641 0.646855,-1.19373 1.830078,-2.01563 4.559299,-3.1674 6.433594,-5.95979 6.433594,-9.58789 0,-2.1109 -1.457487,-4.0918 -3.009766,-4.0918 z m 41.833985,2.75586 c 0.331108,0.008 0.656955,0.0985 0.976562,0.26953 2.065046,1.1051 0.4575,5.09392 -2.988281,7.41602 -3.452285,2.3265 -4.365145,0.92033 -2.261719,-3.48047 1.325517,-2.77339 2.838638,-4.24159 4.273438,-4.20508 z m -10.103516,1.63672 c -0.254894,-0.0829 -0.685453,0.0977 -1.28125,0.56641 -1.10172,0.8667 -1.426118,0.88979 -3.794922,0.27539 -2.157828,-0.559 -2.85525,-0.5591 -4.175781,0 -1.959232,0.82942 -3.162913,2.14913 -3.615234,3.95898 -0.386084,1.54976 0.271547,1.836 1.320312,0.57227 1.30258,-1.5695 2.605218,-1.67704 4.828125,-0.39844 3.452385,1.9857 4.807777,1.46478 6.457031,-2.48242 0.620352,-1.48475 0.686542,-2.35406 0.261719,-2.49219 z m -19.935547,0.72852 c 0.260292,0.0707 0.283204,0.45172 0.283204,1.20117 0,1.6059 -1.230165,4.08238 -2.923829,5.89258 -1.487672,1.5901 -1.762965,1.65999 -2.597656,0.65429 -1.126702,-1.3577 1.101458,-5.83229 3.529297,-7.08789 0.950236,-0.49135 1.448693,-0.73085 1.708984,-0.66015 z m -13.689453,0.0859 c 0.128429,-0.0156 0.242078,0.002 0.333985,0.0586 0.853258,0.5275 0.65228,1.12059 -1.023438,3.02929 -1.972214,2.2462 -3.135389,2.40478 -2.412109,0.33008 0.54306,-1.55785 2.202558,-3.30882 3.101562,-3.41797 z"
         style="fill:#ffffff;stroke-width:1" />
      <path
         sodipodi:nodetypes="cccccscscssscccccc"
         inkscape:connector-curvature="0"
         id="path1020"
         transform="translate(0,922.06667)"
         d="m 27.695312,122.08984 -6.863281,2.50782 c -7.446109,2.7233 -12.4595548,5.07176 -13.4941404,6.31836 -0.9403072,1.1329 -0.255475,3.24415 1.2792969,3.94336 1.0401824,0.47399 1.7626455,0.42292 3.7070315,-0.26758 1.327886,-0.4717 2.553997,-0.85742 2.724609,-0.85742 0.56842,0 0.320106,2.54883 -0.382812,3.92773 -0.381408,0.7481 -1.508921,3.75544 -2.503907,6.68164 -1.818196,5.3472 -1.993236,7.73422 -0.746093,10.16992 0.857422,1.6745 3.704787,1.43177 5.355468,-1.04297 l 1.271485,-1.90624 c 0.971994,-1.45724 -0.140532,-2.10664 -0.597657,-1.92188 -2.435751,0.98446 -1.683748,-1.95244 0.767579,-8.27735 1.11846,-2.968 2.503916,-6.55484 2.851562,-8.27734 l 0.632813,-3.13281 3.203125,-1.76367 c 4.05284,-2.2304 4.94847,-3.44174 3.691406,-4.99414 z"
         style="fill:#ffffff;stroke-width:1" />
    </g>
  </g>
</svg>
