<svg width="196" height="128" version="1.1" viewBox="0 0 196 128" xmlns="http://www.w3.org/2000/svg">
 <g transform="translate(0 -922.07)">
  <g transform="translate(-1.5 -44.243)">
   <rect x="-81.873" y="848.94" width="362.75" height="362.75" style="fill:#a02324;paint-order:stroke fill markers"/>
   <g transform="translate(27 9.9824)">
    <path d="m8.9023 964.31v7.4629h1v-5.5723l4.6016 5.5723h0.73633v-7.4629h-1v5.5703l-4.6016-5.5703zm11.908 0-3.0332 7.4629h1.0781l1.127-2.7695h2.5449l1.2754 2.7695h1.1016l-3.4355-7.4629zm4.6406 0v1h2.6699v6.4629h1v-6.4629h2.668v-1zm9.0762 0v7.4629h1v-7.4629zm7.9727 0c-1.8897 0-3.7031 1.595-3.7031 3.7305 0 2.1355 1.8134 3.7324 3.7031 3.7324 1.8897 0 3.7031-1.5969 3.7031-3.7324 0-2.1355-1.8134-3.7305-3.7031-3.7305zm6.4395 0v7.4629h1v-5.5742l4.6035 5.5742h0.73633v-7.4629h-1v5.5742l-4.6035-5.5742zm11.908 0-3.0664 7.4629h1.082l1.1367-2.7695h2.5469l1.2617 2.7695h1.0996l-3.4023-7.4629zm6.7773 0v7.4629h5.2695v-1h-4.2695v-6.4629zm-25.125 1c1.3133 0 2.7031 1.1732 2.7031 2.7305 0 1.5572-1.3899 2.7324-2.7031 2.7324-1.3133 0-2.7031-1.1752-2.7031-2.7324 0-1.5573 1.3899-2.7305 2.7031-2.7305zm18.709 0.75586 0.88281 1.9375h-1.6797zm-40.033 2e-3 0.89258 1.9355h-1.6797z" style="color-rendering:auto;color:#000000;dominant-baseline:auto;fill:#fff;font-feature-settings:normal;font-variant-alternates:normal;font-variant-caps:normal;font-variant-ligatures:normal;font-variant-numeric:normal;font-variant-position:normal;image-rendering:auto;isolation:auto;mix-blend-mode:normal;shape-padding:0;shape-rendering:auto;solid-color:#000000;text-decoration-color:#000000;text-decoration-line:none;text-decoration-style:solid;text-indent:0;text-orientation:mixed;text-transform:none;white-space:normal"/>
    <path transform="translate(1.5 966.31)" d="m8.5117 11.375c-0.40937 4e-5 -0.74214 0.28816-0.74219 0.64258v5.3574c1.6932 1.4132 2.7366 3.0133 2.9629 5.625v29.447c-9e-6 1.508-2.7324 3.4938-2.7324 5.0449v7.8672c1.54e-5 0.22178 0.033312 0.43139 0.087891 0.63086 0.020096 0.07347 0.055862 0.13705 0.082031 0.20703 0.044264 0.11848 0.085621 0.23818 0.14453 0.3457 0.041435 0.07565 0.09145 0.13927 0.13867 0.20898 0.061187 0.09039 0.11891 0.18015 0.1875 0.25977 0.053189 0.06181 0.10782 0.11313 0.16406 0.16797 0.048101 0.04694 0.093072 0.10299 0.14258 0.14453l0.37305 0.3125 124.68 40.363v-78.803l-19.74-16.504c-0.0445-0.0374-0.0897-0.0727-0.13477-0.10547-0.55093-0.40081-1.1621-0.57027-1.7988-0.57031h-9.7051c-0.64008 4e-5 -1.2558 0.17086-1.8086 0.57617s-0.78451 1.213-1.0723 2.0918c-1.7402 5.3145-6.22 5.6004-9.6191 7.6328-1.77-2.6726-5.9875-10.943-18.814-10.943-3.2384 0-6.0934 0.91487-8.3926 2.377-0.58557 0.37238-1.112 0.79306-1.6152 1.2324v-0.9668c-9.4e-5 -0.60694-0.23919-1.1278-0.55469-1.5352l-0.0098-0.03516-0.02344-0.01172c-0.15378-0.19054-0.32009-0.36168-0.4941-0.48828-0.55093-0.40081-1.1641-0.57222-1.8008-0.57227h-16.66c-0.63671 5e-5 -1.2499 0.17146-1.8008 0.57227-0.55093 0.40081-1.0819 1.1504-1.082 2.0703v0.4707l-2.957-2.4805c-0.02489-0.02089-0.05277-0.03306-0.07813-0.05273-0.0961-0.07466-0.19515-0.14105-0.29688-0.19922-0.03781-0.0216-0.07482-0.04499-0.11328-0.06445-0.05038-0.02553-0.10292-0.04049-0.1543-0.0625-0.15797-0.06764-0.31805-0.12253-0.48242-0.16016-0.05757-0.01319-0.11388-0.0272-0.17188-0.03711-0.20583-0.035244-0.41344-0.056627-0.61914-0.056647h-21.354z" style="color-rendering:auto;color:#000000;dominant-baseline:auto;font-feature-settings:normal;font-variant-alternates:normal;font-variant-caps:normal;font-variant-ligatures:normal;font-variant-numeric:normal;font-variant-position:normal;image-rendering:auto;isolation:auto;mix-blend-mode:normal;paint-order:stroke fill markers;shape-padding:0;shape-rendering:auto;solid-color:#000000;stroke-linejoin:round;stroke-width:6;stroke:#fff;text-decoration-color:#000000;text-decoration-line:none;text-decoration-style:solid;text-indent:0;text-orientation:mixed;text-transform:none;white-space:normal"/>
    <path d="m14.146 979.68a0.8822 0.64183 0 0 0 -0.88211 0.64176v3.8506a0.8822 0.64183 0 0 0 0.88211 0.64177s0.57901-4e-3 1.2353 0.35348c0.65629 0.3581 1.411 1.0727 1.411 2.8554v32.73c0 1.7114-1.046 2.3905-2.1588 2.7952-1.1128 0.4049-2.2518 0.4137-2.2518 0.4137a0.8822 0.64183 0 0 0 -0.88211 0.6418v7.0594a0.8822 0.64183 0 0 0 0.88211 0.6418h19.407a0.8822 0.64183 0 0 0 0.88211 -0.6418v-7.0594a0.8822 0.64183 0 0 0 -0.88211 -0.6418s-1.139-0.01-2.2518-0.4137c-1.1128-0.4047-2.1588-1.0838-2.1588-2.7952v-17.66l18.609 28.843a0.8822 0.64183 0 0 0 0.79768 0.3685h7.0569a0.8822 0.64183 0 0 0 0.88212 -0.6418v-43.64c0-1.7827 0.75474-2.4973 1.411-2.8554 0.65629-0.35811 1.2353-0.35348 1.2353-0.35348a0.8822 0.64183 0 0 0 0.88211 -0.64177v-3.8506a0.8822 0.64183 0 0 0 -0.88211 -0.64176h-14.114a0.8822 0.64183 0 0 0 -0.88212 0.64176v3.8506a0.8822 0.64183 0 0 0 0.88212 0.64177s0.57901-4e-3 1.2353 0.35348c0.65629 0.3581 1.411 1.0727 1.411 2.8554v12.943l-12.422-20.899a0.8822 0.64183 0 0 0 -0.80976 -0.38731zm58.661 0c-2.8669 0-5.3304 0.79888-7.3205 2.0644-1.9901 1.2656-3.5351 2.9866-4.7293 4.8897-2.3883 3.8062-3.3872 8.352-3.3872 11.657 0 4.7914 2.0207 12.219 7.5324 16.148a0.8822 0.64183 0 0 0 0.83388 0.1642c0.92845-0.1707 1.9558-0.2682 3.1012-0.2682 2.899 0 4.9169 1.0807 6.4798 2.0519a0.8822 0.64183 0 0 0 0.84938 0.1216c4.5207-1.0857 7.5028-4.2412 9.3862-7.7702 1.8835-3.5291 2.6911-7.4855 2.6911-10.448 0-3.3051-0.99885-7.851-3.3872-11.657-1.1942-1.9031-2.7392-3.6242-4.7293-4.8897-1.9901-1.2656-4.4536-2.0644-7.3205-2.0644zm31.315 0.64176a0.8822 0.64183 0 0 0 -0.88211 0.64679c0.0272 2.4494-1.1724 4.1807-3.0409 5.6004-1.8685 1.4197-4.4398 2.495-7.0569 3.447a0.8822 0.64183 0 0 0 -0.48758 0.57408v5.1341a0.8822 0.64183 0 0 0 0.88212 0.64177h3.5284v25.029c0 1.7114-1.046 2.3905-2.1588 2.7952-1.1128 0.4048-2.2518 0.4137-2.2518 0.4137a0.8822 0.64183 0 0 0 -0.88211 0.6417v6.4177a0.8822 0.64183 0 0 0 0.88211 0.6418h26.463a0.8822 0.64183 0 0 0 0.88211 -0.6418v-6.4177a0.8822 0.64183 0 0 0 -0.88211 -0.6417s-1.139-0.01-2.2518-0.4137c-1.1128-0.4047-2.1588-1.0838-2.1588-2.7952v-40.431a0.8822 0.64183 0 0 0 -0.88212 -0.64177zm-31.315 5.7759c0.76368 0 1.2386 0.18783 1.6608 0.50639 0.42225 0.31858 0.75156 0.79261 0.97343 1.2948 0.44377 1.0044 0.45312 2.0494 0.45312 2.0494v16.044s-9e-3 1.0449-0.45312 2.0494c-0.22187 0.5022-0.55118 0.9775-0.97343 1.296-0.42223 0.3186-0.89717 0.5052-1.6608 0.5052s-1.2369-0.1866-1.6591-0.5052c-0.42223-0.3185-0.75155-0.7938-0.97342-1.296-0.44377-1.0045-0.45485-2.0494-0.45485-2.0494v-16.044s0.0111-1.045 0.45485-2.0494c0.22187-0.50221 0.55119-0.97624 0.97342-1.2948 0.42223-0.31856 0.89545-0.50639 1.6591-0.50639zm-3.9695 29.521c-2.4353 0-4.0423 0.421-5.222 1.0817-1.1269 0.6312-1.9126 1.5368-2.6274 2.6097a0.8822 0.64183 0 0 0 -0.0896 0.2795v4.3721a0.8822 0.64183 0 0 0 0.88212 0.6418h1.6471a0.8822 0.64183 0 0 0 0.858 -0.4901c0.11397-0.3427 0.27046-0.6585 0.5427-0.9614 0.54387-0.6052 1.7549-1.1156 3.127-1.1156 2.2458 0 3.6569 1.1154 5.2048 2.0807 1.5041 0.938 3.0504 1.7699 5.3806 1.7699 2.4353 0 4.0441-0.421 5.2238-1.0817 1.1269-0.6312 1.9126-1.5369 2.6274-2.6097a0.8822 0.64183 0 0 0 0.0879 -0.2795v-4.3721a0.8822 0.64183 0 0 0 -0.88212 -0.6418h-1.6471a0.8822 0.64183 0 0 0 -0.85627 0.4914c-0.11399 0.3426-0.27042 0.6572-0.5427 0.9601-0.54389 0.6051-1.7567 1.1156-3.1288 1.1156-2.2457 0-3.6569-1.1154-5.2048-2.0807-1.5041-0.938-3.0504-1.7699-5.3806-1.7699z" style="fill:#fff339"/>
    <g style="fill:#fff;stroke:#fff">
     <path d="m90.5 1035.3v4h-1c0-3-1-3-2-3s-2 0-2 1v11c0 1 1 2 2 2v1h-5v-1c1 0 2-1 2-2v-11c0-1-1-1-2-1s-2 0-2 3h-1v-4z" style="fill:#fff;stroke-linecap:round;stroke-linejoin:round;stroke-width:1px;stroke:#fff"/>
     <path transform="translate(1.5 966.31)" d="m92 69v1c1 1 1 2 1 2v10s0 1-1 2v1h9v-4h-1c0 2 0 3-2 3l-2-3e-6c-1 0-2 0-2-1v-5c0-1 1-1 1-1h2c1 0 2 1 2 2v-5c0 1-1 2-2 2h-2s-1 0-1-1v-4c0-1 1-1 2-1h2c2 0 2 1 2 3h1v-4z" style="fill:#fff;stroke-linejoin:round;stroke-width:1px;stroke:#fff"/>
     <g style="fill:#fff;stroke:#fff">
      <g style="fill:#fff;stroke:#fff">
       <path d="m111.5 1035.3h-1l-4 13c-0.3077 1-1 2-2 3h4v-1c-1 0-1.3687-0.8483-1-2z" style="fill:#fff;stroke-linecap:round;stroke-linejoin:round;stroke-width:1px;stroke:#fff"/>
       <path d="m110.5 1035.3h1l4 13c0.3077 1 1 2 2 3h-4v-1c1 0 1.3687-0.8483 1-2z" style="fill:#fff;stroke-linecap:round;stroke-linejoin:round;stroke-width:1px;stroke:#fff"/>
      </g>
      <path d="m107.5 1048.3c0.5967-1.939 1-2 3-2h1c2 0 2.4033 0.061 3 2l-1.5385-5c0.60608 1.9698-0.46154 2-1.4615 2h-1c-1 0-2.0676-0.03-1.4615-2z" style="fill:#fff;stroke-width:1px;stroke:#fff"/>
     </g>
    </g>
   </g>
  </g>
 </g>
</svg>
