<?xml version="1.0" encoding="UTF-8" standalone="no"?>
<!-- Created with Inkscape (http://www.inkscape.org/) -->

<svg
   xmlns:dc="http://purl.org/dc/elements/1.1/"
   xmlns:cc="http://creativecommons.org/ns#"
   xmlns:rdf="http://www.w3.org/1999/02/22-rdf-syntax-ns#"
   xmlns:svg="http://www.w3.org/2000/svg"
   xmlns="http://www.w3.org/2000/svg"
   xmlns:sodipodi="http://sodipodi.sourceforge.net/DTD/sodipodi-0.dtd"
   xmlns:inkscape="http://www.inkscape.org/namespaces/inkscape"
   width="196"
   height="128"
   viewBox="0 0 196 128"
   version="1.1"
   id="svg8"
   inkscape:version="0.92.2 5c3e80d, 2017-08-06"
   sodipodi:docname="National_No1_alt.svg">
  <sodipodi:namedview
     id="base"
     pagecolor="#ffffff"
     bordercolor="#666666"
     borderopacity="1.0"
     inkscape:pageopacity="0.0"
     inkscape:pageshadow="2"
     inkscape:zoom="4"
     inkscape:cx="81.141151"
     inkscape:cy="17.664379"
     inkscape:document-units="px"
     inkscape:current-layer="g1048"
     showgrid="false"
     units="px"
     inkscape:snap-intersection-paths="true"
     inkscape:object-nodes="true"
     inkscape:snap-smooth-nodes="true"
     inkscape:window-width="1920"
     inkscape:window-height="2032"
     inkscape:window-x="1920"
     inkscape:window-y="60"
     inkscape:window-maximized="0"
     inkscape:object-paths="true"
     inkscape:snap-global="true">
    <inkscape:grid
       empspacing="8"
       id="grid852"
       type="xygrid" />
  </sodipodi:namedview>
  <defs
     id="defs2" />
  <metadata
     id="metadata5">
    <rdf:RDF>
      <cc:Work
         rdf:about="">
        <dc:format>image/svg+xml</dc:format>
        <dc:type
           rdf:resource="http://purl.org/dc/dcmitype/StillImage" />
        <dc:title></dc:title>
      </cc:Work>
    </rdf:RDF>
  </metadata>
  <g
     transform="translate(0,-922.06667)"
     id="layer1"
     inkscape:groupmode="layer"
     inkscape:label="Layer 1">
    <g
       transform="translate(-1.49995,-44.242543)"
       id="g1048">
      <rect
         style="opacity:1;fill:#782121;fill-opacity:1;fill-rule:nonzero;stroke:#ffffff;stroke-width:2;stroke-linecap:round;stroke-linejoin:round;stroke-miterlimit:4;stroke-dasharray:none;stroke-opacity:1"
         id="rect882"
         width="529.39703"
         height="623.86334"
         x="-167.89709"
         y="718.3092"
         rx="10.957046" />
      <g
         style="stroke:#000000;stroke-width:2.01449776;stroke-linecap:butt;stroke-linejoin:miter;stroke-miterlimit:4;stroke-dasharray:none"
         id="g847"
         transform="matrix(0.53383204,0,0,0.46159573,8.9023237,536.2288)" />
      <g
         style="stroke:#000000;stroke-width:2.01449776;stroke-linecap:butt;stroke-linejoin:miter;stroke-miterlimit:4;stroke-dasharray:none"
         id="g853"
         transform="matrix(0.53383204,0,0,0.46159573,48.939727,536.2288)" />
      <path
         style="color:#000000;font-style:normal;font-variant:normal;font-weight:normal;font-stretch:normal;font-size:medium;line-height:normal;font-family:sans-serif;font-variant-ligatures:normal;font-variant-position:normal;font-variant-caps:normal;font-variant-numeric:normal;font-variant-alternates:normal;font-feature-settings:normal;text-indent:0;text-align:start;text-decoration:none;text-decoration-line:none;text-decoration-style:solid;text-decoration-color:#000000;letter-spacing:normal;word-spacing:normal;text-transform:none;writing-mode:lr-tb;direction:ltr;text-orientation:mixed;dominant-baseline:auto;baseline-shift:baseline;text-anchor:start;white-space:normal;shape-padding:0;clip-rule:nonzero;display:inline;overflow:visible;visibility:visible;opacity:1;isolation:auto;mix-blend-mode:normal;color-interpolation:sRGB;color-interpolation-filters:linearRGB;solid-color:#000000;solid-opacity:1;vector-effect:none;fill:#000000;fill-opacity:1;fill-rule:nonzero;stroke:none;stroke-width:1;stroke-linecap:square;stroke-linejoin:miter;stroke-miterlimit:4;stroke-dasharray:none;stroke-dashoffset:0;stroke-opacity:1;color-rendering:auto;image-rendering:auto;shape-rendering:auto;text-rendering:auto;enable-background:accumulate"
         d="M 9.0371094 2.4277344 L 9.0371094 9.390625 L 9.0371094 9.890625 L 10.037109 9.890625 L 10.037109 9.390625 L 10.037109 4.3183594 L 14.638672 9.890625 L 15.375 9.890625 L 15.375 2.9277344 L 15.375 2.4277344 L 14.375 2.4277344 L 14.375 2.9277344 L 14.375 7.9980469 L 9.7734375 2.4277344 L 9.0371094 2.4277344 z M 20.945312 2.4277344 L 17.912109 9.890625 L 18.990234 9.890625 L 20.117188 7.1210938 L 22.662109 7.1210938 L 23.9375 9.890625 L 25.039062 9.890625 L 21.603516 2.4277344 L 20.945312 2.4277344 z M 25.585938 2.4277344 L 25.585938 3.4277344 L 26.085938 3.4277344 L 28.255859 3.4277344 L 28.255859 9.390625 L 28.255859 9.890625 L 29.255859 9.890625 L 29.255859 9.390625 L 29.255859 3.4277344 L 31.423828 3.4277344 L 31.923828 3.4277344 L 31.923828 2.4277344 L 25.585938 2.4277344 z M 34.662109 2.4277344 L 34.662109 2.9277344 L 34.662109 9.390625 L 34.662109 9.890625 L 35.662109 9.890625 L 35.662109 9.390625 L 35.662109 2.9277344 L 35.662109 2.4277344 L 34.662109 2.4277344 z M 42.634766 2.4277344 C 40.745041 2.4277344 38.931641 4.0226931 38.931641 6.1582031 C 38.931641 8.2937031 40.745041 9.890625 42.634766 9.890625 C 44.52449 9.890625 46.337891 8.2937031 46.337891 6.1582031 C 46.337891 4.0226931 44.52449 2.4277344 42.634766 2.4277344 z M 49.074219 2.4277344 L 49.074219 9.390625 L 49.074219 9.890625 L 50.074219 9.890625 L 50.074219 9.390625 L 50.074219 4.3164062 L 54.677734 9.890625 L 55.414062 9.890625 L 55.414062 2.9277344 L 55.414062 2.4277344 L 54.414062 2.4277344 L 54.414062 2.9277344 L 54.414062 8.0019531 L 49.810547 2.4277344 L 49.074219 2.4277344 z M 60.982422 2.4277344 L 57.916016 9.890625 L 58.998047 9.890625 L 60.134766 7.1210938 L 62.65625 7.1210938 L 62.681641 7.1210938 L 63.943359 9.890625 L 65.042969 9.890625 L 61.640625 2.4277344 L 60.982422 2.4277344 z M 67.759766 2.4277344 L 67.759766 2.9277344 L 67.759766 9.890625 L 73.029297 9.890625 L 73.029297 8.890625 L 72.529297 8.890625 L 68.759766 8.890625 L 68.759766 2.9277344 L 68.759766 2.4277344 L 67.759766 2.4277344 z M 42.634766 3.4277344 C 43.948033 3.4277344 45.337891 4.6009431 45.337891 6.1582031 C 45.337891 7.7154531 43.948033 8.890625 42.634766 8.890625 C 41.321498 8.890625 39.931641 7.7154531 39.931641 6.1582031 C 39.931641 4.6009431 41.321498 3.4277344 42.634766 3.4277344 z M 61.34375 4.1835938 L 62.226562 6.1210938 L 60.546875 6.1210938 L 61.34375 4.1835938 z M 21.310547 4.1855469 L 22.203125 6.1210938 L 20.523438 6.1210938 L 21.310547 4.1855469 z "
         id="path857"
         transform="translate(1.49995,966.30921)" />
      <path
         style="color:#000000;font-style:normal;font-variant:normal;font-weight:normal;font-stretch:normal;font-size:medium;line-height:normal;font-family:sans-serif;font-variant-ligatures:normal;font-variant-position:normal;font-variant-caps:normal;font-variant-numeric:normal;font-variant-alternates:normal;font-feature-settings:normal;text-indent:0;text-align:start;text-decoration:none;text-decoration-line:none;text-decoration-style:solid;text-decoration-color:#000000;letter-spacing:normal;word-spacing:normal;text-transform:none;writing-mode:lr-tb;direction:ltr;text-orientation:mixed;dominant-baseline:auto;baseline-shift:baseline;text-anchor:start;white-space:normal;shape-padding:0;clip-rule:nonzero;visibility:visible;opacity:1;isolation:auto;mix-blend-mode:normal;color-interpolation:sRGB;color-interpolation-filters:linearRGB;solid-color:#000000;solid-opacity:1;fill:#000000;fill-opacity:1;fill-rule:nonzero;stroke:none;stroke-width:4;stroke-linecap:butt;stroke-linejoin:round;stroke-miterlimit:4;stroke-dasharray:none;stroke-dashoffset:0;stroke-opacity:1;color-rendering:auto;image-rendering:auto;shape-rendering:auto;text-rendering:auto"
         d="m 8.5117188,11.375 c -0.4093684,4e-5 -0.7421411,0.288158 -0.7421876,0.642578 V 17.375 c 1.6931815,1.413196 2.7365578,3.013266 2.9628938,5.625003 V 52.447266 C 10.732416,53.955266 8,55.941085 8,57.492188 v 0.80664 5.058594 2.001953 c 1.54e-5,0.221777 0.033312,0.43139 0.087891,0.630859 0.020096,0.07347 0.055862,0.13705 0.082031,0.207032 0.044264,0.118475 0.085621,0.238184 0.1445312,0.345703 0.041435,0.07565 0.09145,0.139269 0.1386719,0.208984 0.061187,0.09039 0.1189134,0.180148 0.1875,0.259766 0.053189,0.06181 0.1078188,0.113133 0.1640625,0.167969 0.048101,0.04694 0.093072,0.102987 0.1425781,0.144531 l 0.3730469,0.3125 L 109.37695,100.0293 c 0.86254,5.06306 2.25534,8.9027 3.70703,11.7207 0.29606,0.5747 0.54435,0.7578 0.83985,1.25 H 103 c -2,0 -5.521086,0.87893 5.25,8.21094 0.46643,0.35443 0.95412,0.69425 1.48828,1.00586 C 111.68584,123.3529 114.1,124 117,124 h 40 c 2.9,0 5.31416,-0.6471 7.26172,-1.7832 1.53521,-0.89556 2.73708,-1.99342 3.91211,-3.15235 l 22.22265,7.19336 V 77.523438 c -1.1e-4,-0.844701 -0.44754,-1.545544 -0.94726,-1.964844 L 114.25977,12.693359 c -0.0445,-0.0374 -0.0897,-0.0727 -0.13477,-0.105468 -0.55093,-0.40081 -1.16211,-0.570273 -1.79883,-0.570313 h -0.002 -9.70313 c -0.64008,4e-5 -1.25582,0.170862 -1.80859,0.576172 -0.55277,0.40531 -0.78451,1.212998 -1.072266,2.091797 C 98,20.000003 93.520142,20.285967 90.121044,22.318359 88.351032,19.645733 84.133564,11.375 71.306641,11.375 c -3.238416,0 -6.093409,0.914873 -8.392579,2.376953 -0.585571,0.372379 -1.112016,0.793059 -1.615234,1.232422 v -0.496094 -0.470703 c -9.4e-5,-0.606943 -0.239191,-1.127771 -0.554687,-1.535156 l -0.0098,-0.03516 -0.02344,-0.01172 C 60.55708,12.244996 60.390809,12.073863 60.216797,11.947266 59.66587,11.546456 59.052729,11.37505 58.416016,11.375 H 55.869141 55.021484 41.755859 c -0.636713,5e-5 -1.249854,0.171456 -1.800781,0.572266 -0.550926,0.40081 -1.081888,1.150362 -1.082031,2.070312 v 0.470703 l -2.957031,-2.480469 c -0.02489,-0.02089 -0.05277,-0.03306 -0.07813,-0.05273 -0.0961,-0.07466 -0.195148,-0.141052 -0.296875,-0.199219 -0.03781,-0.0216 -0.07482,-0.04499 -0.113282,-0.06445 -0.05038,-0.02553 -0.102924,-0.04049 -0.154296,-0.0625 -0.15797,-0.06764 -0.318052,-0.122533 -0.482422,-0.160156 -0.05757,-0.01319 -0.11388,-0.0272 -0.171875,-0.03711 C 34.4133,11.396409 34.205701,11.37502 34,11.375 H 17.962891 12.646484 Z"
         id="path6798"
         inkscape:connector-curvature="0"
         sodipodi:nodetypes="cccccscccccccccccccccccssccccccccccsscscccccccsccccsccccccccccccc"
         transform="translate(1.49995,966.30921)" />
      <path
         inkscape:connector-curvature="0"
         id="path860"
         d="m 14.14629,979.68419 a 0.88220203,0.64183247 0 0 0 -0.88211,0.64176 v 3.85061 a 0.88220203,0.64183247 0 0 0 0.88211,0.64177 c 0,0 0.57901,-0.004 1.23531,0.35348 0.65629,0.3581 1.41103,1.07267 1.41103,2.85536 v 32.73013 c 0,1.7114 -1.04599,2.3905 -2.15876,2.7952 -1.11278,0.4049 -2.25181,0.4137 -2.25181,0.4137 a 0.88220203,0.64183247 0 0 0 -0.88211,0.6418 v 7.0594 a 0.88220203,0.64183247 0 0 0 0.88211,0.6418 h 19.40651 a 0.88220203,0.64183247 0 0 0 0.88211,-0.6418 v -7.0594 a 0.88220203,0.64183247 0 0 0 -0.88211,-0.6418 c 0,0 -1.13903,-0.01 -2.2518,-0.4137 -1.11278,-0.4047 -2.15877,-1.0838 -2.15877,-2.7952 v -17.6599 l 18.60882,28.8433 a 0.88220203,0.64183247 0 0 0 0.79768,0.3685 h 7.05691 a 0.88220203,0.64183247 0 0 0 0.88212,-0.6418 v -43.64023 c 0,-1.78269 0.75474,-2.49726 1.41104,-2.85536 0.65629,-0.35811 1.2353,-0.35348 1.2353,-0.35348 a 0.88220203,0.64183247 0 0 0 0.88211,-0.64177 v -3.85061 a 0.88220203,0.64183247 0 0 0 -0.88211,-0.64176 H 43.25605 a 0.88220203,0.64183247 0 0 0 -0.88212,0.64176 v 3.85061 a 0.88220203,0.64183247 0 0 0 0.88212,0.64177 c 0,0 0.57901,-0.004 1.2353,0.35348 0.65629,0.3581 1.41104,1.07267 1.41104,2.85536 v 12.94313 L 33.48044,980.0715 a 0.88220203,0.64183247 0 0 0 -0.80976,-0.38731 z m 58.66057,0 c -2.86687,0 -5.33039,0.79888 -7.32051,2.06443 -1.99011,1.26556 -3.53513,2.98665 -4.7293,4.88973 -2.38833,3.80615 -3.38718,8.35199 -3.38718,11.65712 0,4.79143 2.02066,12.21853 7.53242,16.14823 a 0.88220203,0.64183247 0 0 0 0.83388,0.1642 c 0.92845,-0.1707 1.95576,-0.2682 3.10118,-0.2682 2.89904,0 4.91687,1.0807 6.47975,2.0519 a 0.88220203,0.64183247 0 0 0 0.84938,0.1216 c 4.52073,-1.0857 7.50277,-4.2412 9.38624,-7.7702 1.88347,-3.5291 2.69113,-7.4855 2.69113,-10.44753 0,-3.30513 -0.99885,-7.85097 -3.38717,-11.65712 -1.19417,-1.90308 -2.73919,-3.62417 -4.72931,-4.88973 -1.99012,-1.26555 -4.45364,-2.06443 -7.32051,-2.06443 z m 31.31504,0.64176 a 0.88220203,0.64183247 0 0 0 -0.88211,0.64679 c 0.0272,2.44937 -1.17238,4.18071 -3.04088,5.60043 -1.8685,1.4197 -4.43983,2.49498 -7.05691,3.447 a 0.88220203,0.64183247 0 0 0 -0.48758,0.57408 v 5.13414 a 0.88220203,0.64183247 0 0 0 0.88212,0.64177 h 3.52845 v 25.02894 c 0,1.7114 -1.04599,2.3905 -2.15876,2.7952 -1.11278,0.4048 -2.25181,0.4137 -2.25181,0.4137 a 0.88220203,0.64183247 0 0 0 -0.88211,0.6417 v 6.4177 a 0.88220203,0.64183247 0 0 0 0.88211,0.6418 h 26.46342 a 0.88220203,0.64183247 0 0 0 0.88211,-0.6418 v -6.4177 a 0.88220203,0.64183247 0 0 0 -0.88211,-0.6417 c 0,0 -1.13903,-0.01 -2.2518,-0.4137 -1.11278,-0.4047 -2.15877,-1.0838 -2.15877,-2.7952 v -40.43138 a 0.88220203,0.64183247 0 0 0 -0.88212,-0.64177 z m -31.31504,5.77592 c 0.76368,0 1.23862,0.18783 1.66085,0.50639 0.42225,0.31858 0.75156,0.79261 0.97343,1.29482 0.44377,1.00443 0.45312,2.0494 0.45312,2.0494 v 16.04422 c 0,0 -0.009,1.0449 -0.45312,2.0494 -0.22187,0.5022 -0.55118,0.9775 -0.97343,1.296 -0.42223,0.3186 -0.89717,0.5052 -1.66085,0.5052 -0.76368,0 -1.2369,-0.1866 -1.65913,-0.5052 -0.42223,-0.3185 -0.75155,-0.7938 -0.97342,-1.296 -0.44377,-1.0045 -0.45485,-2.0494 -0.45485,-2.0494 v -16.04422 c 0,0 0.0111,-1.04497 0.45485,-2.0494 0.22187,-0.50221 0.55119,-0.97624 0.97342,-1.29482 0.42223,-0.31856 0.89545,-0.50639 1.65913,-0.50639 z m -3.96951,29.52133 c -2.43533,0 -4.04234,0.421 -5.22204,1.0817 -1.12687,0.6312 -1.91261,1.5368 -2.6274,2.6097 a 0.88220203,0.64183247 0 0 0 -0.0896,0.2795 v 4.3721 a 0.88220203,0.64183247 0 0 0 0.88212,0.6418 h 1.64707 a 0.88220203,0.64183247 0 0 0 0.858,-0.4901 c 0.11397,-0.3427 0.27046,-0.6585 0.5427,-0.9614 0.54387,-0.6052 1.75494,-1.1156 3.12702,-1.1156 2.24575,0 3.65688,1.1154 5.20482,2.0807 1.50414,0.938 3.05037,1.7699 5.38055,1.7699 2.43534,0 4.04407,-0.421 5.22377,-1.0817 1.12691,-0.6312 1.91261,-1.5369 2.62739,-2.6097 a 0.88220203,0.64183247 0 0 0 0.0879,-0.2795 v -4.3721 a 0.88220203,0.64183247 0 0 0 -0.88212,-0.6418 h -1.64707 a 0.88220203,0.64183247 0 0 0 -0.85627,0.4914 c -0.11399,0.3426 -0.27042,0.6572 -0.5427,0.9601 -0.54389,0.6051 -1.7567,1.1156 -3.12875,1.1156 -2.24574,0 -3.65688,-1.1154 -5.20482,-2.0807 -1.50414,-0.938 -3.05037,-1.7699 -5.38055,-1.7699 z"
         style="fill:#fff339;fill-opacity:1;stroke:none;stroke-width:2;stroke-linecap:butt;stroke-linejoin:round;stroke-miterlimit:4;stroke-dasharray:none;stroke-opacity:1" />
      <g
         id="g6904">
        <path
           sodipodi:nodetypes="cccsssccccssscccc"
           inkscape:connector-curvature="0"
           d="m 90.49995,1035.3092 v 4 h -1 c 0,-3 -1,-3 -2,-3 -1,0 -2,0 -2,1 v 11 c 0,1 1,2 2,2 v 1 h -5 v -1 c 1,0 2,-1 2,-2 v -11 c 0,-1 -1,-1 -2,-1 -1,0 -2,0 -2,3 h -1 v -4 z"
           style="fill:#fff339;fill-opacity:1;stroke:#fff339;stroke-width:1px;stroke-linecap:round;stroke-linejoin:round;stroke-opacity:1"
           id="path6807" />
        <path
           transform="translate(1.49995,966.30921)"
           sodipodi:nodetypes="ccccccccccccscsccscsccccccc"
           inkscape:connector-curvature="0"
           id="path6812"
           d="m 92,69 v 1 c 1,1 1,2 1,2 v 10.000003 c 0,0 0,1 -1,2 v 1 h 9 v -4 h -1 c 0,2.000003 0,3.000003 -2,3.000003 l -2,-3e-6 c -1,0 -2,0 -2,-1 V 78 c 0,-1 1,-1 1,-1 h 2 c 1,0 2,1.000003 2,2 v -5 c 0,1.000003 -1,2 -2,2 h -2 c 0,0 -1,0 -1,-1 v -3.999997 c 0,-1 1,-1 2,-1 l 2,0 c 2,0 2,1 2,2.999997 h 1 v -4 z"
           style="fill:#fff339;fill-opacity:1;stroke:#fff339;stroke-width:1px;stroke-linecap:butt;stroke-linejoin:round;stroke-opacity:1" />
        <g
           id="g6914">
          <g
             id="g6908">
            <path
               sodipodi:nodetypes="ccsccccc"
               inkscape:connector-curvature="0"
               id="path6825"
               d="m 111.49995,1035.3092 h -1 l -4,13 c -0.3077,1 -1,2 -2,3 h 4 v -1 c -1,0 -1.36872,-0.8483 -1,-2 z"
               style="fill:#fff339;fill-opacity:1;stroke:#fff339;stroke-width:1px;stroke-linecap:round;stroke-linejoin:round;stroke-opacity:1" />
            <path
               style="fill:#fff339;fill-opacity:1;stroke:#fff339;stroke-width:1px;stroke-linecap:round;stroke-linejoin:round;stroke-opacity:1"
               d="m 110.49995,1035.3092 h 1 l 4,13 c 0.3077,1 1,2 2,3 h -4 v -1 c 1,0 1.36872,-0.8483 1,-2 z"
               id="path6827"
               inkscape:connector-curvature="0"
               sodipodi:nodetypes="ccsccccc" />
          </g>
          <path
             id="path6843"
             style="fill:#fff339;fill-opacity:1;stroke:#fff339;stroke-width:1px;stroke-linecap:butt;stroke-linejoin:miter;stroke-opacity:1"
             d="m 107.49995,1048.3092 c 0.5967,-1.939 1,-2 3,-2 h 1 c 2,0 2.4033,0.061 3,2 l -1.53846,-5 c 0.60608,1.9698 -0.46154,2 -1.46154,2 h -1 c -1,0 -2.06762,-0.03 -1.46154,-2 z"
             inkscape:connector-curvature="0"
             sodipodi:nodetypes="csccccscc" />
        </g>
      </g>
      <path
         id="path6869"
         style="fill:#fff339;stroke:#fff339;stroke-width:1px;stroke-linecap:butt;stroke-linejoin:round;stroke-opacity:1;fill-opacity:1"
         d="m 158.49995,1087.3092 c 5,0 7,-2 10,-5 h -13 c 0,0 8.5,-6 8.5,-27 h -51 c 0,21 8.5,27 8.5,27 h -13 c 3,3 5,5 10,5 z"
         inkscape:connector-curvature="0"
         sodipodi:nodetypes="ccccccccc" />
      <path
         style="opacity:1;fill:#fff339;fill-opacity:1;stroke:none;stroke-width:1px;stroke-linecap:butt;stroke-linejoin:miter;stroke-opacity:1"
         d="M 171.10742,89.025391 C 169.31301,89.336165 165.12681,91.961618 162,96 c -1.32325,1.70902 -4.83627,3.923752 -5.6875,7.28125 -0.49905,1.9684 4.41736,5.315 6.90625,3.375 1.07611,-0.8388 1.50737,-2.01535 2.75,-2.84375 2.02773,-1.3518 4.94183,-0.89571 6.71875,-3.3125 1.36821,-1.860912 3.06904,-9.656547 -0.625,-11.28125 -0.29088,-0.127935 -0.61558,-0.252158 -0.95508,-0.193359 z m -3.5265,4.921607 c 2.39854,-2.420257 4.89285,0.0089 3.45424,3.119408 -0.97348,2.104798 -2.45135,3.522004 -5.09766,4.183594 -0.53284,0.13321 -3.54932,1.82066 -3.5625,0.96875 -0.0894,-5.782733 2.02283,-5.059835 5.20592,-8.271752 z"
         id="path6874"
         inkscape:connector-curvature="0"
         sodipodi:nodetypes="sssssssssssss"
         transform="translate(1.49995,966.30921)" />
    </g>
  </g>
</svg>
